<?xml version="1.0" encoding="utf-8"?>
<!-- Generator: Adobe Illustrator 16.0.0, SVG Export Plug-In . SVG Version: 6.00 Build 0)  -->
<!DOCTYPE svg PUBLIC "-//W3C//DTD SVG 1.1//EN" "http://www.w3.org/Graphics/SVG/1.1/DTD/svg11.dtd" [
	<!ENTITY ns_flows "http://ns.adobe.com/Flows/1.0/">
	<!ENTITY ns_extend "http://ns.adobe.com/Extensibility/1.0/">
	<!ENTITY ns_ai "http://ns.adobe.com/AdobeIllustrator/10.0/">
	<!ENTITY ns_graphs "http://ns.adobe.com/Graphs/1.0/">
	<!ENTITY ns_vars "http://ns.adobe.com/Variables/1.0/">
	<!ENTITY ns_imrep "http://ns.adobe.com/ImageReplacement/1.0/">
	<!ENTITY ns_sfw "http://ns.adobe.com/SaveForWeb/1.0/">
	<!ENTITY ns_custom "http://ns.adobe.com/GenericCustomNamespace/1.0/">
	<!ENTITY ns_adobe_xpath "http://ns.adobe.com/XPath/1.0/">
]>
<svg version="1.1" id="Layer_1" xmlns:x="&ns_extend;" xmlns:i="&ns_ai;" xmlns:graph="&ns_graphs;"
	 xmlns="http://www.w3.org/2000/svg" xmlns:xlink="http://www.w3.org/1999/xlink" xmlns:a="http://ns.adobe.com/AdobeSVGViewerExtensions/3.0/"
	 x="0px" y="0px" width="100px" height="99.85px" viewBox="0 0 100 99.85" enable-background="new 0 0 100 99.85"
	 xml:space="preserve">
<metadata>
	<sfw  xmlns="&ns_sfw;">
		<slices></slices>
		<sliceSourceBounds  width="135.24" height="135.331" y="333.21" x="232.476" bottomLeftOrigin="true"></sliceSourceBounds>
	</sfw>
</metadata>
<path fill="#999999" d="M47.645,0.028c-1.133,0.189-2.036,1.057-2.272,2.179c-0.052,0.188-0.083,0.377-0.095,0.565l-2.556,9.276
	c-1.037,0.195-2.109,0.394-3.124,0.663c-1.22,0.329-2.345,0.804-3.503,1.229l-7.856-7.006c-0.883-0.8-2.176-0.951-3.219-0.378
	c-3.225,1.823-6.21,4.007-8.899,6.438c-0.896,0.813-1.165,2.114-0.663,3.218l4.45,9.469c-1.444,1.741-2.754,3.612-3.881,5.585
	L5.424,30.89c-1.234-0.044-2.349,0.729-2.746,1.896c-1.28,3.413-2.139,6.955-2.65,10.603c-0.174,1.229,0.48,2.424,1.608,2.938
	l9.373,4.354c0.028,2.237,0.236,4.479,0.663,6.725l-8.331,6.628c-0.956,0.729-1.335,1.984-0.947,3.122
	c1.247,3.521,2.924,6.711,4.828,9.752c0.639,1.021,1.859,1.516,3.03,1.229l10.035-2.649c1.468,1.704,3.114,3.229,4.829,4.642
	l-2.178,10.509c-0.223,1.16,0.308,2.336,1.326,2.937c3.142,1.852,6.531,3.406,10.035,4.545c1.157,0.368,2.42-0.056,3.124-1.041
	l5.962-8.521c2.235,0.373,4.512,0.497,6.816,0.477l4.921,9.369c0.573,1.058,1.755,1.628,2.937,1.422
	c1.545-0.266,3.073-0.524,4.643-0.944c2.021-0.541,3.979-1.229,5.865-1.988c1.164-0.438,1.898-1.598,1.802-2.84l-1.042-11.834
	c-0.135-1.541-1.484-2.688-3.029-2.558c-1.542,0.132-2.688,1.482-2.556,3.026l0,0l0.853,9.656c-1.101,0.391-2.172,0.83-3.312,1.135
	c-0.726,0.195-1.459,0.319-2.181,0.478l-4.729-8.897c-0.532-0.945-1.562-1.503-2.649-1.42c-3.104,0.188-6.14-0.104-9.086-0.757
	c-1.12-0.263-2.284,0.188-2.935,1.136l-5.585,7.952c-1.789-0.679-3.518-1.464-5.207-2.366l1.988-9.751
	c0.2-1.039-0.203-2.101-1.041-2.746c-2.457-1.819-4.654-4.003-6.531-6.438c-0.7-0.875-1.855-1.248-2.935-0.946l-9.277,2.461
	c-0.953-1.668-1.821-3.396-2.556-5.207l7.762-6.15c0.839-0.686,1.207-1.79,0.947-2.842c-0.732-3.083-1.072-6.108-0.947-9.088
	c0.01-1.093-0.62-2.092-1.609-2.556l-8.708-4.166c0.355-1.896,0.92-3.764,1.515-5.585l9.845,0.283
	c1.072,0.024,2.065-0.562,2.556-1.519c1.364-2.713,3.127-5.292,5.207-7.573c0.747-0.823,0.933-2.016,0.473-3.025l-4.071-8.71
	c1.5-1.241,3.062-2.362,4.733-3.408l7.29,6.532c0.826,0.749,2.015,0.935,3.03,0.474c1.467-0.627,2.935-1.083,4.544-1.515
	c1.423-0.381,2.875-0.766,4.259-0.947c1.081-0.16,1.969-0.938,2.272-1.988l2.556-9.371c1.909,0.03,3.788,0.104,5.682,0.379
	l1.42,9.848c0.164,1.082,0.938,1.97,1.985,2.271c2.929,0.881,5.738,2.146,8.33,3.787c0.945,0.64,2.183,0.64,3.124,0l7.855-5.585
	c1.482,1.257,2.859,2.635,4.164,4.071L77.66,28.91c-0.596,0.923-0.596,2.104,0,3.027c1.648,2.512,3.021,5.242,3.977,8.234
	c0.318,1.08,1.252,1.862,2.366,1.988l9.562,0.756c0.322,1.933,0.598,3.858,0.662,5.772l-9.373,3.125
	c-1.041,0.352-1.775,1.272-1.894,2.365c-0.356,3.067-1.207,6.096-2.366,8.898c-0.408,1.053-0.146,2.247,0.662,3.025l8.426,8.429
	c1.104,1.101,2.879,1.101,3.979,0s1.101-2.876,0-3.979l-7.388-7.287c0.768-2.145,1.326-4.363,1.705-6.628l10.035-3.312
	c1.145-0.347,1.938-1.367,1.985-2.56c0.032-3.604-0.354-7.329-1.138-10.979c-0.262-1.185-1.254-2.062-2.461-2.179l-10.32-0.944
	c-0.809-2.146-1.798-4.139-2.936-6.062l5.586-9.087c0.627-1.005,0.551-2.293-0.188-3.221c-2.356-2.854-5.089-5.345-7.952-7.571
	c-0.965-0.754-2.308-0.792-3.312-0.095l-8.521,5.962c-1.932-1.092-3.95-2.083-6.058-2.839L61.18,3.248
	c-0.166-1.197-1.082-2.151-2.271-2.367c-3.525-0.652-7.242-0.986-10.98-0.851C47.833,0.024,47.74,0.024,47.645,0.028z"/>
<path fill="#999999" d="M52.471,32.403c-2.401-0.337-4.899-0.282-7.382,0.382c-9.933,2.66-15.821,12.976-13.159,22.907
	c2.661,9.937,12.882,15.916,22.813,13.253c1.509-0.316,2.476-1.799,2.159-3.31c-0.319-1.512-1.805-2.475-3.312-2.156
	c-0.09,0.021-0.179,0.044-0.268,0.069c-7.008,1.877-14.12-2.271-15.997-9.276c-1.879-7.005,2.268-14.214,9.276-16.095
	c7.01-1.877,14.124,2.271,15.999,9.278c0.912,3.391,0.42,6.798-1.136,9.653c-0.759,1.36-0.271,3.077,1.088,3.835
	c1.36,0.76,3.075,0.271,3.833-1.089c2.217-4.062,2.898-9.018,1.609-13.819C66.003,38.587,59.684,33.418,52.471,32.403z"/>
<g>
	<g>
		<path fill="#FF4D4D" d="M17.08,22.952c-0.966-1.021-1.923-2.034-2.887-3.056C30.084,37.668,47.968,55.441,63.682,71.42
			c0.941,1.041,2.822,3.12,3.768,4.162c7.986,7.848,18.697,16.951,27.482,24.008c2.195,1.768,4.232,3.197,5.666,4.242
			c1.311,0.925,2.319,1.64,2.319,1.64c1.132,0.854,2.271,1.694,1.261,0.728c-2.092-1.874-7.309-6.556-7.134-6.73
			c0.039-0.039,1.065,0.91,2.099,1.859c0.166-0.165,3.455,2.484,4.439,3.481c1.089,0.896,7.109,6.752,8.039,7.809
			c1.498,1.476-0.051,0.053-2.215-2.487c-2.191-2.515-5.082-6.059-6.868-8.231c-1.784-2.182,0.162-0.164,0.246-0.247
			c-1.853-2.112-2.636-3.311-4.495-5.415c0,0-0.318-0.423-0.864-1.085c-0.551-0.66-1.31-1.568-2.151-2.582
			c-1.689-2.019-3.75-4.414-5.139-6c0,0-0.979-0.999-3.779-4.141c-0.936-1.047-1.002-0.978-1.072-0.907
			c0.07-0.069,0.07-0.069,0.138-0.14c-1.073-0.91-2.815-3.128-3.833-4.099c0.074-0.074,0.074-0.074,0.151-0.15
			c-2.033-1.924-3.774-4.143-5.753-6.125c0.082-0.081,0.082-0.081,0.164-0.164c-0.951-1.033-1.901-2.06-1.818-2.145
			c0.087-0.083,0.087-0.083,0.167-0.166c-0.862-1.122-2.94-3.005-2.769-3.178c-0.088,0.088-0.088,0.088-0.174,0.177
			c-3.824-4.104-6.631-7.236-9.44-10.365C54.753,46.69,44.69,36.939,35.409,28.393c-1.007-0.97-2.206-1.754-1.383-0.596
			l-3.033-2.912c-2.026-1.932-1.286-0.693-3.314-2.626C19.323,14.674,11.054,7.167,2.76-0.364
			C-5.611-7.84-14.143-15.153-23.024-22.116c4.451,3.473,7.608,6.263,11.908,9.88c-0.033,0.035-0.099,0.103,0.958,1.023
			C-3.857-5.627,3.529,0.852,6.346,3.977c0.963,1.02,1.775,2.185,4.827,5.077L8.116,6.165C8.043,6.237,7.902,6.378,7.902,6.378
			c3.993,3.933,8.955,8.877,12.879,12.876c0,0-0.172,0.172-0.257,0.258l1.998,1.961c1.375,2.588-9.482-8.346-14.544-13.188
			C7.907,8.355,7.762,8.5,7.69,8.573l1.982,1.981l-0.151,0.149C3.599,4.741-1.335-0.222-7.261-6.188
			c0.989,0.995,2.962,2.985,3.95,3.979c-0.054,0.053-0.107,0.106,0.874,1.104c-3.927-3.98-8.787-8.912-12.786-12.966
			c-1-0.979-0.093,0.094,2.763,3.176c2.907,3.04,4.84,5.062,7.747,8.105l-0.104,0.103c-1.932-2.032-4.788-5.118-6.748-7.12
			c-0.992-0.988,1.802,2.16,0.808,1.175c-0.953-1.032-1.906-2.06-2.888-3.062c2.859,3.089,6.647,7.181,9.526,10.291
			c0.906,1.076,1.801,2.159,1.687,2.275c4.823,5.075,8.48,9.341,10.958,12.805C9.319,14.861,14.181,19.909,17.08,22.952z"/>
	</g>
</g>
</svg>
