<?xml version="1.0" encoding="utf-8"?>
<!-- Generator: Adobe Illustrator 17.1.0, SVG Export Plug-In . SVG Version: 6.00 Build 0)  -->
<!DOCTYPE svg PUBLIC "-//W3C//DTD SVG 1.1//EN" "http://www.w3.org/Graphics/SVG/1.1/DTD/svg11.dtd">
<svg version="1.1" id="Selected_Items" xmlns="http://www.w3.org/2000/svg" xmlns:xlink="http://www.w3.org/1999/xlink" x="0px"
	 y="0px" viewBox="0 0 1062 520" enable-background="new 0 0 1062 520" xml:space="preserve">
<g>
	<path fill="#999999" stroke="#CCCCCC" stroke-miterlimit="10" d="M726.9,117.9c9.4,0,17.5,3.4,24.3,10.2c6.7,6.8,10.1,15,10.1,24.5
		c0,9.7-3.4,17.8-10.1,24.5c-6.7,6.8-14.8,10.2-24.3,10.2c-9.6,0-17.8-3.4-24.5-10.2c-6.6-6.7-9.9-14.8-9.9-24.5
		c0-9.5,3.3-17.7,9.9-24.5C709.2,121.3,717.4,117.9,726.9,117.9z M338.9,177.1c-6.6-6.7-9.9-14.8-9.9-24.5c0-9.5,3.3-17.7,9.9-24.5
		c6.9-6.8,15-10.2,24.5-10.2c9.4,0,17.5,3.4,24.3,10.2c6.7,6.8,10.1,15,10.1,24.5c0,9.7-3.4,17.8-10.1,24.5
		c-6.7,6.8-14.8,10.2-24.3,10.2S345.8,183.9,338.9,177.1z M313.8,307.6C461.1,198,613.4,201.8,770.6,318.9
		C609.5,243.4,457.2,239.7,313.8,307.6z"/>
	<path fill="none" stroke="#999999" stroke-width="9" stroke-linecap="round" stroke-linejoin="round" stroke-miterlimit="3" d="
		M602.3,7.5l37.2,0.8l7.9,0.2c2.6,0,5.1,0,7.7,0c76.1,0.1,152.3,0.3,228.5,0.6c0.7,0.1,1.4,0.3,2,0.6c12.4,3.4,22.9,11,31.6,22.9
		c11.5,15.4,7.8,132.7-11.1,351.9c0,0.5,0,1.1,0,1.6c-0.1,0.3-0.2,0.5-0.2,0.6c-0.1,0.3-0.3,0.5-0.4,0.6
		c-5.8,8.3-16.3,11.8-31.4,10.4l1.2,0.6l157.7,70.4c0.7,0.4,1.4,0.9,2.2,1.4c5.8,4.4,10.4,8.4,13.8,12c4.9,5.6,6.6,10.3,5.3,14.3
		 M599.6,24.9l35,0.8l7.3,0.2c2.3,0,4.6,0,7.1,0c71.2,0.1,142.6,0.3,213.9,0.6c0.7,0.1,1.3,0.3,1.8,0.4
		c11.7,3.3,21.7,10.4,29.8,21.4c10.5,14.4,7,124.2-10.5,329.5c0,0.5,0,1.1,0,1.6c-0.1,0.1-0.2,0.3-0.2,0.4c-0.1,0.3-0.3,0.5-0.4,0.6
		c-0.8,1.2-7.1,2.2-18.8,2.9c-3.5,0.3-7.4,0.5-11.7,0.6H621.7c-25.6,0.4-50.1,0.5-73.5,0.4c-243.4-0.7-367.5-4.4-372.2-11.2
		c-0.3-0.1-0.4-0.3-0.4-0.6c-0.1-1-0.2-1.8-0.2-2.6c-4.3-118.3-6.3-204.4-6.1-258.4c0.3-37.4,1.7-59.4,4.2-65.9
		c6.2-16.3,13.2-22.7,20.8-19c3.9-1.8,8.2-1.8,13,0l223.2-0.6l7.3-0.2l34.8-0.8 M647.4,8.5h-15.2h-5.9c-30.6,0-61.2,0-91.7,0
		c-10.3,0-20.4,0-30.6,0c-20.5,0-41,0-61.5,0c-1.1,0-2.2,0-3.2,0h-2.4h-15.2L183.1,9.1h-13.8c-8.2-3.8-15.7,2.9-22.3,20.2
		c-6.6,17.1-6,132.7,1.8,346.6c0,0.9,0.1,1.9,0.2,2.9c0.1,0.3,0.3,0.5,0.4,0.8c5.9,8.4,16.7,13.6,32.4,15.5h1.8l691.6,3.3
		 M639.5,8.3l-7.3,0.2 M437.9,25.7l6.9,0.2h2.4c0.8,0,1.8,0,3,0c28.7,0,57.4,0,86,0c28.6,0,57.3,0,86,0h5.5l6.9-0.2 M627.8,25.9
		h14.2 M183.1,9.1c-5-1.8-9.6-1.8-13.8,0 M194.4,26.5h13 M421.7,8.5l7.7-0.2l37.2-0.8 M429.4,8.3l7.5,0.2 M444.8,25.9h-14.2
		 M587.1,430.4l-1.6-11H480.8l-9.5,11 M397.8,411.5l-8.5,8h91.5l9.3-11.2H241 M584,409.8l1.4,9.6H699l-10.1-9.6 M377.6,430.4
		l11.7-11h-89.5l-22.5,14.1l519.4-0.8l-14.2-13.3H699l10.1,9.4 M237.7,409.8l-21.7,9.6h83.8l15-9.6 M410.4,435.1l-21.9,22l309.3-0.6
		l-13.6-19.8 M216.1,419.4l-30,12.9l91.3,1.2 M183.7,395.1L31.1,462.5c-0.7,0.4-1.4,0.9-2.2,1.4c-5.7,4.2-10.1,8.2-13.2,11.8
		c-0.9,2.3-1.9,4.4-2.8,6.3l1036.1,0.2 M15.7,475.8c-2.3,2.3-3.9,4.4-4.9,6.3h2c-10.3,20.3-7.1,30.4,9.5,30.4 M23.8,512.5h1009
		c1.1-0.3,2.1-0.5,3-0.6c14-3.3,20.4-7.8,19-13.7 M842.1,419.4h-59.5l-10.7-9.6 M796.8,432.7h80.4l-52.4-22.9 M490.1,408.2h331.3"/>
</g>
<line fill="#CCCCCC" stroke="#999999" stroke-width="15" stroke-miterlimit="10" x1="272.2" y1="51.4" x2="461.5" y2="124.8"/>
<line fill="#CCCCCC" stroke="#999999" stroke-width="15" stroke-miterlimit="10" x1="817.7" y1="49.3" x2="630.1" y2="126.8"/>
</svg>
