<?xml version="1.0" encoding="utf-8"?>
<!-- Generator: Adobe Illustrator 17.1.0, SVG Export Plug-In . SVG Version: 6.00 Build 0)  -->
<!DOCTYPE svg PUBLIC "-//W3C//DTD SVG 1.1//EN" "http://www.w3.org/Graphics/SVG/1.1/DTD/svg11.dtd">
<svg version="1.1" id="Layer_1" xmlns="http://www.w3.org/2000/svg" xmlns:xlink="http://www.w3.org/1999/xlink" x="0px" y="0px"
	 viewBox="0 0 595.3 841.9" enable-background="new 0 0 595.3 841.9" xml:space="preserve">
<g>
	<path fill="#069419" d="M399.2,271.6c34.1,0,68.2,0,102.3,0c2,0,2.8,0.1,2.8,2.6c-0.1,98.3-0.1,196.6,0,294.9
		c0,2.5-0.8,2.6-2.8,2.6c-34.1-0.1-68.2,0-102.3,0c-1.5-1.1-1.7-2.7-1.7-4.4c-0.1-23.4-0.1-46.7,0-70.1c0-1,0.2-2,0.5-2.9
		c0-2.1,1.1-3.4,3-4.3c5.6-2.6,11.4-4.9,17-7.7c15-7.6,29.5-16.2,43.3-25.8c2.7-1.8,5.5-3.3,8.3-4.9c0,0,0.1-0.1,0.1-0.1
		c-0.2,0.1-0.4,0.3-0.6,0.4c-20.7,11.5-42.9,18.5-65.5,24.8c-1.9,0.5-4.2,1.6-5.6-1.1c-0.9-2-0.7-4.2-0.7-6.3c0-22.4,0-44.8,0-67.3
		c0-2.2,0-4.5,0.7-6.7c0.4-2.1,1.9-2.9,3.8-2.8c2,0,3.2,1.3,3.8,3.1c1.5,4,3.5,7.7,6.6,10.8c6.7,6.6,17.6,9,26.1,5
		c9.3-4.3,15.3-11.1,15.2-22c0-1.6,0-3.3-0.1-4.9c-0.3-4.6,0.2-5.4,4.6-6.6c10.4-2.8,20.9-4.9,31.3-7.7c2.4-0.6,4.9-1.2,7.3-1.7
		c1.2-0.3,2.8-0.6,2.4-2.3c-0.4-1.6-2.1-1.1-3.2-0.8c-9.9,2.4-19.9,4.8-29.9,7.2c-20.6,4.8-40.9,10.3-61.4,15.4
		c-2.4,0.6-5,1.6-6.7-1.4c-0.8-2.2-0.6-4.4-0.6-6.7c0-33.5,0-67.1,0-100.6C397.4,276.7,396.7,273.8,399.2,271.6z"/>
	<path fill="#2E5CEA" d="M184,571.6c-29.8,0-59.7,0-89.5,0c-2,0-2.8-0.2-2.8-2.6c0.1-98.3,0.1-196.6,0-294.9c0-2.4,0.7-2.6,2.8-2.6
		c29.8,0.1,59.7,0,89.5,0c2.1,1.6,1.8,4,1.8,6.2c0.1,10.6,0,21.2,0,31.8c0,22,0,44,0,65.9c0,2.4,0.3,4.8-0.7,7
		c-1.4,2.9-3.8,1.9-5.9,1.4c-10-2.4-19.9-4.9-29.8-7.4c-14.9-3.7-29.9-6.9-44.9-10.3c-0.2-0.1-0.5-0.1-0.7-0.2c-1.4-0.1-3.4-1-3.8,1
		c-0.3,1.7,1.6,2,2.9,2.3c3.4,0.7,6.8,1.6,10.2,2.4c9.1,2,18.3,4.1,27.4,6.2c5,1.2,5.6,1.9,4.9,7c-2.6,18.9,15.8,33.3,33.7,26.3
		c2-0.8,4.1-2.4,6.1,0.2c0.6,1.3,0.6,2.7,0.6,4c0.1,15.8,0.1,31.6,0,47.4c0,1.1-0.1,2.2-0.3,3.3c-1.2,2.9-3.5,2.8-5.9,2
		c-14.5-4.9-29.3-9.2-42.9-16.5c10,5,19.2,11.4,29,16.7c5.4,2.9,10.7,5.9,16.2,8.7c2,1,3.6,2.2,3.5,4.8c0.5,1.7,0.6,3.4,0.6,5.2
		c0,25.9,0,51.8,0,77.7C185.8,567.3,186.2,569.8,184,571.6z"/>
	<path fill="#FEB917" d="M399.2,394.8c0,27.1,0.1,54.1,0.1,81.2c-0.5,2.6-2.7,2.7-4.5,3.2c-12.6,3.1-25.4,5.4-38.3,7.2
		c-16.7,2.2-33.5,3.4-50.4,3.1c-4-0.1-7.9-0.8-11.9-1c-1.2-0.1-2.2-0.4-2.9-1.5c-1-2-1-4.1-1-6.2c0-67.5,0-135,0-202.5
		c0-2.3-0.4-4.8,1.8-6.6c35.7,0,71.5,0,107.2,0c0,38.5,0,77,0,115.5c0.3,2.3-1.7,2.5-3.1,2.9c-2.7,0.9-5.5,1.4-8.3,2.2
		c-1,0.3-2.5,0.6-2.2,2c0.4,1.7,1.9,1.2,3.1,1c2.2-0.4,4.3-1.1,6.5-1.5C396.7,393.6,398.3,392.9,399.2,394.8z"/>
	<path fill="#E82D3F" d="M292,271.6c0,1.9-0.1,3.7-0.1,5.6c0,69.8,0,139.7,0,209.5c-1,2.2-3.1,1.8-4.9,1.8c-9.5,0-18.9-1.3-28.3-2.4
		c-22.8-2.9-45.3-7.7-67.4-14.2c-2.8-0.8-6.4-0.6-7.6-4.5c0-18.7-0.1-37.5-0.1-56.2c-0.5-1.5,0.5-2.4,1.4-3.2
		c3.8-3.4,6.5-7.6,8.3-12.2c1.2-3,3.1-3.9,6.2-3.2c3.5,0.8,7,1.8,10.5,2.5c1.2,0.2,2.8,0.8,3.2-0.9c0.4-1.6-1.4-1.9-2.5-2.2
		c-7.7-1.9-15.4-4.1-23.1-6.1c-1.6-0.4-3.6-0.6-3.9-2.8c0-35.6,0-71.2,0-106.8c0-1.6-0.3-3.3,0.4-4.8C220,271.6,256,271.6,292,271.6
		z"/>
	<path fill="#E82D3F" d="M184,571.6c-0.1-1-0.4-2-0.4-2.9c0-28.5,0-57.1,0-85.6c0-0.9,0.1-1.7,0.2-2.6c1.6-1.3,3.1-0.5,4.5,0.2
		c12.6,5.6,25.4,11,38.5,15.3c17,5.5,34.3,9.6,52,11.7c3.1,0.3,6.2,0.8,9.3,0.9c2,0.1,4,0.6,4.8,2.8c0.7,1.7,0.7,3.4,0.7,5.2
		c0,16.3,0.1,32.6,0,48.9c0,2.2,0.3,4.6-1.8,6.2C256,571.6,220,571.6,184,571.6z"/>
	<path fill="#FEB917" d="M292,571.6c0-20.2-0.1-40.5-0.1-60.7c0.8-1.9,2.6-1.7,4.2-1.8c4-0.2,8-0.1,12-0.1
		c28.1,0.3,55.1-5.3,81.3-14.9c1.9-0.7,3.8-1.2,5.7-1.9c1.4-0.5,2.9-1,4.1,0.5c0,26.2,0,52.5,0.1,78.7
		C363.5,571.6,327.7,571.6,292,571.6z"/>
	<path fill="#FEFEFE" d="M399.2,492.9c-11.6,3.9-23.1,8.3-35.1,11.3c-22.1,5.5-44.6,7.7-67.4,6.8c-1.6-0.1-3.2,0-4.9,0
		c-10.4-1.4-20.8-2.2-31.1-4.2c-26.1-5.1-50.9-13.9-74.9-25.3c-0.7-0.3-1.4-0.6-2.1-0.9c-18.1-9.2-35.6-19.3-52-31.5
		c1.8,0.7,3.6,1.4,5.4,2.1c14.6,6.1,29.5,11.4,44.5,16.2c0.6,0.2,1.2,0.2,1.8,0.3c13.2,4.7,26.8,7.8,40.4,10.8
		c19.3,4.2,38.8,6.9,58.5,8.4c3.1,0.2,6.2,0.1,9.4,0.1c22.1,1.4,44.1,0.6,66-2.5c13.9-2,27.8-4.5,41.4-8.3c22.4-5.6,44-13.5,65-23.1
		c1.7-0.8,3.4-1.4,5.1-2.1c1.1-0.4,1.2,0.2,1.1,1c-16.2,12.5-33.6,23-51.8,32.1C412.3,487,405.7,489.9,399.2,492.9z"/>
	<path fill="#FEFEFE" d="M399.2,394.8c-3.6,0.9-7.2,1.8-10.9,2.6c-2.3,0.5-4.7,0.8-5.5-2.2c-0.8-3.1,1.2-4.1,3.9-4.7
		c4.2-1,8.4-2.3,12.6-3.5c12.8-3.1,25.6-6.3,38.4-9.4c19.6-4.8,39.2-9.6,58.8-14.3c2-0.5,4-1,5.6,0.9c1.7,2.1,0.3,4.8-3,5.7
		c-13.4,3.3-26.8,6.6-40.3,9.7c-2.6,0.6-4,1.1-3.4,4.6c2,11.8-2.5,21.2-12.7,27.2c-9.4,5.5-19.1,5.1-28.2-1.1
		c-4.7-3.2-8.5-7.5-9.9-13.2C403.6,393.5,402,393.3,399.2,394.8z"/>
	<path fill="#EFFBF8" d="M470.5,451.8c-0.4-0.3-0.7-0.7-1.1-1c1.3-1.1,2.8-1.8,4.7-2C473.3,450.2,472,451,470.5,451.8z"/>
	<path fill="#FEFEFE" d="M183.6,383.3c9.8,2.5,19.5,5.1,29.3,7.5c2.4,0.6,3.7,1.7,3.3,4.1c-0.5,2.7-2.6,3.2-4.9,2.7
		c-4.5-1-8.9-2.2-13.4-3.5c-1.6-0.4-2.4-0.4-2.9,1.6c-1.7,6.7-6.1,11.6-11.5,15.6c-12.3,6.4-22.7,5.1-32.6-4.1
		c-6.9-6.5-8.6-14.7-7.1-23.7c0.3-2.1,0.1-2.8-2-3.2c-13.3-2.9-26.5-5.9-39.8-8.9c-1-0.2-2-0.3-2.9-0.7c-1.6-0.8-3-1.8-2.5-4
		c0.4-2.1,1.7-3.1,3.7-2.8c3.4,0.6,6.9,1.3,10.3,2C135.1,371,159.3,377.4,183.6,383.3z"/>
</g>
</svg>
