<?xml version="1.0" standalone="no"?>
<!DOCTYPE svg PUBLIC "-//W3C//DTD SVG 1.1//EN" "http://www.w3.org/Graphics/SVG/1.1/DTD/svg11.dtd" >
<svg xmlns="http://www.w3.org/2000/svg">
<metadata></metadata>
<defs>
<font id="averia_sans_libreregular" horiz-adv-x="1120" >
<font-face units-per-em="2048" ascent="1638" descent="-410" />
<missing-glyph horiz-adv-x="591" />
<glyph horiz-adv-x="0" />
<glyph horiz-adv-x="682" />
<glyph unicode=" "  horiz-adv-x="591" />
<glyph unicode="&#x09;" horiz-adv-x="591" />
<glyph unicode="&#xa0;" horiz-adv-x="591" />
<glyph unicode="!" horiz-adv-x="583" d="M368 514q0 -115 -80 -115h-23q-58 0 -58 91l-2 24v24l-2 60v84l-1 49v317q0 285 11 329q15 61 96 61h35q36 0 52 -24t16 -91v-11l-1 -12l-3 -82l-2 -48q-2 -24 -2 -36l-2 -25q-1 -13 -1 -24l-2 -24q-1 -12 -1 -24l-3 -49l-2 -25q-2 -25 -2 -37l-2 -24q-1 -12 -1 -25 l-2 -24q-1 -12 -1 -25l-2 -24q-1 -12 -1 -24l-3 -49l-2 -24q-6 -72 -6 -108l-2 -24q-1 -12 -1 -61zM163 100v17l1 4l3 29q1 5 1 8q0 33 27.5 56t87.5 23h12q65 0 84.5 -29.5t19.5 -78.5v-17q0 -59 -26 -90t-93 -31h-13l-4 1h-8l-16 2q-76 0 -76 106z" />
<glyph unicode="&#x22;" horiz-adv-x="747" d="M213 1476h24q73 0 73 -47v-43l-1 -6l-3 -49l-4 -37l-3 -31l-2 -25l-2 -12l-3 -37q-4 -28 -6.5 -51.5t-3.5 -32.5t-2.5 -21.5t-1.5 -18.5q0 -72 -75 -72h-12q-50 0 -50 50l-3 25v12l-2 25v13l-1 12v13l-1 12v13l-1 12v37l-1 13v31l-1 7v31l-1 24v87q0 66 83 66zM579 1473 q49 0 49 -44v-31l-1 -6v-12l-8 -98q-2 -12 -2 -18l-3 -25l-2 -25q-4 -24 -5.5 -39.5t-2.5 -25.5t-2 -18.5t-2.5 -21t-3 -24.5t-1.5 -18q0 -71 -70 -71h-17q-39 0 -49 36t-10 126v99l-1 19v18l-1 25v86q0 67 61 67l29 3h24q12 -2 18 -2z" />
<glyph unicode="#" horiz-adv-x="1267" d="M497 544h10l5 1l88 4q100 0 113 15q41 48 41 163l17 79l1 6l1 5v10q0 12 -13 12h-29l-6 -1h-30l-5 -1h-10l-10 -1h-12q-93 0 -112 -11q-34 -19 -34 -102l-12 -62l-16 -73l-3 -17v-15q0 -12 16 -12zM1142 906q0 -48 -66 -64q-118 -29 -128 -44q-35 -52 -35 -173 q0 -50 89.5 -65.5t89.5 -66.5q0 -37 -35 -59q-12 -7 -79 -22.5t-96 -47t-56.5 -141.5t-37.5 -127q-22 -35 -70 -35q-61 0 -61 58q0 35 13 120t13 102q0 61 -63 61q-117 0 -140 -22t-51.5 -126.5t-52.5 -145t-80 -40.5t-56 64l7 146q0 78 -39 104q-83 55 -83 95t55 61 q119 45 122 49q39 46 39 167q0 44 -27 60q-6 4 -78.5 17t-72.5 52.5t30 64.5q8 6 92 30t110 63q10 15 41 123t35 116q20 38 65 38q66 0 66 -89l-3 -32l-9 -64q-11 -89 -11 -95q0 -55 65 -55q118 0 146 28q16 16 38.5 106.5t39.5 130.5q29 69 71 69q76 0 76 -72l-11 -152 q0 -49 10.5 -65t81.5 -51q46 -23 46 -71z" />
<glyph unicode="$" horiz-adv-x="1121" d="M506 1229h-19q-50 0 -103 -45.5t-53 -102.5q-4 -20 -4 -27v-32q0 -56 52.5 -117.5t115.5 -61.5h12q10 0 10 20l4 27v56l1 11v58l2 26v15l1 5v26l1 15v55l1 10q0 62 -21 62zM641 175h18q73 0 134 78q40 51 40 115v18q0 87 -48 149q-72 92 -133 92q-35 0 -35 -124v-18l1 -6 v-24l6 -89q0 -191 17 -191zM710 1170q-70 0 -71 -206q0 -120 18.5 -147t122.5 -87.5t161 -129.5t57 -177v-31q0 -218 -217 -326q-144 -72 -148.5 -76.5t-31.5 -87.5q-15 -45 -54.5 -45t-61.5 56t-42 72.5t-110.5 61t-138 93t-47.5 92.5q0 76 71 76q26 0 98.5 -43.5 t117.5 -43.5q62 0 62 226q0 101 -28.5 141.5t-123.5 111t-134 142.5t-39 181.5t70 189t173 124.5q52 24 67 37.5t45 72.5t63 59q24 0 286 -223q60 -51 60 -101q0 -67 -62 -67q-33 0 -83 27.5t-80 27.5z" />
<glyph unicode="%" horiz-adv-x="1601" d="M340 842h29q47 0 85 48.5t38 114.5q2 12 2 19l2 26v46q0 84 -32.5 132.5t-85.5 48.5h-12q-66 0 -101 -63t-35 -152v-33q0 -76 31 -131.5t79 -55.5zM1024 332l2 -31q0 -53 29 -96t66 -43l11 -2h12l6 1q61 0 103 63t42 172v26l-1 7v13q-2 12 -2 18q0 59 -34.5 103.5 t-77.5 44.5h-12q-65 0 -105 -60.5t-40 -162.5v-46zM677 1103v-56q0 -158 -90.5 -255t-218.5 -97h-33q-107 0 -176.5 80t-69.5 224v34q0 162 87 262.5t233 100.5h11q111 0 184 -78.5t73 -214.5zM1142 1390h16q61 0 61 -28q0 -96 -681 -1218q-77 -127 -132 -127h-16 q-62 0 -62 29q0 61 627 1131q125 213 187 213zM1170 715h44q52 -1 106 -29q146 -77 146 -308l-1 -12v-11q0 -151 -69 -231q-90 -104 -221 -104h-23q-121 0 -193 83t-72 218l-2 21v45q0 146 84.5 237t200.5 91z" />
<glyph unicode="&#x26;" horiz-adv-x="1325" d="M460 1119v-41q0 -58 71 -176q24 -40 45 -40q56 0 123 107q38 61 38 132v18q0 57 -34 100.5t-82 43.5h-21q-59 0 -99.5 -52t-40.5 -92zM325 423v-31q0 -99 61 -167t146 -68h31q87 0 170 58q43 30 43 51v5q0 3 -51.5 71.5t-134 188t-93.5 119.5q-39 0 -124 -113 q-48 -64 -48 -114zM532 -16q-166 0 -278.5 100.5t-112.5 255.5t138 322q72 87 72 111.5t-34 110.5t-34 157q0 136 95 221t219 85t205.5 -74.5t81.5 -164.5t-31.5 -160.5t-91.5 -147t-60 -122t80 -133t116.5 -87.5t95 90.5t104.5 90.5q60 0 60 -56q0 -36 -37 -128.5t-37 -150 t53.5 -129t53.5 -95.5q0 -45 -61 -45q-39 0 -96.5 23.5t-79.5 23.5t-87 -25l-47 -19q-143 -54 -259 -54h-28z" />
<glyph unicode="'" horiz-adv-x="454" d="M229 1458h37q68 0 68 -52v-18l-1 -7v-18l-8 -99l-1 -6l-1 -13l-3 -31q-4 -24 -6 -42.5t-3.5 -32t-4 -31t-2.5 -47.5t-18.5 -57.5t-64.5 -27.5h-6q-44 0 -52.5 31.5t-8.5 128.5v109l-1 12v19l-1 12v25l-1 24v44q0 42 15 59.5t63 17.5z" />
<glyph unicode="(" horiz-adv-x="701" d="M548.5 1528q64.5 0 64.5 -41v-16q0 -14 -86 -143t-121 -233q-73 -219 -73 -559.5t153 -567.5q96 -144 96 -173q0 -48 -61 -48h-19q-50 1 -127 89q-149 172 -198 421q-34 174 -34 335l1 21q0 315 105 574q54 134 144.5 237.5t155 103.5z" />
<glyph unicode=")" horiz-adv-x="699" d="M567 632q0 -144 -31.5 -302t-85.5 -278.5t-139 -214.5t-147.5 -94t-62.5 44v16q0 9 85 136.5t116 218.5q76 222 76 481t-47 425t-151 304q-51 69 -51 97q0 61 61.5 61t141.5 -88q149 -166 205 -449q30 -154 30 -271v-86z" />
<glyph unicode="*" horiz-adv-x="933" d="M131 1128q0 26 24 51t51.5 25t91 -24.5t72 -24.5t7 39.5t-1.5 58.5q0 126 56 126h14q80 0 94 -107l2 -24q2 -29 4 -32q7 -14 53 -14l43 12q23 6 44 6q70 0 70 -46.5t-16 -86.5l-23 -58l-15 -87q0 -64 -34 -106q-74 -92 -116 -92h-9q-25 0 -70 37t-62 37t-59.5 -27 t-77.5 -27q-71 0 -71 40q0 65 32 104q9 11 36.5 37.5t27.5 36.5q0 19 -83.5 54t-83.5 92z" />
<glyph unicode="+" horiz-adv-x="1064" d="M609 355.5q0 -137.5 -14.5 -166t-73.5 -28.5h-16q-44 0 -54 35q-6 20 -6 164.5t-7 152t-142 7.5t-164 8.5t-29 53.5v32q0 42 32.5 53t166 11t140.5 14t7 150t15.5 163.5t71.5 27.5t67 -24.5t11 -168t9.5 -150t149 -6.5t164 -11t24.5 -64.5t-29 -68t-165 -14.5l-50 -2 l-67 -2q-30 0 -35.5 -14.5t-5.5 -152z" />
<glyph unicode="," horiz-adv-x="517" d="M151 130q0 55 25 80t84 25h27q48 0 71 -20.5t23 -73.5v-21l-1 -7l-1 -21l-2 -27q0 -87 -81 -226q-58 -99 -119 -99h-6q-48 0 -48 41q0 12 31 74t31 86.5t-16 64.5t-16 71l-2 13v40z" />
<glyph unicode="-" horiz-adv-x="839" d="M172 487q-60 0 -60 53v29q0 65 38.5 74t275.5 9l137 2h113q52 0 52 -52v-30q0 -65 -42 -75q-30 -7 -280 -7h-15l-23 -1h-45l-23 -1h-45l-31 -1h-52z" />
<glyph unicode="." horiz-adv-x="520" d="M307 229q70 0 70 -70q5 -20 5 -29l1 -17v-9l-1 -4q0 -113 -90 -113l-25 -3h-26l-4 1h-9q-8 2 -12 2q-79 0 -79 100v38q3 15 3 34t20.5 44t58.5 25q12 3 16 3l26 2h9l4 -1l25 -2q4 -1 8 -1z" />
<glyph unicode="/" horiz-adv-x="843" d="M749.5 1483q57.5 0 57.5 -43q0 -25 -101.5 -278.5t-265 -674.5t-197.5 -495.5t-54.5 -98.5t-79 -24t-58.5 43q0 19 51 152q387 1013 466 1191.5t101.5 203t80 24.5z" />
<glyph unicode="0" horiz-adv-x="1175" d="M844 739q0 465 -243 465q-155 0 -228 -151.5t-73 -403.5v-45q0 -350 145 -441q44 -27 96 -27h26q57 0 111 36t88 101q78 150 78 390v76zM593 1360h20q225 0 345 -185q103 -159 103 -444v-62q-1 -143 -33 -277q-64 -267 -243 -358q-107 -55 -218 -55h-20 q-203 0 -320 153.5t-117 492.5v21q0 512 282 662q97 52 201 52z" />
<glyph unicode="1" horiz-adv-x="824" d="M157 1108.5q0 54.5 91 116.5q170 115 252 115q62 0 76 -73v-462l-5 -178q0 -182 3 -206.5t29.5 -92.5t26.5 -150.5t-63 -139.5q-39 -35 -115 -35t-123 44.5t-47 123.5q0 35 41 158t41 232l2 38l1 57v96q0 208 -32 257q-15 24 -96.5 34.5t-81.5 65z" />
<glyph unicode="2" horiz-adv-x="1098" d="M838 184q128 0 128 -87q0 -60 -85 -74t-441 -14l-61 -1h-121q-69 0 -99.5 16.5t-30.5 53.5v26q0 93 109 231q62 78 222 231t217 238.5t57 179.5t-54.5 145.5t-143 51.5t-195.5 -71.5t-140 -71.5q-48 0 -48 81q0 26 33 73t97 88q122 78 284.5 78t265.5 -91 q51 -45 80 -114.5t29 -147.5q0 -162 -106 -303q-59 -79 -244.5 -251.5t-185.5 -232.5q0 -37 235 -37l116 2l28 1h54z" />
<glyph unicode="3" horiz-adv-x="1093" d="M393 724q0 32 86 74.5t143 109t57 135t-40.5 105t-141.5 36.5q-33 0 -131 -26t-130 -26q-49 0 -49 60.5t125 114.5t247 54h32q133 0 198 -48q92 -68 92 -204t-80 -269q-41 -68 -41 -75q0 -22 63 -71t104.5 -122t41.5 -164v-32q0 -168 -140 -285q-140 -118 -345 -118h-31 q-109 0 -212.5 56t-103.5 117v20q0 55 90 55q30 0 121 -26.5t151 -26.5q107 0 177.5 57.5t70.5 157.5t-70 163q-48 43 -95.5 57.5t-90.5 24t-60 20.5q-38 25 -38 76z" />
<glyph unicode="4" horiz-adv-x="1151" d="M320 488h50l8 1l219 5q8 1 16 1q58 0 58 80l3 26l3 54v19l7 126v18l12 250v8q0 26 -2.5 26t-65.5 -86l-30 -45q-11 -17 -37 -52q-280 -382 -280 -419v-4q0 -8 39 -8zM1047 427q0 -75 -87 -103q-51 -16 -63 -44q-6 -13 -11 -112t-24 -143t-82 -44t-80 34.5t-25 139.5 t-43 134q-57 47 -294 47l-21 1q-21 1 -82 1t-102.5 18t-41.5 79t69 166q144 219 413 585q79 108 120.5 138.5t93.5 30.5h19q63 0 78 -50q8 -27 8 -184l-1 -21v-43l-1 -22q-1 -23 -1 -65v-106l1 -42v-43l3 -102q0 -93 31 -139q7 -10 77 -45q46 -23 46 -66z" />
<glyph unicode="5" horiz-adv-x="1100" d="M860 1357q74 0 74 -48q0 -70 -59 -93t-233 -28.5t-214 -35.5q-70 -52 -70 -235q0 -68 67 -68l57 2q334 0 445 -215q45 -87 45 -185v-33q0 -194 -127 -315q-137 -131 -369 -131q-118 0 -209 42q-141 64 -141 148q0 30 23.5 48.5t49.5 18.5t121.5 -35.5t178.5 -35.5 q126 0 193.5 73t67.5 198.5t-103 193.5q-82 54 -309 54q-100 0 -137 42t-37 150q0 327 60 420q25 39 86.5 51t218.5 12l161 3l65 1l31 1h64z" />
<glyph unicode="6" horiz-adv-x="1125" d="M554 699q-100 0 -170 -83q-52 -61 -52 -185v-9q0 -125 60.5 -204t154.5 -79h26q105 0 178 80t73 200v48q0 103 -59.5 168.5t-156.5 65.5h-27q-18 -2 -27 -2zM1014 431v-25q0 -82 -36 -167q-69 -162 -242 -226q-84 -31 -174 -31h-26q-102 0 -184 42q-243 123 -243 507v3 v26l1 26q0 162 39 309q77 289 312 407q104 52 203.5 52t148.5 -27.5t49 -70.5t-42 -68q-23 -14 -145.5 -39.5t-199.5 -88.5q-117 -96 -117 -208q0 -61 57 -61q8 0 90 12t147.5 12t143 -29.5t129.5 -88.5q89 -101 89 -266z" />
<glyph unicode="7" horiz-adv-x="1038" d="M104 1258q0 58 65 73q95 22 367 22h141q145 0 211 -26q46 -18 46 -86q0 -131 -443 -1199q-29 -71 -86 -71t-81 17t-24 61q0 76 163 532q47 132 134.5 299t87.5 217.5t-55 66.5t-191 16l-235 -9q-100 0 -100 87z" />
<glyph unicode="8" horiz-adv-x="1125" d="M777 1052v22q0 72 -53.5 125.5t-145.5 53.5h-22q-90 0 -151 -55t-61 -135v-22q0 -82 62 -151t155 -69l7 1q75 0 142 67t67 163zM517 136h36q119 0 183.5 70.5t64.5 179.5l-1 9q0 105 -77 182t-178 77h-17q-96 0 -168 -79.5t-72 -189.5v-18q0 -95 62 -163t167 -68z M810 751q0 -6 52 -60q130 -133 130 -290v-44q0 -73 -31 -143q-62 -140 -225 -202q-91 -35 -194 -35h-23q-189 0 -305 103.5t-116 269.5v23q0 163 136 299q59 59 59 60q-1 11 -43 64q-94 118 -94 262.5t113.5 243t298.5 98.5h23q170 0 270.5 -91.5t100.5 -227.5 q0 -135 -103 -263q-49 -60 -49 -67z" />
<glyph unicode="9" horiz-adv-x="1122" d="M575 1219h-36q-110 0 -177 -87t-67 -214v-9q0 -124 63.5 -187.5t160.5 -63.5h9l9 1q118 0 189.5 65.5t71.5 186.5v27q-3 27 -3 45q0 90 -67 163t-153 73zM712 554q-27 0 -94.5 -12.5t-140 -12.5t-149 32t-120.5 79q-98 104 -98 264v25q0 192 122.5 318.5t334.5 126.5h26 q93 0 177 -42q161 -79 208 -261q26 -102 26 -253v-26q0 -562 -341 -739q-123 -63 -237 -63h-21q-74 0 -112 29t-38 69q0 65 116 90q3 2 39 8q241 44 329 221q23 47 23 97t-50 50z" />
<glyph unicode=":" horiz-adv-x="543" d="M294 941q47 0 73 -22t26 -87v-17q0 -114 -88 -114q-8 -2 -12 -2l-21 -2h-17q-102 0 -102 77q-2 8 -2 12l-2 17v29l4 29q0 76 79 76q8 2 12 2l16 2h34zM268 20h-17q-102 0 -102 72q-3 12 -3 16l-2 21v17q0 66 27 93t101 27l4 -1l30 -2q4 -1 8 -1q73 0 73 -97v-34l-4 -29 q0 -43 -34 -62.5t-81 -19.5z" />
<glyph unicode=";" horiz-adv-x="541" d="M392 779q0 -67 -31 -89t-85 -22h-13l-4 1h-12q-18 3 -20 3q-67 0 -67 72q-2 8 -2 12l-2 21v17q0 117 92 117q8 2 12 2l17 1h12l32 -4q66 0 66 -68q3 -12 3 -13l2 -21v-29zM292 248q58 0 76.5 -24t18.5 -74v-27q0 -137 -72.5 -251t-132.5 -114h-6q-45 0 -45 44q0 9 31 71 t31 85t-18 68t-18 109q0 111 94 111l13 2h28z" />
<glyph unicode="&#x3c;" horiz-adv-x="1045" d="M839 1087h15q34 0 34 -63t-79 -124.5t-282 -179t-203 -130.5t208 -130t265 -156q94 -64 94 -118v-15q0 -64 -44 -64q-16 0 -78 32q-323 167 -592 343q-70 46 -70 103t72 104q607 398 660 398z" />
<glyph unicode="=" horiz-adv-x="1099" d="M180 692q-59 0 -59 52v19q0 68 44 75.5t382 7.5l137 1h193q77 0 77 -54v-28q0 -58 -48 -66q-28 -5 -378 -5h-68l-29 -1h-68l-39 -1h-144zM189 330q-71 0 -71 61l1 9v10q0 60 47 68q48 8 388 8l283 2h10q75 0 91.5 -11t16.5 -51l-1 -9q0 -69 -44 -76.5t-391 -7.5h-29 l-30 -1h-58l-29 -1h-78l-29 -1h-77z" />
<glyph unicode="&#x3e;" horiz-adv-x="1041" d="M191 106q-33 0 -33 64.5t88 129.5q54 40 265.5 169.5t211.5 132.5t-246.5 154.5t-253.5 156.5q-69 54 -69 117t40 63q23 0 72 -29.5t161 -94.5t138 -81l141 -81q111 -64 153 -92q73 -48 73 -105.5t-70 -103.5q-611 -400 -671 -400z" />
<glyph unicode="?" horiz-adv-x="974" d="M861 1114v-38q0 -106 -51 -192t-147 -175t-118.5 -119.5t-35 -101.5t-17.5 -78q-15 -24 -60 -24t-68.5 24.5t-23.5 101.5t39.5 142.5t125.5 151.5t118.5 140.5t32.5 130.5t-52.5 122t-128 46t-172 -50t-122.5 -50q-63 0 -63 70v15q0 61 119 126.5t239 65.5h39 q141 0 240 -84q49 -42 77.5 -104.5t28.5 -119.5zM441 237q98 0 98 -104v-22l-1 -4v-9q-2 -8 -2 -12q0 -44 -32 -70.5t-85 -26.5h-9l-28 4q-73 0 -73 74q-2 8 -2 12l-2 21v21l1 4v9l3 25l2 15q0 60 74 60l21 3h35z" />
<glyph unicode="@" horiz-adv-x="1699" d="M1014 700q0 35 -28.5 57t-86.5 22h-7q-98 0 -171 -80.5t-73 -199.5v-54q2 -16 2 -23q0 -59 38 -102t87 -43l7 1q95 0 162 101t67 260l2 14l1 28v19zM797 -204q-302 0 -496 194q-189 188 -189 524q0 166 54 312q109 292 361 412q158 75 329 75h57h5q132 0 250 -51 q377 -163 377 -574q-1 -224 -105 -353t-290 -129q-12 0 -67.5 16.5t-84.5 16.5t-98 -13.5t-114 -13.5q-85 0 -149 66t-64 207.5t93 302.5q53 92 168 92l65 -2l34 4q38 5 75 5q83 0 118.5 -190.5t48.5 -215.5q25 -49 61.5 -49t68.5 54t32 146v5q0 90 -35 181 q-105 277 -446 277h-2q-89 -1 -197 -49q-109 -48 -181 -136q-141 -170 -141 -383q0 -300 185 -454q90 -75 207.5 -105.5t339.5 -30.5q65 0 83 -27q4 -6 4 -13q0 -22 -45 -47q-96 -54 -256 -54h-56z" />
<glyph unicode="A" horiz-adv-x="1292" d="M833 606v7q0 6 -12.5 62.5t-18 76.5t-35 151.5t-65.5 209t-42.5 77.5t-41.5 -79q-172 -393 -172 -507v-6q0 -28 92 -28h43l9 1l87 -1h43l8 1h16l32 2q57 0 57 33zM1199 96v-18q0 -39 -60.5 -39t-104 50t-87.5 157t-65 127q-47 44 -192 44q-222 0 -285 -40 q-38 -24 -88 -143t-57 -131q-40 -64 -101 -64h-17q-47 0 -47 47q0 37 67 247q245 769 286.5 869t85.5 155.5t115.5 55.5t119.5 -54.5t124 -239.5q145 -351 240 -757q10 -42 38 -139t28 -127z" />
<glyph unicode="B" horiz-adv-x="1226" d="M353 900q0 -49 11.5 -64t64.5 -15h49l8 1q341 0 341 234v17q0 87 -58 139t-166 52h-92l-24 -2l-32 -2q-59 0 -78 -17t-19 -78l-2 -16v-16l-1 -17v-17l-1 -16v-34l-1 -33v-116zM354 478v-95q0 -162 15.5 -189t138.5 -27h68q330 0 330 262v11q0 116 -79 178t-232 62h-29 l-9 -1q-151 0 -177 -21t-26 -180zM616 1420q193 0 294 -83q114 -93 114 -249.5t-93 -259.5q-46 -52 -46 -57.5t22 -19.5l19 -11q81 -48 132 -126.5t51 -186.5v-24q-1 -93 -41 -175q-113 -227 -513 -228h-156q-110 0 -166 15t-68.5 59t-12.5 374v351l1 67v44l-4 328v43 q0 90 51.5 112t207.5 22l23 1q23 1 45 1l69 3h71z" />
<glyph unicode="C" horiz-adv-x="1224" d="M322 641q0 -214 94.5 -338t276.5 -124q94 0 228.5 50t144.5 50q58 0 58 -58q0 -31 -38 -73t-123 -85q-138 -69 -286 -69h-31q-247 0 -394 167q-73 82 -110 209t-37 269v32q1 523 351 689q118 56 237 56h29q133 0 244.5 -67t111.5 -142t-63 -75q-11 0 -122.5 44t-201.5 44 t-164.5 -39.5t-114.5 -103.5q-90 -144 -90 -436z" />
<glyph unicode="D" horiz-adv-x="1320" d="M973 681v84q0 104 -30.5 205.5t-78.5 159.5q-103 126 -299 126h-15q-144 0 -165 -49q-14 -33 -14 -286v-467l1 -30v-30l2 -59l3 -59q0 -56 22.5 -78.5t104.5 -22.5h57q201 0 303 132q47 60 78 160.5t31 213.5zM509 1412h66q312 0 469.5 -174.5t157.5 -500.5v-24 q0 -149 -41 -293q-74 -260 -310 -362q-126 -55 -276 -55h-131q-163 0 -233 36q-36 19 -36 113l4 130v108l-1 44v108l-1 43v109l-1 43v44l-5 255v62l-3 105l-1 21v42l1 20q0 81 55 98q89 28 286 28z" />
<glyph unicode="E" horiz-adv-x="1127" d="M998 95q0 -55 -85 -69q-144 -24 -374 -24h-104q-191 0 -237 46t-46 212v104q0 173 15.5 384t15.5 393.5t51 214.5q95 59 436 59h100q112 0 159 -14t47 -60q0 -53 -73.5 -72.5t-238.5 -27.5t-206 -39q-65 -50 -65 -242q0 -87 46 -106t216 -30t171 -11q53 -13 53 -74.5 t-60 -78.5q-16 -5 -190.5 -18t-210.5 -33q-51 -28 -51 -153q0 -200 62 -251q34 -28 240 -28l158 2q171 0 171 -84z" />
<glyph unicode="F" horiz-adv-x="1082" d="M805 1412h54q116 0 116 -60v-17q0 -45 -95 -66q-35 -8 -192.5 -17.5t-198 -31t-57.5 -67t-17 -167.5t47.5 -150.5t189.5 -28.5t185.5 -25t43.5 -71t-40 -64q-14 -6 -92 -19l-51 -7q-189 -29 -243.5 -86t-89.5 -316q-14 -104 -21 -118q-25 -55 -76 -55t-68.5 23.5 t-17.5 93.5l-2 51v105l1 26v27q0 102 7 230.5t7 304.5l-9 301q0 75 14 105t61 43q201 56 544 56z" />
<glyph unicode="G" horiz-adv-x="1308" d="M952 394.5q0 90.5 -58.5 153.5t-58.5 75q0 35 85 35q132 0 187 -64q33 -39 33 -162v-67q0 -224 -83 -299q-33 -30 -130 -54.5t-209 -24.5q-114 0 -236 50q-246 100 -331 382q-42 139 -42 305q0 311 158 495q84 98 204.5 152t263.5 54t225 -38q150 -69 150 -154 q0 -58 -79 -58q-10 0 -112.5 26t-190.5 26t-172 -47t-135 -116q-89 -120 -89 -348.5t94 -373.5q92 -140 288 -140q94 0 155 44q83 58 83 148.5z" />
<glyph unicode="H" horiz-adv-x="1333" d="M183 1052l-6 256q0 40 17 58t72.5 18t82.5 -78q12 -36 22.5 -212.5t43.5 -215.5q49 -59 373 -59q114 0 145 60q21 41 31 217.5t22 213.5q28 88 122 88q31 0 51.5 -23t20.5 -115v-107l-1 -36v-147l-2 -149l-2 -75q-2 -75 -2 -109l-7 -333l2 -212q0 -75 -66 -75 q-83 0 -110.5 60t-27.5 271t-35.5 252t-195.5 41q-270 0 -321 -65q-31 -39 -38.5 -215t-23.5 -238q-24 -91 -99 -91q-53 0 -67 24.5t-14 100.5v177l1 36q0 177 4.5 258t4.5 171l1 36q1 36 1 70l1 36v111z" />
<glyph unicode="I" horiz-adv-x="625" d="M167 143q0 23 24 143q26 130 26 281l2 74v37l1 37v37l1 36q0 184 -7 254.5t-26.5 133.5t-19.5 120q0 113 152 113h17q63 0 94 -39t31 -87v-15q0 -19 -14.5 -97t-14.5 -163l-2 -36l-3 -149v-93l-1 -56v-54l-1 -18v-72l-1 -36v-132q0 -64 13.5 -129t13.5 -112.5t-28.5 -81 t-96.5 -33.5h-34q-54 0 -90 29t-36 91v17z" />
<glyph unicode="J" horiz-adv-x="918" d="M59 116q0 34 20.5 59t50 25t85.5 -18t96.5 -18t94.5 40q138 102 138 524q0 249 -56 436q-24 77 -24 132.5t41 87t106 31.5h21q53 0 93 -68q58 -99 58 -205v-20q0 -22 -12 -158t-12 -308q0 -364 -86 -520q-48 -88 -131.5 -140.5t-192.5 -52.5h-21q-105 0 -187 53t-82 120z " />
<glyph unicode="K" horiz-adv-x="1252" d="M266 33q-59 0 -76 37q-10 21 -10 90v68l6 178q1 37 1 135v151l-2 71l-1 72q0 35 -1 70l-3 104v133q0 172 18 206t82 34t88 -96q16 -67 22 -252t45 -185q46 0 223 213t210 244q78 73 145 73t67 -33q0 -22 -184.5 -268t-184.5 -305q0 -17 219.5 -367t219.5 -357 q0 -31 -49 -31h-29q-65 0 -124.5 59.5t-154 212t-138.5 206.5q-83 103 -137.5 103t-98.5 -89q-29 -59 -40 -209.5t-29 -198.5q-25 -69 -84 -69z" />
<glyph unicode="L" horiz-adv-x="1057" d="M893 176q114 0 114 -85v-19q0 -46 -41 -59t-149 -13h-206l-23 1q-337 0 -383 31t-46 223v158l1 23l2 114v183l1 45v111l-1 66v66l-1 66v65l-2 131q0 82 14.5 103.5t67.5 21.5t81 -16.5t38.5 -65.5t10.5 -534t35 -557q19 -39 84.5 -51t211.5 -12l65 1q22 1 43 1l42 2h41z " />
<glyph unicode="M" horiz-adv-x="1655" d="M1492 135q0 -71 -67 -71q-22 0 -55.5 36t-47.5 110t-31.5 416.5t-44 342.5t-166 -315t-162.5 -349q-45 -66 -99 -66t-86 54t-86 196q-182 477 -221 477q-23 0 -71.5 -375.5t-50.5 -384.5q-31 -119 -80 -119q-64 0 -64 71q0 23 10.5 157.5t13.5 223t10.5 233t7.5 403.5 q0 72 25 115q35 61 102 61t129.5 -88.5t209 -375t159 -286.5t152 265.5t185.5 337.5q95 148 172 148q95 0 123 -79.5t28 -434.5l-7 -397q0 -112 6 -196.5t6 -109.5z" />
<glyph unicode="N" horiz-adv-x="1385" d="M253 1349h30q75 0 246 -204q103 -123 278.5 -404.5t197.5 -281.5q30 0 44 346t29 424q23 117 91 117q52 0 66 -38q9 -24 9 -111l-16 -313q-9 -178 -9 -419.5t-16 -347.5q-10 -65 -84.5 -65t-161.5 111q-4 6 -263.5 431.5t-294.5 425.5q-20 0 -44.5 -395.5t-33.5 -455 t-38.5 -89t-48.5 -29.5h-26q-41 0 -41 60v70l1 36v37l20 797l-5 226q0 72 70 72z" />
<glyph unicode="O" horiz-adv-x="1374" d="M314 718v-66q0 -114 26 -210q50 -182 169 -250q70 -41 152 -41h31q80 0 144 42q192 125 193 499v66q0 222 -88 363q-39 63 -101.5 101t-129.5 38h-46q-78 0 -146 -44t-107 -103t-68 -163.5t-29 -231.5zM1251 762v-68q0 -155 -38 -293.5t-110 -224t-179.5 -139.5 t-219.5 -54h-67q-106 1 -208 47q-208 95 -283 367q-32 116 -32 277l1 22q1 147 39 290q78 289 298 390q101 46 218 46h44q104 0 211 -46q204 -89 285 -340q41 -126 41 -274z" />
<glyph unicode="P" horiz-adv-x="1184" d="M400 798q0 -74 21 -91.5t95 -17.5h10l9 1h9q171 0 260 82.5t89 222.5v31q0 118 -71.5 184t-208.5 66h-10l-9 -1q-110 0 -158 -24q-31 -16 -31 -81l-2 -18l-1 -29v-117l-1 -30v-90l-1 -39v-49zM210 847l-13 376q0 146 54 167q93 36 384 36h45q182 0 300 -96 q63 -51 100.5 -130.5t37.5 -175.5v-23q0 -227 -179 -359q-90 -66 -292.5 -100.5t-221.5 -61.5q-29 -40 -41 -202.5t-21 -187.5q-20 -59 -77 -59h-17q-45 0 -65 19t-20 65v21l9 126q7 100 7 149l1 22q1 22 1 44l2 44q2 44 2 66l2 43l2 108v109z" />
<glyph unicode="Q" horiz-adv-x="1405" d="M708 1259h-33q-170 0 -271 -150q-37 -55 -65 -163t-28 -243v-17q0 -352 176 -469q71 -47 146 -47h14q94 0 166 44t159 164.5t87 341.5l-1 16q0 380 -213 489q-66 34 -137 34zM1084 73q0 -33 44.5 -104t44.5 -83.5t-37 -38t-95 -25.5q-98 0 -369.5 105t-364.5 192.5 t-150 241.5t-57 319v81q0 145 38 269q81 258 296 355q106 47 221 47h55q112 0 224 -50q217 -96 293 -342q41 -131 41 -282v-27l-1 -26q-1 -251 -127 -491q-56 -108 -56 -141z" />
<glyph unicode="R" horiz-adv-x="1241" d="M525 727q161 0 249 81.5t88 213.5v10l-1 10q0 95 -57 157t-150 62l-19 2h-65q-105 0 -147 -21t-42 -76q-4 -34 -4 -45l-2 -55v-28l-1 -9v-47l-1 -28v-19l-1 -29v-18l-1 -38v-28q0 -61 16 -79t79 -18h34q16 2 25 2zM843 598q0 -51 137 -294.5t137 -246.5q0 -30 -68.5 -30 t-119.5 56q-21 23 -127.5 204.5t-154.5 224.5t-160 43q-68 0 -85 -42t-25.5 -194.5t-19.5 -194.5q-24 -92 -94.5 -92t-80.5 51q-3 16 -3 337v463q0 57 -3 138l-1 27l-3 53l-1 26q-2 52 -2 53v25q0 157 67 188t327 31h29l29 -1q220 0 333.5 -101t113.5 -283t-137 -323 q-88 -90 -88 -118z" />
<glyph unicode="S" horiz-adv-x="1141" d="M1035 373q0 -172 -131 -278t-316 -106t-293.5 49.5t-154.5 111.5q-21 29 -21 59t24 55t50 25t74 -24l47 -25q130 -67 245 -67t176 40q83 54 83 150.5t-86 165.5q-64 52 -231 124t-234 136q-116 111 -116 273t127 264q126 101 337 101h4q127 0 211.5 -35t117 -74.5 t32.5 -56.5q0 -45 -22 -70t-58 -25q-5 0 -113.5 43t-218.5 43t-174 -74q-30 -36 -38 -86q-2 -11 -2 -22q0 -40 23 -85q39 -73 255 -168.5t285 -160.5q118 -110 118 -250v-33z" />
<glyph unicode="T" d="M554 3q-68 0 -82 28.5t-14 86.5t7.5 176t7.5 314l4 178q2 50 2 70v56q0 214 -45 272q-28 36 -206 36q-89 0 -121.5 18.5t-32.5 66.5v17q0 51 97 65q189 27 533 27h199q116 0 151.5 -15t35.5 -64.5t-53 -71.5q-25 -10 -146 -24t-154 -49q-58 -63 -58 -331l-1 -51l-1 -25 l-3 -152q-1 -25 -1 -51l-11 -295l-2 -46l-1 -69q0 -91 -18.5 -129t-86.5 -38z" />
<glyph unicode="U" horiz-adv-x="1325" d="M670 169q84 0 153 50.5t102.5 145t50 475t34 458.5t82 78t76.5 -19t12 -95v-103l-1 -35l-2 -172q0 -434 -8.5 -542.5t-42.5 -177.5q-52 -103 -170.5 -161.5t-303.5 -58.5h-35q-257 0 -374 192q-44 73 -61.5 179.5t-17.5 350.5l-5 264l-5 186l-2 60v30q0 60 16.5 74.5 t69.5 14.5q71 0 96 -106q33 -140 33 -540l2 -139q0 -316 174 -391q43 -18 127 -18z" />
<glyph unicode="V" horiz-adv-x="1239" d="M640 301q11 0 105 268t158 463t88 248q54 121 134 121h24q43 0 43 -35q0 -18 -72 -246q-304 -962 -402 -1074q-28 -32 -87 -32t-87.5 23.5t-49 69.5t-188.5 542q-21 61 -137.5 362t-116.5 315q0 45 83 45h2q50 0 93 -47q108 -117 248 -570t162 -453z" />
<glyph unicode="W" horiz-adv-x="1800" d="M1271 380q40 0 148 406.5t130 456.5q51 115 120 115q29 0 29 -33v-32q0 -34 -69 -378t-168 -655q-56 -175 -159 -175q-78 0 -162 158q-25 47 -86 197.5t-103.5 269.5t-49.5 119q-13 0 -111 -250.5t-149 -340.5q-72 -127 -129 -127q-109 0 -156 149q-65 209 -155 592 t-90 430.5t48 47.5q77 0 148 -166q27 -63 127.5 -424.5t120.5 -361.5q33 0 135 355q30 104 68.5 274t53.5 203q31 68 91.5 68t83.5 -17t36.5 -52.5t117 -432t130.5 -396.5z" />
<glyph unicode="X" horiz-adv-x="1236" d="M1057.5 1399q72.5 0 72.5 -41q0 -15 -177.5 -298t-177.5 -350t184 -351t184 -295q0 -41 -108 -41q-62 0 -134 83.5t-173.5 249t-121.5 165.5t-137.5 -192.5t-170.5 -256t-126 -63.5t-73 26v21q0 18 184 309.5t184 372.5q0 46 -172.5 310t-172.5 297.5t82 33.5t148 -71 q36 -38 148 -216t131 -178q12 0 139.5 191.5t144.5 211.5q70 82 142.5 82z" />
<glyph unicode="Y" horiz-adv-x="1173" d="M1034 1397h22q55 0 55 -33v-18q0 -26 -182 -414t-204.5 -453t-49 -245.5t-38.5 -210.5t-70 -30t-72 21.5t-14 56.5t6 93l6 49q1 4 8.5 83t7.5 154.5t-40.5 160.5t-148 286.5t-170 306.5t-62.5 125q0 42 80.5 42t135.5 -72q76 -100 177.5 -306t111.5 -206q34 0 170 241 q29 52 84 166.5t78 144.5q45 58 109 58z" />
<glyph unicode="Z" horiz-adv-x="1190" d="M137 1338q0 45 46 57q76 20 423 20h34q251 0 349 -24q60 -15 60 -64q0 -75 -76.5 -213t-317.5 -480.5t-241 -416.5q0 -41 227 -41l314 8q138 0 138 -75v-25q0 -45 -78 -58q-134 -22 -529 -22h-101q-168 0 -214.5 17t-46.5 82.5t77 196.5q153 260 278 436q293 413 293 454 q0 36 -55 46.5t-223 10.5l-248 -5q-64 0 -86.5 25.5t-22.5 70.5z" />
<glyph unicode="[" horiz-adv-x="762" d="M662 1499v-17q0 -35 -30 -56t-109 -37.5t-99 -47.5q-44 -68 -44 -267l-1 -25q-1 -25 -1 -50l-1 -25q-1 -26 -1 -51l-5 -229l-1 -25l-2 -102v-52l-2 -76v-51q0 -375 36 -439q22 -39 73 -52l21 -4l43 -7q105 -21 105 -79q0 -39 -26 -50t-170 -11h-102q-110 0 -136 45 q-35 61 -35 292v24l1 25v75l1 25q1 25 1 51l1 25v50l4 229l4 152l7 330l2 102q0 255 52 320q30 38 199 38l51 2l75 1q89 0 89 -33z" />
<glyph unicode="\" horiz-adv-x="850" d="M790 -77q0 -44 -72 -44h-17q-58 0 -116.5 138t-477.5 1267q-49 132 -49 153q0 45 72 45h18q55 0 119 -150q33 -78 188 -495t245 -652.5t90 -261.5z" />
<glyph unicode="]" horiz-adv-x="766" d="M294 -255h-101q-81 0 -81 38v18q0 61 137 87q71 14 94 39q52 59 52 259l2 50l9 482q0 541 -16.5 588.5t-54.5 65.5q-10 5 -79.5 20t-94.5 35t-25 60q0 45 128 45h152q116 0 143 -38q39 -55 39 -240v-50l-13 -760v-51l-1 -25v-51l-1 -26v-50l-1 -76l-2 -102 q0 -238 -54 -288q-32 -30 -232 -30z" />
<glyph unicode="^" horiz-adv-x="1030" d="M900 814v-11q0 -27 -61 -27t-110 61q-22 27 -115 186.5t-97.5 159.5t-104.5 -161t-113 -177q-53 -70 -108 -70h-12q-55 0 -55 28v11q0 50 279 478q55 85 115.5 85t113.5 -81q268 -411 268 -482z" />
<glyph unicode="_" horiz-adv-x="1082" d="M118 -206q-81 0 -81 58v22q0 52 61 60q51 7 460 7l249 2h146q80 0 80 -49v-32q0 -52 -49.5 -59t-472.5 -7h-45l-22 -1h-102l-45 -1h-179z" />
<glyph unicode="`" horiz-adv-x="652" d="M118 1401v15q0 45 70 45h21q64 0 120 -64q164 -187 164 -237v-4q0 -36 -50 -36h-11q-51 0 -154 90q-160 140 -160 191z" />
<glyph unicode="a" horiz-adv-x="1045" d="M290 275q0 -64 62 -107q41 -29 116 -29h6q18 3 38 3q67 0 120.5 60t53.5 115l2 12l3 53v52q0 37 -24.5 50.5t-93.5 13.5h-14l-7 -1h-13l-42 -3q-21 -3 -34 -3q-72 0 -123.5 -45t-51.5 -120v-29q2 -16 2 -22zM219 820q-66 0 -66 72q0 50 69 84q110 55 235 55h48 q100 0 187.5 -36t134.5 -111q60 -95 60 -421q0 -172 12.5 -254t12.5 -120q0 -75 -96 -75q-43 0 -80 26t-59 26t-117 -38t-191 -38q-135 0 -211.5 85t-76.5 209v23q0 152 132 235q86 54 265.5 74t189.5 32q13 15 13 51q0 11 -1 23q-13 142 -200 143q-69 0 -151 -22.5 t-110 -22.5z" />
<glyph unicode="b" horiz-adv-x="1100" d="M787 575l-2 54q0 108 -57.5 180t-128.5 72h-20l-9 -1q-118 0 -179 -92q-47 -71 -47 -197q-3 -30 -3 -41l-2 -52v-52q0 -167 41.5 -229t144.5 -62h9q115 0 184.5 94.5t69.5 281.5v34zM149 248v181l1 23v45l1 46v45l2 68v138l4 159q1 23 1 47l2 115v45q0 204 7 236 q11 52 59 52h19q74 0 95 -51.5t21 -210t7.5 -194t38.5 -35.5q4 0 43 11l52 13q60 15 126.5 15t132.5 -28q130 -56 193 -228q41 -112 41 -219v-70q0 -77 -31 -169q-59 -173 -223 -244q-71 -30 -149 -30h-43q-42 0 -115 20t-94 20l-75 -5q-64 0 -90 43t-26 162z" />
<glyph unicode="c" horiz-adv-x="954" d="M526 -5h-44q-83 0 -163 35.5t-133 99.5q-100 119 -100 322v46q0 226 120 359q64 71 150.5 106.5t169.5 35.5h43q95 0 178 -50.5t83 -102.5q0 -72 -72 -72q-6 0 -91 25t-142 25q-238 0 -238 -358q0 -151 70 -226.5t195 -75.5q46 0 148.5 30.5t123.5 30.5q47 0 47 -61 t-135 -123q-100 -46 -210 -46z" />
<glyph unicode="d" horiz-adv-x="1103" d="M284 503v-66q2 -20 2 -31q0 -113 60.5 -189t142.5 -76h10q59 0 109 28t74 71q48 85 48 314l1 20v20l-1 10l-1 30l-3 50q0 81 -45.5 126.5t-119.5 45.5h-29q-106 0 -177 -96.5t-71 -256.5zM971 162q0 -116 -96 -116q-34 0 -68 17t-45.5 17t-100 -34t-153.5 -34h-43 q-171 0 -265 121t-94 321l1 24v24q0 92 33 191q34 99 96 173q118 138 310 138l145 -10q41 0 53 52.5t18 184t22 168.5q24 55 88 55h17q47 0 62 -43q7 -20 7 -153l-3 -115l-1 -23l-5 -279v-321q0 -43 9 -172l6 -84q7 -98 7 -102z" />
<glyph unicode="e" horiz-adv-x="1020" d="M583 588q64 0 110 29q25 16 25 64v6q0 72 -44 121.5t-125 49.5h-12q-91 0 -167.5 -68t-76.5 -172v-17q0 -31 47 -31l10 -2h36l6 1l55 4l7 1l37 3q7 1 16 2t36.5 5t39.5 4zM530 -11h-23q-101 1 -184 37q-159 70 -215 240q-31 95 -31 192v45q1 101 39 201q78 202 257 268 q84 30 172 30h22q142 0 236 -87.5t94 -238.5v-20q0 -106 -68 -149q-52 -33 -238.5 -60t-223.5 -39q-60 -19 -60 -55q0 -91 91 -152q53 -35 165 -35q46 0 143.5 27.5t122.5 27.5q59 0 59 -60t-114.5 -116t-243.5 -56z" />
<glyph unicode="f" horiz-adv-x="744" d="M426 1132q0 -55 27 -84q6 -6 110 -52q74 -32 74 -86q0 -36 -74.5 -72t-100.5 -95q-51 -117 -51 -457q0 -197 -16 -246q-23 -72 -102 -72h-20q-45 0 -62 52q-10 31 -10 150l2 46q1 24 1 48l3 71l1 70q0 195 -21 331q-9 57 -43.5 101.5t-34.5 86.5v17q0 24 42.5 70t58.5 91 q96 262 116 284q85 97 240 97q91 0 129 -27.5t38 -46.5v-15q0 -40 -46 -60q-16 -7 -92 -18.5t-109 -37.5q-60 -48 -60 -146z" />
<glyph unicode="g" horiz-adv-x="1105" d="M734 577l-2 49q0 96 -42 146t-118 50h-37q-49 0 -100.5 -29t-82.5 -75q-61 -92 -61 -269l1 -10q0 -137 42 -207q56 -94 147 -94h27q101 0 162 72t61 225q2 20 2 30l2 51v51zM124 493v54q0 85 31.5 174.5t75.5 141.5q98 116 286 116q71 0 154 -27t141 -27q93 0 113.5 -71 t20.5 -448v-139l2 -78q2 -51 2 -52v-133q0 -214 -115 -340q-59 -64 -151.5 -97.5t-183.5 -33.5h-28q-96 0 -185.5 35t-89.5 89q0 62 97 62q10 0 56 -5t105 -5q122 0 203.5 72.5t81.5 190.5q0 57 -34 57l-138 -14q-308 0 -408 271q-36 100 -36 207z" />
<glyph unicode="h" horiz-adv-x="1099" d="M235 1456q87 0 109 -63q12 -34 12 -239.5t38 -205.5q13 0 36 7l21 7q30 10 60.5 18t126.5 8q192 0 267 -196q59 -150 59 -644q0 -73 -22 -93t-63 -20q-62 0 -82 93q-8 36 -20.5 289.5t-37.5 310.5q-42 99 -146 99q-142 0 -197 -120q-32 -67 -48 -313.5t-22 -270.5 q-25 -98 -99 -98q-44 0 -65 20t-21 71v60l1 32l3 158l2 125l2 63l3 189q1 32 1 63l3 187q0 316 11.5 389.5t67.5 73.5z" />
<glyph unicode="i" horiz-adv-x="530" d="M384 1281q0 -104 -118 -104h-8l-4 1l-30 3q-4 1 -7 1q-65 0 -65 89v19q0 55 25 80t62 25l23 3h23l34 -5q62 0 62 -70l3 -23v-19zM351 461l42 -307v-22l-1 -10q0 -65 -27 -92t-105 -27h-12q-70 0 -89 76q-10 39 -10 301v428l-5 67v22q0 49 18 68t57 19h34q71 0 87 -51 q7 -22 7 -164v-216l3 -60q1 -12 1 -32z" />
<glyph unicode="j" horiz-adv-x="541" d="M165 1278l2 20q0 35 25.5 60.5t61.5 25.5q8 2 12 2l15 2h18q12 -3 21 -3q65 0 65 -100v-17l-2 -21l-4 -24q0 -28 -28 -51.5t-95 -23.5h-8q-78 0 -78 56q-3 12 -3 16l-3 24v30zM175 129q5 85 5 125l3 108v37l1 36q0 242 -9.5 322.5t-9.5 135t25.5 75t81.5 20.5h17 q63 0 78 -94t15 -400v-36l-1 -18v-180l-4 -164q-1 -19 -1 -37q0 -346 -184 -435q-68 -33 -142 -33h-16q-62 0 -84 23t-22 42v15q0 54 83.5 87.5t110.5 83.5q53 98 53 287z" />
<glyph unicode="k" horiz-adv-x="1044" d="M222 1457h24q71 0 91 -85q14 -58 14 -373.5t33.5 -315.5t183 145.5t229.5 145.5t80 -34q0 -9 -115 -176t-115 -210t145 -248.5t145 -238t-44 -32.5q-75 0 -122.5 41.5t-156.5 208.5t-161 167t-80 -93q-10 -32 -20.5 -128.5t-35 -141.5t-85.5 -45t-73 54q-21 95 -21 279 v124l1 31v94l1 64l3 127l4 282q0 283 6 305q14 53 69 53z" />
<glyph unicode="l" horiz-adv-x="546" d="M245 1478h33q48 0 65 -20t22 -50t5 -134l-5 -210v-35l-2 -53v-35l-5 -213v-35l-1 -35q0 -205 4.5 -254.5t31.5 -174.5t27 -126q0 -56 -23.5 -78.5t-84.5 -22.5h-17q-66 0 -97 46q-46 67 -46 191v64l1 17l2 65l1 17v34l2 70v35l2 89v35l3 107v35l3 124v36l2 70v35l2 88v69 l-5 130q0 63 18 91t62 28z" />
<glyph unicode="m" horiz-adv-x="1613" d="M620.5 975q67.5 0 113 -21.5t93 -50.5t64.5 -29t109 43t177 43t152 -47t98 -133q56 -154 56 -629q0 -98 -60.5 -98t-84.5 84.5t-47.5 294.5t-47.5 260q-49 99 -147.5 99t-135.5 -107q-24 -72 -44 -323.5t-23 -261.5q-19 -65 -90.5 -65t-88.5 35.5t-17 319t-32 352 t-125 68.5q-45 0 -100.5 -38t-82 -102t-40.5 -267.5t-33 -269t-75 -65.5q-39 0 -56.5 36t-17.5 130l1 37v76q0 351 29 491q17 81 88 81l110 -16l112 43q78 30 145.5 30z" />
<glyph unicode="n" horiz-adv-x="1103" d="M217 939q51 0 93 -34t54 -34t65.5 29.5t66.5 35.5q81 36 163 36q152 0 225.5 -101t73.5 -366q0 -54 14.5 -224.5t14.5 -175.5q0 -65 -75 -65t-99.5 83t-43 315.5t-41.5 286.5q-43 102 -157 102q-57 0 -108.5 -33t-81 -97t-48 -303t-29.5 -280t-34.5 -62.5t-65 -21.5 t-58 19.5t-16.5 83.5v25l1 26l3 130v52l2 78q0 271 19 415q11 80 62 80z" />
<glyph unicode="o" horiz-adv-x="1072" d="M285 506v-55q0 -149 61.5 -232.5t164.5 -83.5l10 1q109 0 172 94.5t63 269.5v44q0 136 -54 226t-151 90h-29q-104 0 -170.5 -97t-66.5 -257zM969 523v-32q0 -228 -124 -369q-59 -68 -151 -103t-185 -35h-33q-177 0 -289 143q-90 115 -90 323v50q2 32 2 84q0 49 31 138 q61 177 210 243q90 40 176 40h32q199 0 321 -142q100 -116 100 -340z" />
<glyph unicode="p" horiz-adv-x="1106" d="M793 510v34q0 161 -58 240t-143 79h-19q-102 0 -166.5 -69.5t-64.5 -192.5l-3 -31l-2 -42v-43l-1 -32v-31q0 -174 32 -222q47 -71 154 -71h10q121 0 191 102t70 279zM247 959q29 0 60 -15.5t42 -15.5t106 37.5t176 37.5h22q74 0 143 -32.5t117 -95.5q90 -118 90 -289v-70 q0 -109 -35 -216q-35 -108 -95 -174q-123 -136 -331 -136q-52 0 -97.5 9.5t-62.5 9.5q-49 0 -49 -213q0 -123 -26.5 -171t-84.5 -48h-18q-38 0 -54.5 22.5t-16.5 79.5v21l1 22l4 178l6 225l6 363q0 396 3 409q15 62 94 62z" />
<glyph unicode="q" horiz-adv-x="1100" d="M735 591l-2 51q0 109 -45.5 158.5t-121.5 49.5h-29q-106 0 -173 -91.5t-67 -230.5l-2 -22l-1 -33v-33l1 -11l1 -22q1 -11 1 -21q0 -96 59.5 -177t144.5 -81h10l9 1q102 0 157 70t55 206l2 20v21l2 52v83zM949 534v-334l1 -65v-66l1 -65v-66l1 -22v-44l1 -22q1 -22 1 -42 l3 -65v-62q0 -51 -15 -75.5t-74.5 -24.5t-85.5 44t-26 165q0 237 -55 237q-3 1 -32 -9q-89 -29 -169 -29q-84 0 -158 32q-145 63 -203 261q-31 106 -31 199v47q0 202 102 331q56 71 132 105t147 34h22q72 0 158.5 -31t106.5 -31l56 5q97 0 110 -84q7 -43 7 -323z" />
<glyph unicode="r" horiz-adv-x="800" d="M141 818q0 69 17 102.5t63 33.5t106 -33t67.5 -33t33.5 18q97 68 172 68h28q46 0 77.5 -25t31.5 -70.5t-40 -66.5q-17 -9 -71 -15t-105.5 -26t-91.5 -78q-58 -85 -58 -331l-4 -112l-2 -64q0 -89 -28.5 -131t-96.5 -42h-15q-60 0 -73 61q-1 5 -1 190v201l-1 17v33l-1 17 v34l-4 129l-4 93v30z" />
<glyph unicode="s" horiz-adv-x="929" d="M120 738.5q0 119.5 100.5 197.5t266.5 78h25q92 0 162 -26q109 -41 109 -90q0 -72 -73 -72q-7 0 -84.5 18.5t-141.5 18.5t-115 -31t-51 -90t63 -97q38 -23 170.5 -68t198.5 -100q86 -71 86 -182v-24q0 -121 -105.5 -201t-257.5 -80h-26q-130 0 -233 46.5t-103 100.5 q0 76 77 76q17 0 103.5 -29.5t165.5 -29.5t129 32t50 91.5t-64 99.5q-39 25 -175.5 73.5t-191.5 95.5q-85 73 -85 192.5z" />
<glyph unicode="t" horiz-adv-x="743" d="M200 458q0 240 -29 327q-12 36 -47.5 64t-35.5 75t38 76q8 6 38 23.5t40 32.5q10 14 21 96q24 164 88 164h15q51 0 72 -41q11 -20 22.5 -106t31.5 -112.5t102 -55.5t82 -70.5t-67 -62.5q-100 -31 -120 -70q-47 -91 -47 -367q0 -128 29 -175.5t81 -67.5q5 -2 41.5 -12.5 t58.5 -27t22 -54t-36 -62.5q-38 -25 -106 -25q-153 0 -223.5 105.5t-70.5 345.5z" />
<glyph unicode="u" horiz-adv-x="1102" d="M486 153q67 0 126.5 34.5t93 105.5t52 308t24.5 262q17 78 78.5 78t77.5 -46.5t16 -178.5t11.5 -264.5t11.5 -214.5l2 -45q0 -85 -27.5 -115.5t-72 -30.5t-83.5 23t-56 23t-62.5 -19t-92 -35.5t-124.5 -16.5h-24q-160 0 -237 109t-77 372v105l1 26v51q0 220 11 247 q16 40 83.5 40t93.5 -81q10 -31 10 -304t24 -332q41 -101 140 -101z" />
<glyph unicode="v" horiz-adv-x="997" d="M57 946q0 35 59.5 35t94 -24t67 -93t112 -347.5t107.5 -278.5q23 0 122 296.5t137 372t108 75.5t70 -44q0 -18 -98 -319.5t-192 -494.5q-36 -75 -69 -96t-87 -21t-81.5 22t-86.5 150t-161 442t-102 325z" />
<glyph unicode="w" horiz-adv-x="1470" d="M734 558q-13 0 -94 -176t-119 -233q-64 -96 -116 -96q-96 0 -131 99q-43 119 -104.5 407t-61.5 348q0 34 30 34q67 0 117 -101q3 -6 83 -278t116 -272q26 0 96 240q24 82 48 179l16 71q20 89 25 102q23 65 95.5 65t95.5 -45.5t86 -329t96 -283.5t130 294.5t102 303.5 q37 62 97 62q19 0 19 -24q0 -70 -44.5 -302.5t-113.5 -436.5q-22 -64 -53.5 -94t-90.5 -30q-101 0 -270 378q-52 118 -54 118z" />
<glyph unicode="x" horiz-adv-x="1000" d="M171 -5h-22q-58 0 -58 30t131.5 245.5t131.5 240t-126.5 214.5t-126.5 212q0 40 101 40q62 0 106.5 -42t118 -155t90.5 -113q9 0 91 124.5t117 160.5t101.5 36t66.5 -34q0 -16 -129 -219.5t-129 -251.5q0 -28 142.5 -218t142.5 -201q0 -45 -86 -45h-4q-84 0 -127 45 q-44 46 -124 158.5t-88 112.5q-17 0 -98 -126.5t-122 -170t-100 -43.5z" />
<glyph unicode="y" horiz-adv-x="1025" d="M193 944q55 0 93.5 -83t94.5 -316t114 -290q55 0 123 164q38 91 81 276t70 235.5t77 50.5h22q63 0 63 -67q0 -33 -88.5 -428t-167.5 -556t-187.5 -249t-194.5 -88h-15q-66 0 -66 43q0 34 95.5 95t112.5 82q61 75 61 157q0 42 -96.5 188.5t-151.5 282.5q-134 332 -134 438 q0 65 94 65z" />
<glyph unicode="z" horiz-adv-x="972" d="M874 89q0 -57 -52 -67q-89 -17 -414 -17l-150 -2h-49q-68 0 -85.5 13.5t-17.5 60.5q0 91 236.5 399t236.5 346q0 28 -184.5 28t-210.5 7q-66 18 -66 69.5t30 65t161 13.5l51 2h176q202 0 256 -12t54 -77t-230.5 -383t-230.5 -342q0 -35 159 -35l228 7q102 0 102 -76z" />
<glyph unicode="{" horiz-adv-x="746" d="M452 928q0 -148 -74 -233q-43 -49 -43 -59q38 -41 54 -60q51 -62 51 -222l-11 -220q0 -107 38 -175q22 -39 98 -81.5t76 -90.5q0 -55 -61 -55h-24q-162 0 -245 109q-64 85 -64 273l12 270q0 69 -20.5 107t-74.5 71t-54 79.5t62 88t79.5 83t17.5 141.5l-6 196 q0 200 84.5 299.5t245.5 99.5q66 0 66 -48.5t-77.5 -99.5t-96.5 -81q-37 -59 -37 -198l2 -96l2 -49v-49z" />
<glyph unicode="|" horiz-adv-x="565" d="M208 1272l3 189q0 33 15.5 56t68 23t67 -22.5t14.5 -86.5v-154l-1 -20v-58l-1 -40v-39l-1 -39v-79l-1 -40v-39l-1 -40v-39l-1 -40v-80l-1 -39v-432q0 -402 -12 -472q-10 -56 -90 -56q-44 0 -58 22t-14 86v136l1 19v59l1 40v78l1 40v39l1 40v79l1 39v40l1 39v80l1 20v79 l1 20v79l1 20v79l1 59v59l1 20v79l1 59v40l1 59v39z" />
<glyph unicode="}" horiz-adv-x="750" d="M314 878l14 302q0 78 -25.5 126.5t-99.5 96t-74 104.5q0 41 56 41h23q70 0 136 -27.5t107 -82.5q58 -77 58 -274q0 -24 -7 -109.5t-7 -154t22 -101.5t79 -70.5t57 -68.5q0 -57 -46 -90q-73 -52 -91 -90t-18 -135l2 -49q2 -49 2 -74l2 -49l-1 -49q0 -279 -172 -362 q-70 -34 -136 -34h-24q-67 0 -67 47q0 57 79.5 101t109 101t29.5 195l-2 98l-1 24q-1 25 -1 89q0 136 95 231q20 20 20 26.5t-41 46.5q-78 76 -78 191z" />
<glyph unicode="~" horiz-adv-x="1064" d="M332 866h31q57 0 176 -59.5t168 -59.5t108 47t90 47q48 0 48 -65t-73.5 -124.5t-153.5 -59.5h-21q-64 0 -183 59.5t-162 59.5t-108 -47.5t-90 -47.5q-45 0 -45 47v11q0 71 70 131.5t145 60.5z" />
<glyph unicode="&#xa1;" horiz-adv-x="611" d="M179 1161q0 41 63 41h26l36 -5q46 0 71 -30t25 -69l3 -15v-8l1 -11v-8q0 -67 -39 -67l-6 -2l-32 -3h-12l-39 5q-46 0 -71 30t-25 65q-2 8 -2 12l-2 15v30l1 3v7q2 8 2 10zM374 -99q0 -67 -17 -89t-75 -22h-18q-41 0 -50.5 22t-9.5 86v70l1 12v24l1 36v36l1 25v24l1 12v25 l2 48v37l2 49q0 361 18 481q7 47 65 47h9q39 0 45 -32q18 -90 18 -490l2 -74v-37l2 -49v-36l1 -13v-24l1 -36v-25l1 -36v-71z" />
<glyph unicode="&#xa2;" horiz-adv-x="1073" d="M322 560q0 -123 48.5 -213t112.5 -90h6q23 0 23 31l3 22v49l1 16v41l1 17v16l1 8v17l12 224l1 8l3 50q7 56 7 81l4 41v30q0 44 -25 44h-6q-80 0 -134.5 -93.5t-54.5 -198.5l-2 -18l-1 -36v-46zM144 567v52q0 212 84 324q48 64 123 104l63 28q54 25 72 39.5t59 81.5t71 67 q47 0 80 -38q214 -245 214 -288q0 -60 -56 -60q-21 0 -68.5 18.5t-73.5 18.5q-46 0 -57 -77q-25 -179 -25 -433q0 -72 15.5 -105t66.5 -33q22 0 77.5 22.5t88.5 22.5q47 0 47 -52.5t-113.5 -124t-151.5 -119.5q-71 -90 -104.5 -90t-52.5 41q-42 91 -116 131 q-107 58 -175 171t-68 299z" />
<glyph unicode="&#xa3;" horiz-adv-x="1131" d="M133 84q0 38 50 116t67.5 135t17.5 141.5t-66.5 136t-66.5 107.5q0 26 40 70.5t45.5 58t30 167.5t78 229.5t138.5 117t183 41.5h32q93 0 185.5 -45.5t92.5 -105.5q0 -66 -83 -66q-17 0 -81.5 14.5t-97.5 14.5q-113 0 -172.5 -63t-59.5 -176.5t56 -148.5q14 -8 160 -41 q100 -22 100 -68q0 -40 -40 -65q-4 -2 -97 -29.5t-122.5 -62.5t-51.5 -125t-22 -150.5t44 -81t214.5 -20.5t220.5 -14q69 -20 69 -72q0 -99 -216 -99h-66l-328 11l-126 -2q-71 0 -99.5 18.5t-28.5 56.5z" />
<glyph unicode="&#xa4;" horiz-adv-x="1192" d="M606 1018h-26q-106 0 -173.5 -80t-67.5 -198v-19q0 -115 67 -194t168 -79h35q97 0 166 81.5t69 186.5v38q0 115 -74.5 189.5t-163.5 74.5zM371 339q-31 0 -83 -48.5t-77 -48.5t-51 29t-26 46t49.5 76t49.5 80.5t-23.5 93.5t-23.5 148t23 148.5t23 77.5q0 40 -46.5 101.5 t-46.5 78.5t26.5 46.5t46 29.5t69.5 -43.5t100 -43.5q6 0 47 13.5t79 22t100.5 8.5t137.5 -22t79 -22q33 0 86.5 43t75 43t49 -28.5t27.5 -54.5q0 -9 -53 -70t-53 -89q0 -6 19 -80t19 -135t-12 -101.5t-28 -80.5t-16 -67t51.5 -90.5t51.5 -75.5t-23 -39.5t-43 -27.5t-73 46 t-96 46q-11 -1 -72 -23t-139 -22t-146 17.5t-78 17.5z" />
<glyph unicode="&#xa5;" horiz-adv-x="1148" d="M1002 1384q43 0 43 -36v-22q0 -16 -42 -97q-177 -341 -177 -421q0 -26 37 -74t37 -73q0 -45 -80 -79.5t-80 -82.5q0 -28 93.5 -58.5t93.5 -62.5q0 -45 -53 -65l-29 -7l-30 -4l-30 -5q-46 -10 -77 -35.5t-31 -111.5t-16.5 -117t-73.5 -31h-32q-51 0 -65.5 30t-19.5 111.5 t-24 110t-119.5 51.5t-100.5 72q0 42 93.5 69.5t93.5 70.5q0 29 -81 72.5t-81 73.5q0 23 33.5 74t33.5 70q0 60 -105.5 282t-105.5 231q0 63 74.5 63t141.5 -98q24 -35 136 -266.5t128 -231.5q9 0 123.5 237t142.5 278q56 82 149 82z" />
<glyph unicode="&#xa6;" horiz-adv-x="554" d="M181 853v595q0 46 16 60t70 14h26q47 0 54 -38q4 -20 4 -208v-311l1 -37v-65q0 -57 -12 -73t-49 -16l-18 -2h-43q-49 0 -49 81zM181 -153v587q0 47 15 62t86 15l8 -1q44 0 53 -20t9 -75v-569q0 -53 -14.5 -69.5t-77.5 -16.5h-17q-38 0 -50 16.5t-12 70.5z" />
<glyph unicode="&#xa7;" horiz-adv-x="1026" d="M316 727v-16q0 -103 154 -166q54 -23 97.5 -44.5t57.5 -21.5h20q25 0 45.5 27.5t20.5 86.5t-56 115q-154 154 -223 154h-14q-33 0 -67.5 -39.5t-34.5 -95.5zM527 1228q-161 0 -161 -117q0 -55 70 -108q20 -15 161.5 -82t196.5 -119q85 -81 85 -176v-30q0 -73 -49 -154.5 t-49 -86.5t29 -74t29 -134q0 -128 -100.5 -206t-241.5 -78t-239.5 51t-98.5 114.5t61 63.5q7 0 100 -34.5t165.5 -34.5t116 31.5t43.5 81.5q0 78 -75 130q-21 15 -91 48.5t-88 42.5q-116 59 -167 113q-76 80 -76 178v29q0 75 48 136t48 68t-40 82.5t-40 138.5 q0 123 91 205.5t236 82.5h31q108 0 191 -47t83 -92q0 -73 -56 -73q-15 0 -85.5 25t-127.5 25z" />
<glyph unicode="&#xa8;" horiz-adv-x="838" d="M160 1172q-59 0 -59 64q-2 8 -2 11l-2 16v35q0 88 67 88l3 1l4 1l30 3h19q87 0 87 -64q3 -9 3 -15l2 -19v-31l-4 -27q0 -61 -59 -61l-18 -4l-27 -2h-11l-15 2h-7q-8 2 -11 2zM611 1391q86 0 86 -57q4 -12 4 -18l3 -27v-20l-2 -19l-4 -22q0 -55 -62 -55l-3 -1l-4 -1 l-33 -3h-12l-15 2h-7q-6 2 -10 2q-58 0 -58 57q-4 12 -4 18l-2 23v20l2 19l4 23q0 55 65 55l4 1l3 1l26 2h19z" />
<glyph unicode="&#xa9;" horiz-adv-x="1503" d="M729 177h36h5q99 0 194 41q184 77 254 286q35 102 35 224l-1 19q0 127 -42 235q-120 309 -473 309h-5q-102 0 -194 -39q-185 -78 -262 -273q-43 -109 -43 -223v-36l1 -19q0 -89 34 -191q71 -211 260 -291q100 -42 201 -42zM733 1001q-164 0 -164 -287q0 -249 187 -249 q41 0 108.5 28.5t91.5 28.5q47 0 47 -47.5t-79 -93t-159 -45.5h-34q-59 0 -121 30q-171 83 -171 342v37q0 276 186 360q56 25 111 25h33q85 0 155 -44.5t70 -103.5q0 -42 -54 -42q-13 0 -82.5 30.5t-124.5 30.5zM766 57h-43q-125 0 -247 51q-246 103 -334 373 q-37 114 -37 256.5t45 268.5q91 253 332 354q119 50 245 50h44q125 0 247 -52q243 -102 333 -372q38 -114 38 -255l-1 -22q0 -135 -49 -262q-98 -253 -346 -348q-109 -42 -227 -42z" />
<glyph unicode="&#xaa;" horiz-adv-x="805" d="M380 1080q-50 0 -86 -36t-36 -78l-3 -20v-12q0 -73 66 -73h41q42 0 81 31.5t39 72.5q4 16 4 23l3 40v20q0 27 -26 27q-8 2 -12 2l-15 2h-23l-12 1h-21zM378 1433h16l16 -1q142 0 206 -92q41 -59 41 -279q0 -114 5 -147l4 -26q4 -35 4 -67q0 -63 -78 -63q-30 0 -59 16 t-43 16t-74.5 -24t-106.5 -24h-14q-87 0 -141 54t-54 132v15q0 91 84 152q41 30 87.5 39.5t103 17t69.5 12.5q29 10 29 56q0 89 -118 89h-3q-23 0 -81.5 -13.5t-69.5 -13.5q-54 0 -54 50q0 41 74 71t157 30z" />
<glyph unicode="&#xab;" horiz-adv-x="1129" d="M568 938q0 -42 -213 -280q-71 -80 -71 -86.5t143.5 -167t143.5 -209.5q0 -58 -56 -58q-47 0 -125 78q-299 299 -299 353q0 38 188.5 237.5t223.5 199.5h10q55 0 55 -67zM981 208q0 -63 -59 -63h-10q-38 0 -221.5 194.5t-183.5 231t185.5 233t223.5 196.5h11q52 0 52 -59 q0 -39 -127 -190l-153 -182q0 -1 71 -81l82 -91q129 -145 129 -189z" />
<glyph unicode="&#xac;" horiz-adv-x="1150" d="M924 740q60 0 80 -21.5t20 -102.5l-1 -13l-1 -55v-28l-1 -14v-27q0 -165 -6 -188t-44 -23h-12q-57 0 -82 31t-25 111q0 136 -58 157q-22 8 -310 8t-320 7q-49 11 -49 77.5t25.5 73t425.5 6.5l166 1h192z" />
<glyph unicode="&#xad;" horiz-adv-x="884" d="M708 506h-530q-62 0 -62 53v23q0 79 40 88q9 2 296 2l161 1h72q77 0 77 -47v-38q0 -82 -54 -82z" />
<glyph unicode="&#xae;" horiz-adv-x="1440" d="M808 1056q0 20 -27.5 47.5t-61.5 27.5l-28 3h-65q-42 0 -47.5 -11t-5.5 -71v-83l-1 -18q0 -63 48 -63h43l5 1l42 3q5 1 9 1q33 0 61.5 28.5t28.5 62.5l2 10v30q-3 12 -3 32zM668 328h34q85 0 176 34q181 69 254 269q37 101 37 210v35q0 105 -36.5 204.5t-95.5 164 t-148 104.5t-192 40h-34q-84 0 -172.5 -32.5t-155.5 -102.5t-102.5 -170.5t-35.5 -190.5v-70q1 -91 37 -191q68 -184 242 -264q89 -40 192 -40zM633 1236h61q239 0 239 -225q0 -84 -82 -157q-30 -27 -30 -39.5t65.5 -143.5t65.5 -139q0 -21 -52.5 -21t-82.5 41 q-13 18 -53 98t-65.5 108.5t-67.5 28.5t-50.5 -23t-8.5 -112.5t-15 -117t-65 -27.5t-50 49v86l1 15v225q0 307 6 323q12 31 184 31zM81 878q1 130 45 251q89 242 320 333q111 43 212 43h42q120 0 228 -45t185 -119t127 -197.5t50 -257.5v-42q0 -131 -45.5 -251.5 t-124 -201.5t-192.5 -127.5t-222 -46.5h-42q-118 0 -231 47q-217 90 -303 315q-49 130 -49 257v42z" />
<glyph unicode="&#xaf;" horiz-adv-x="844" d="M154 1186q-54 0 -54 35v37q0 47 17.5 58t77.5 11l7 -1h227q280 0 293 -3q26 -6 26 -46v-15q0 -76 -64 -76h-85l-8 1h-250l-31 -1h-156z" />
<glyph unicode="&#xb0;" horiz-adv-x="809" d="M248 1136q0 -71 44 -115t100 -44h22q55 0 99 44t44 120v11l-1 6v11q-2 10 -2 16q0 53 -45.5 92.5t-99.5 39.5h-11q-55 0 -101 -40t-46 -97l-2 -10l-1 -23v-11zM392 1433h29q100 0 185.5 -73t85.5 -198v-29q0 -115 -84.5 -193.5t-190.5 -78.5h-38q-103 0 -181.5 78.5 t-78.5 182.5v38q0 104 78 188.5t195 84.5z" />
<glyph unicode="&#xb1;" horiz-adv-x="1121" d="M125 721v31q0 53 39 65q20 6 153.5 6t143 12t9.5 140.5t13.5 149t79.5 20.5h16q42 0 50 -26t8 -153.5t17 -137.5q7 -4 145 -4t160.5 -8t22.5 -65.5t-28.5 -70.5t-160 -13t-144.5 -12t-13 -136.5t-12.5 -145t-62.5 -20.5h-33q-38 0 -48 18.5t-10 149.5t-23 142 q-6 3 -137 3t-150 5q-35 9 -35 50zM613 78h-169q-250 0 -282.5 5.5t-32.5 62.5l1 10v10q0 62 47 70q30 5 305 5h160l10 -1l285 -3q40 0 40 -54v-20q-2 -20 -2 -29q0 -42 -41 -49t-321 -7z" />
<glyph unicode="&#xb2;" horiz-adv-x="797" d="M269 699q-96 0 -116.5 10.5t-20.5 49.5q0 66 71 149q22 26 127 124q104 98 132 137q28 41 28 91q0 94 -106 94q-35 0 -101.5 -32t-96.5 -32q-42 0 -42 53.5t79 99.5t157 46h37q105 0 167 -62t62 -152.5t-63 -174.5q-34 -46 -144 -140t-110 -114.5t126.5 -20.5t160.5 -11 t34 -55v-14q0 -35 -47 -41q-32 -4 -209 -4l-54 -1h-71z" />
<glyph unicode="&#xb3;" horiz-adv-x="798" d="M388 1486h38q91 0 137.5 -42.5t46.5 -124.5t-59 -153q-24 -29 -24 -35.5t30 -28.5q97 -71 97 -169v-18q0 -95 -76.5 -159.5t-193.5 -64.5h-18q-91 0 -158.5 37.5t-67.5 83.5t55 46q26 0 92 -17t111.5 -17t73.5 32q28 30 29 74q0 96 -133 119q-73 13 -73 61q0 27 83 70 t83 103q0 73 -114 73q-27 0 -86 -9.5t-64 -9.5q-37 0 -37 38t70.5 74.5t157.5 36.5z" />
<glyph unicode="&#xb4;" horiz-adv-x="675" d="M232 1140h-27q-40 0 -40 26v15q0 56 163 242q46 53 120 53h26q69 0 69 -38v-14q0 -49 -179 -208q-86 -76 -132 -76z" />
<glyph unicode="&#xb5;" horiz-adv-x="1122" d="M234 1007q73 0 94 -90q8 -35 8 -317t31 -348q53 -115 168 -115h2q137 0 203 117q34 60 34 327t19 323q29 84 91.5 84t79.5 -63q11 -40 11 -282t5.5 -301t10.5 -98t5 -61v-27q0 -58 -30 -87t-66.5 -29t-77 15t-60.5 15t-55 -12l-24 -9q-40 -15 -69.5 -23t-130 -8 t-122 -31.5t-27 -132t-28 -153t-77 -52.5t-74.5 53q-13 34 -13 142v248l1 32v95l1 63v93q0 527 5 558q12 74 85 74z" />
<glyph unicode="&#xb6;" horiz-adv-x="1189" d="M129 990v35q0 89 38 169.5t105 126.5t159 66t283 20h36q191 0 235.5 -18.5t44.5 -59.5v-26q0 -29 -9.5 -79.5t-19.5 -118.5t-10 -579.5t-1 -520.5q-7 -70 -62 -70q-40 0 -56 60t-16 272l-2 66l-1 66v186q0 121 -5 291l-4 103v35q0 103 -14 119t-60.5 16t-59.5 -21.5 t-13 -153.5q0 -383 -40 -796q-13 -130 -25.5 -169.5t-49.5 -39.5t-51 38q-8 22 -8 127l-2 135q0 171 -42 256.5t-121 136.5q-132 85 -168 137q-61 87 -61 191z" />
<glyph unicode="&#xb7;" horiz-adv-x="591" d="M165 657q0 111 95 111l26 3h32q98 0 98 -83l3 -17v-9l1 -13v-9q0 -120 -96 -120l-26 -3h-32l-29 4q-68 0 -68 75q-2 8 -2 12l-2 18v31z" />
<glyph unicode="&#xb8;" horiz-adv-x="673" d="M170 -368v12q0 32 63.5 41t90.5 26t27 53.5t-54 63.5q-53 27 -53 79t31 95q12 17 45 17h8l8 -1h8q37 0 37 -51q0 -32 65.5 -75.5t65.5 -113.5v-25q0 -60 -55 -115t-147 -55h-16l-8 1q-116 0 -116 48z" />
<glyph unicode="&#xb9;" horiz-adv-x="669" d="M376 687h-35q-48 0 -79.5 26.5t-31.5 74t41 134.5q17 36 17 155.5t-10.5 153.5t-60.5 34q-73 0 -73 51v7q0 27 55 62q131 83 168 83h11q49 0 57 -39q5 -25 5 -236t3 -230.5t25.5 -65t22.5 -98.5v-12q0 -40 -39 -79q-21 -21 -76 -21z" />
<glyph unicode="&#xba;" horiz-adv-x="828" d="M250 1103v-45q0 -107 38 -161t93 -54h14q55 0 100.5 51.5t45.5 123.5q2 14 2 20l2 14l1 22v38l-2 21l-2 27q0 65 -43.5 114t-97.5 49h-14l-6 -1q-64 0 -97.5 -66.5t-33.5 -152.5zM90 1045v59q0 155 87 242t205 87h47q56 0 114.5 -28t94.5 -75q69 -92 69 -223v-48 q-2 -24 -2 -35q0 -132 -87 -219t-217 -87h-12q-135 0 -217 87.5t-82 239.5z" />
<glyph unicode="&#xbb;" horiz-adv-x="1129" d="M197 1000q39 0 221 -205t182 -223.5t-182 -223.5t-220 -205h-10q-52 0 -52 56q0 45 140.5 203t140.5 167.5t-141 168t-141 195.5v9q0 58 62 58zM606 1007q31 0 220.5 -200.5t189.5 -227t-185 -234.5t-221 -208h-10q-54 0 -54 56v9q0 36 143 197t143 171q0 1 -142.5 170 t-142.5 218t59 49z" />
<glyph unicode="&#xbc;" horiz-adv-x="1596" d="M1053 292h108q49 0 49 23v103l-1 4v122l1 19v13q0 37 -3 37t-99.5 -154t-96.5 -157v-3q0 -7 42 -7zM386 624h-33q-20 0 -43.5 21.5t-23.5 69t11.5 84.5t21.5 83.5t10 157t-15 140.5q-7 14 -63.5 35.5t-56.5 54.5v7q0 31 54 70q108 78 166 78h20q37 0 44 -49q1 -7 1 -116 l-2 -35v-23l-2 -72v-23l-2 -48v-35q0 -83 3 -118t17 -76.5t14 -101.5t-26 -82t-95 -22zM1155 1406h16q68 0 68 -41q0 -18 -682 -1222q-87 -153 -140 -153h-16q-69 0 -69 40q0 14 34 76q421 767 684 1206q56 94 105 94zM1018 160q-136 0 -136 49v11q0 40 29 89 q118 200 261 381q67 85 124 85h12q56 0 66 -23t10 -214t9.5 -217t50 -39.5t40.5 -60.5v-11q0 -37 -59 -59q-39 -14 -39 -72.5t-15 -82t-55 -23.5h-25q-36 0 -49.5 18.5t-13.5 76t-17 73.5t-94 16l-74 3h-25z" />
<glyph unicode="&#xbd;" horiz-adv-x="1636" d="M488 745v-22q0 -54 -28.5 -76.5t-88.5 -22.5h-11q-58 0 -83 29.5t-25 73.5t34 152q14 44 14 165t-18 149q-5 8 -64.5 25t-59.5 56v7q0 30 58 69q123 82 172 82t57 -40q5 -25 5 -239.5t2 -237t19 -73.5t17 -97zM1140 1430h17q65 0 65 -30q0 -77 -680 -1277 q-77 -135 -130 -135h-16q-65 0 -65 30v14q0 65 696 1293q60 105 113 105zM1239 804h38q103 0 163 -68t60 -157.5t-54.5 -162t-159 -162t-104.5 -110.5t130.5 -21t160.5 -14.5t30 -58.5t-41.5 -53t-248.5 -9h-37l-36 -1q-106 0 -135.5 9.5t-29.5 44.5v16q0 97 180.5 257.5 t180.5 246.5q0 45 -27 72t-68.5 27t-109 -32.5t-103 -32.5t-35.5 59.5t82 104.5t164 45z" />
<glyph unicode="&#xbe;" horiz-adv-x="1685" d="M1202 288h67q64 0 64 25v143l-1 5v9q0 132 -10 132q-4 0 -42.5 -67t-58 -92.5t-33.5 -54.5t-28 -45t-17.5 -22t-11.5 -15.5t-8 -11.5v-2q0 -4 79 -4zM430 640h-36q-83 0 -148.5 35t-65.5 80q0 55 67 55q19 0 81 -15.5t106 -15.5q42 0 76 25q34 24 34 74q0 95 -132 118 q-74 13 -74 59q0 31 86 71t86 110q0 33 -30.5 53t-93.5 20l-135 -20q-45 0 -45 44t78 79t161 35h19q92 0 140.5 -40.5t48.5 -129.5t-60 -161q-22 -27 -22 -38q0 -2 30 -23q91 -64 91 -162v-18q0 -101 -79 -168t-183 -67zM1279 1431q84 0 84 -30q0 -47 -709 -1268 q-80 -137 -133 -137q-84 0 -84 30v13q0 9 46 93q459 837 698 1222q48 77 98 77zM1391 783h38q48 0 56 -35q5 -21 5 -207.5t9 -210.5t50.5 -37.5t41.5 -49.5v-11q0 -50 -61 -69q-40 -13 -40 -77.5t-16.5 -84t-63.5 -19.5h-12q-34 0 -46 18q-14 21 -15 116q0 35 -24.5 44 t-145 9t-142.5 5q-38 9 -38 42v11q0 64 269 441q82 115 135 115z" />
<glyph unicode="&#xbf;" horiz-adv-x="994" d="M670 1107v-32l-2 -17l-3 -21q0 -68 -59 -68l-16 -3h-8l-12 -1h-12l-4 1h-8q-71 0 -92.5 26t-21.5 73l-3 26v34q3 12 3 21q0 65 95 65h35l29 -4q79 0 79 -100zM111 92v37q0 178 174 332q115 103 139 136.5t37.5 107.5t25 87.5t58 13.5t65 -22t18.5 -93q0 -141 -148 -278 q-80 -74 -115 -130.5t-35 -136t56 -130.5t158 -51q34 0 135.5 31.5t110.5 31.5q67 0 67 -81q0 -64 -116.5 -118.5t-236.5 -54.5h-39q-231 0 -322 180q-32 62 -32 138z" />
<glyph unicode="&#xc0;" horiz-adv-x="1272" d="M547 568h143q127 0 127 33q0 21 -17 79t-22 80q-37 167 -98 297.5t-67 130.5t-53.5 -108.5t-97.5 -279.5t-50 -197v-7q0 -28 135 -28zM368 1808v10q0 49 76 49h11q10 -2 16 -2q62 0 124 -54q170 -149 170 -231q0 -36 -52 -36h-5l-6 1q-68 0 -201 103.5t-133 159.5z M1181 88v-19q0 -40 -47 -40h-19q-72 0 -118 61q-23 31 -68.5 149t-64.5 135q-36 32 -199 32l-74 -2q-25 -1 -50 -1q-136 0 -173 -37q-23 -23 -63 -131t-57 -134q-43 -67 -110 -67t-67 32v17q0 34 143.5 515.5t193.5 606.5t90 169.5t108 44.5h24q70 0 111.5 -38.5t105 -189 t199 -606t135.5 -497.5z" />
<glyph unicode="&#xc1;" horiz-adv-x="1269" d="M457 588h60l9 1l91 1q201 0 201 30v7q0 36 -55 222.5t-95 272.5t-44 86h-5q-4 0 -62 -123.5t-103.5 -288t-45.5 -180.5v-6q0 -22 49 -22zM541 1524h-22q-39 0 -39 35v5q0 74 171 226q64 57 127 57l10 2h15q70 0 70 -41v-14q0 -54 -138.5 -162t-193.5 -108zM1175 99 q0 -61 -67.5 -61t-113.5 59q-23 30 -69.5 147t-62.5 132q-33 31 -235 31t-238.5 -21.5t-82 -142t-68.5 -147.5q-41 -50 -102 -50t-61 30v17q0 43 68 266q237 780 275.5 876t79 139.5t105.5 43.5h24q79 0 119 -46t117.5 -225t194.5 -602.5t117 -445.5z" />
<glyph unicode="&#xc2;" horiz-adv-x="1271" d="M817 602v13q0 21 -13 62.5t-23 86.5q-38 170 -127 361q-31 67 -36.5 67t-38.5 -71q-87 -186 -128 -361q-12 -50 -24 -91t-12 -59v-7q0 -26 89 -26h53l9 1h62q189 0 189 24zM617 1847h17q57 0 104 -43q185 -170 185 -236v-6q0 -25 -64 -25t-130 66q-104 104 -108.5 104 t-101.5 -106q-64 -70 -124 -70h-8q-66 0 -66 34q0 61 186 232q55 50 110 50zM122 32q-51 0 -51 31v18q0 36 155.5 546.5t193 605t79.5 139.5t120 45t119.5 -37t104.5 -183.5t201 -609.5t138 -501q0 -60 -69.5 -60t-115.5 61q-26 35 -67 148t-70.5 140.5t-193.5 27.5l-100 -2 q-160 0 -198 -37q-20 -20 -61 -130t-58 -136q-43 -66 -127 -66z" />
<glyph unicode="&#xc3;" horiz-adv-x="1271" d="M789 585q34 0 34 23v14q0 132 -161 500q-35 81 -41.5 81t-69 -133.5t-100 -292.5t-37.5 -164q0 -29 210 -29l90 -2h26l8 1l26 1q9 1 15 1zM952 1727v-16q0 -57 -53 -105.5t-114 -48.5t-161.5 44t-132 44t-75.5 -37t-78 -37q-42 0 -42 53l1 9v8q0 54 56.5 102t111.5 48h33 q31 0 140.5 -45t132.5 -45t65.5 35.5t75.5 35.5q40 0 40 -45zM1180 95v-19q0 -40 -46 -40h-19q-70 0 -116 61q-27 36 -68 148t-68.5 138t-193.5 26l-74 -2q-25 -1 -50 -1q-137 0 -174 -36q-22 -21 -68 -137t-51 -124q-43 -67 -125 -67q-50 0 -50 29v17q0 36 143.5 518 t192.5 605t91 166t104 43h24q70 0 109 -35.5t102 -181.5t200 -605.5t137 -502.5z" />
<glyph unicode="&#xc4;" horiz-adv-x="1262" d="M773 581q24 0 24 23v7q0 22 -48.5 196t-97 284.5t-53.5 110.5t-47.5 -90.5t-99 -283t-56.5 -220.5v-6q0 -23 198 -23l80 -1h52q24 3 48 3zM313 1689q0 100 61 100q14 4 17 4l23 2h23l18 -2l21 -4q47 0 47 -56l2 -8l3 -30v-20l-1 -3v-8l-6 -33q0 -47 -50 -47l-18 -4 l-26 -3h-23l-3 1l-26 3q-4 1 -6 1q-50 0 -50 54q-3 9 -3 11l-2 15v7l-1 16v4zM700 1700l2 20q0 62 65 62q6 2 10 2l15 2h37q74 0 74 -65q2 -6 2 -11l2 -20v-27l-4 -31q0 -63 -56 -63q-14 -4 -17 -4l-26 -2h-11q-51 0 -73 18t-22 88v16zM1165 93v-19q0 -42 -68.5 -42 t-114.5 62q-23 31 -69 149.5t-64 135.5q-33 31 -238 31t-241 -19.5t-86.5 -147t-66.5 -146.5q-44 -53 -104.5 -53t-60.5 29v17q0 40 152.5 541.5t195 601.5t83 145t104.5 45h25q80 0 122 -49q95 -109 220.5 -538t168 -559.5t42.5 -183.5z" />
<glyph unicode="&#xc5;" horiz-adv-x="1285" d="M515 1746q0 -31 25.5 -63t73.5 -32h7l3 1h7l13 2q15 0 43 22.5t28 52.5l3 21v18q-5 15 -5 29t-25.5 39.5t-57.5 25.5h-28q-32 0 -58 -26t-26 -51l-3 -21v-18zM399 646v-15q0 -31 108 -31h209q101 0 101 37l-1 7v8q0 14 -15 68t-21 81q-37 164 -99 298t-70 134 q-35 0 -123.5 -250.5t-88.5 -336.5zM603 1954h34q76 0 131.5 -55.5t55.5 -127.5v-27q0 -76 -60 -130t-147 -54l-7 1h-14q-14 2 -20 2q-58 0 -111.5 53.5t-53.5 113.5l-2 13v27q2 14 2 20q0 59 58 111.5t134 52.5zM1173 120v-19q0 -47 -65.5 -47t-111.5 62q-18 24 -68 153.5 t-79 148.5q-45 29 -245.5 29t-242.5 -33q-29 -22 -70 -136t-65 -149q-43 -64 -110.5 -64t-67.5 31t124.5 490.5t185.5 607.5t122 215q42 46 127 46t140 -50t122 -212t185.5 -599t118.5 -474z" />
<glyph unicode="&#xc6;" horiz-adv-x="1756" d="M633 586q10 0 63 -10h37q57 0 68 13t11 45v40l-1 22q-5 40 -5 42l10 212l1 10l3 60v20l2 47l3 41v60q0 30 -12 30q-52 0 -121.5 -130.5t-81.5 -196.5t-68.5 -171.5t-56.5 -115.5v-4q0 -9 27 -9l57 5zM1405 1393q173 0 173 -68q0 -44 -80 -64q-50 -13 -186 -19 q-136 -4 -170 -24q-76 -44 -76 -192.5t46.5 -176.5t192 -31.5t166.5 -9.5q50 -13 50 -68t-27 -71.5t-177.5 -28t-200.5 -53t-50 -157.5q0 -183 71 -218q41 -21 196 -27t196 -17q70 -20 70 -70q0 -37 -42 -54t-147 -17h-40l-40 1q-262 0 -384 68q-44 25 -57.5 53.5t-28 113.5 t-46 116.5t-123.5 31.5q-171 0 -246 -49q-35 -23 -97.5 -129.5t-80.5 -125.5q-46 -49 -95.5 -49t-49.5 40q0 97 293 765q126 288 217 406q52 67 145 91.5t306 24.5l242 8h80z" />
<glyph unicode="&#xc7;" horiz-adv-x="1240" d="M338 700q0 -264 77.5 -382t227.5 -118q70 0 237.5 57t188.5 57q56 0 56 -68v-21q0 -28 -45 -83.5t-120 -93.5q-137 -70 -282 -70q-146 0 -260 54q-221 104 -287 340q-42 150 -42 311v68q0 334 160 519q80 92 220 142q90 32 240.5 32t247.5 -56t150 -143q16 -26 16 -74 q0 -64 -70 -64q-26 0 -165.5 65.5t-233 65.5t-152.5 -36q-164 -100 -164 -502zM495 -403v20q0 28 64 37.5t87 23t23 51t-47 70.5t-47 81q0 96 84 96h15q26 0 36 -63q2 -12 69 -51t67 -118v-25q0 -81 -67 -131t-166 -50h-8q-110 0 -110 59z" />
<glyph unicode="&#xc8;" horiz-adv-x="1125" d="M333 1801v10q0 52 72 52h15q68 0 119.5 -45t157.5 -181q27 -35 27 -68l-1 -4q0 -29 -38 -29h-10l-6 1h-5q-61 0 -133 56q-198 154 -198 208zM153 196v100l1 34l3 239v103l2 138v69l-4 240l-1 34v66q0 126 45 155q71 46 377 46h138q159 0 198 -8q60 -12 60 -59 q0 -64 -85 -84q-33 -8 -234 -17t-228 -29q-54 -40 -54 -190.5t53 -174.5q65 -29 233.5 -29t196.5 -11.5t28 -68t-24.5 -78.5t-144.5 -22q-252 0 -296.5 -35t-44.5 -206.5t62 -201.5q41 -20 241 -20t259 -19t59 -71t-57 -68q-40 -11 -232 -11h-173q-249 0 -313.5 28.5 t-64.5 150.5z" />
<glyph unicode="&#xc9;" horiz-adv-x="1124" d="M788 1841q34 0 34 -27l-1 -5v-4q0 -29 -130 -173.5t-172 -144.5h-4l-5 1q-70 0 -70 45v20q0 21 43 89t138 151q55 48 108 48l13 2h30q10 -2 16 -2zM169 1040q0 299 26 330q49 60 387 60h199q122 0 153 -14.5t31 -50.5q0 -61 -82 -79q-30 -7 -225 -16t-221 -28 q-51 -37 -51 -209q0 -121 55.5 -147.5t219 -26.5t190.5 -12.5t27 -75.5t-45 -79q-28 -10 -196.5 -10t-211.5 -34.5t-43 -191t38.5 -190.5t242 -34t261.5 -18t58 -69t-58 -67q-39 -11 -226 -11h-202q-213 0 -273.5 28.5t-60.5 146.5v31l1 33l5 366l2 168v100l-1 33v67z" />
<glyph unicode="&#xca;" horiz-adv-x="1124" d="M818 1536h-23q-36 0 -95 54t-88.5 86.5t-35.5 32.5t-21.5 -17t-26 -26.5t-28.5 -29.5q-88 -96 -155 -96h-1q-67 0 -67 27v1v7q0 61 193 238q49 45 107 45h8q62 0 118 -66q172 -203 172 -225v-6q0 -25 -57 -25zM158 876q0 449 23 479q47 61 326 61l69 2h103l35 -1 q162 0 197 -7q61 -12 61 -58q0 -65 -84 -85q-46 -11 -229 -16.5t-211 -16.5q-46 -18 -61.5 -65t-15.5 -167.5t57 -147.5t227 -27t199 -12.5t29 -76t-46 -81.5q-28 -11 -200.5 -11t-218.5 -34t-46 -193.5t37 -195.5t209 -36l33 -1q34 -1 127 -1q215 0 215 -91 q0 -51 -50.5 -65t-238.5 -14h-207q-214 0 -279.5 27.5t-65.5 150.5v65l1 35v34l3 273v69l2 139v68z" />
<glyph unicode="&#xcb;" horiz-adv-x="1123" d="M478 1685v-26l-2 -16v-9q-2 -8 -2 -12q0 -64 -55 -64l-6 -2l-23 -3h-15l-4 1q-53 0 -76 18.5t-23 62.5v43l1 4v24l3 25q0 50 56 50l19 4l27 3h26l22 -4q52 0 52 -99zM654 1667v31l6 38q0 57 103 57h4q98 0 98 -67l3 -15v-8l1 -11v-16l-1 -4v-11q-3 -18 -3 -19 q0 -64 -64 -64q-8 -2 -11 -2l-19 -2h-30l-29 4q-58 0 -58 89zM576 1425h34l34 -1h34q192 0 230 -7q58 -11 58 -60q0 -67 -88 -84q-39 -8 -233 -13.5t-229 -30.5q-51 -36 -51 -217q0 -121 59.5 -147.5t227 -26.5t195.5 -13.5t28 -77.5t-48 -80q-24 -8 -200 -8t-218.5 -34.5 t-42.5 -205t61 -202.5q33 -17 236 -17t263 -19t60 -72t-58 -67q-44 -11 -301 -11h-35l-34 1q-289 0 -349 28.5t-60 150.5v33l2 67l1 102l3 204l1 103v103l-2 171l-4 203q0 157 49 185q74 43 377 43z" />
<glyph unicode="&#xcc;" horiz-adv-x="606" d="M433 1547v-10q0 -31 -45 -31l-5 1q-60 0 -143 73q-183 160 -183 211v16q0 47 58 47l9 2h5l5 -1q85 0 146 -78q153 -197 153 -230zM305 45h-34q-60 0 -87.5 27.5t-27.5 89t15 134t15 140.5v207l-1 35v157l-1 35v34l-3 118q0 49 -16.5 144.5t-16.5 111.5v31q0 67 31.5 93.5 t108.5 26.5h33q102 0 102 -137q0 -48 -13 -108.5t-13 -105.5v-62l1 -35v-139l1 -35v-157l1 -35v-149q0 -70 16.5 -165.5t16.5 -121.5v-15q0 -69 -31.5 -94t-96.5 -25z" />
<glyph unicode="&#xcd;" horiz-adv-x="609" d="M214 1496h-14q-38 0 -38 32v15q0 54 161 238q62 71 143 71h4q66 0 66 -53v-5q0 -57 -163 -202q-108 -96 -159 -96zM308 55h-34q-62 0 -89.5 27.5t-27.5 85t16.5 137t16.5 136.5l1 34v295l1 34v87l-2 85v33q-2 34 -2 66t-15 102t-15 136t31 92t107 26h33q55 0 79.5 -32.5 t24.5 -102.5l-26 -208l-2 -32v-312l-1 -35v-242q0 -75 15.5 -165t15.5 -96v-16l-1 -16q0 -68 -38 -100q-22 -19 -88 -19z" />
<glyph unicode="&#xce;" horiz-adv-x="618" d="M592 1551q0 -36 -81 -36q-49 0 -112 58q-24 22 -51 49l-48 48l-48 -48q-3 -3 -60.5 -55.5t-119.5 -52.5t-62 31v7q0 41 182 240q49 53 110 53h8q53 0 102 -53q180 -196 180 -241zM329 1424q103 0 103 -120q0 -52 -12.5 -122t-12.5 -122v-121l1 -35v-70l1 -35v-226l-1 -35 v-94q0 -84 15 -154.5t15 -98.5v-31q0 -69 -31 -93.5t-96 -24.5h-34q-68 0 -92 32t-24 86.5t15 127t15 123.5v85l-1 35v34l-1 35v156l1 35v105l-1 34v34l-1 50q0 67 -15.5 157t-15.5 100v47q0 55 32 80.5t107 25.5h33z" />
<glyph unicode="&#xcf;" horiz-adv-x="614" d="M114 1522h-23q-31 0 -57 22t-26 60l-4 25v9l-1 17l1 5v8l3 29q2 8 2 13q0 68 69 68l6 2l22 2h3q95 0 95 -116v-31l-4 -33q0 -32 -24 -56t-62 -24zM373 1722q0 65 64 65l3 1l4 1l37 3h4l4 -1l26 -2q16 -4 20 -4q50 0 50 -101l-1 -4q0 -59 -19.5 -83.5t-80.5 -24.5h-19 l-4 1h-7l-11 1l-21 4q-49 0 -49 64l-3 15v8l-1 11v12l2 16v7q2 8 2 11zM329 1433h2q100 0 100 -121v-8q0 -53 -13 -112q-14 -64 -14 -182v-508l1 -34q0 -64 16 -157t16 -104v-31q0 -70 -30.5 -94.5t-112.5 -24.5h-17h-2q-113 0 -113 115q0 58 16.5 135t16.5 181v250 q0 332 -18.5 433t-18.5 126l1 16v15q0 68 46 91q28 14 108 14h16z" />
<glyph unicode="&#xd0;" horiz-adv-x="1365" d="M403 1031v-88q0 -85 34 -114q17 -15 102 -25t94 -15q23 -12 23 -58.5t-29 -67.5q-9 -7 -93.5 -20t-105.5 -44.5t-21 -206t21 -202t134 -27.5l18 1q115 0 192 26q240 79 240 522l-1 20q0 425 -260 504q-66 20 -176 20h-52q-84 0 -102 -36t-18 -189zM1237 693 q0 -152 -39 -286.5t-114 -222.5q-153 -180 -437 -180l-72 -3l-95 -1h-23q-224 0 -246 40q-9 16 -9 284.5t-7 289.5t-58 35t-61 28t-10 61.5t25 63.5q5 3 50.5 12.5t53 24t7.5 83.5l-3 69v45l-1 45v45l-1 23q-1 23 -1 45l-2 45q-2 45 -2 68q0 79 47 93q61 18 293 18h48 q179 0 291 -39q232 -81 315 -325q51 -150 51 -335v-26z" />
<glyph unicode="&#xd1;" horiz-adv-x="1367" d="M860 1551h-33q-45 0 -141 51t-131 51t-83 -44t-77 -44q-40 0 -40 41v8q0 62 54.5 121t108.5 59h16l9 -1q36 0 144.5 -51t136 -51t74.5 43t77 43q40 0 40 -40q0 -60 -49.5 -123t-105.5 -63zM1189 367q0 -201 -5 -231q-9 -53 -56.5 -53t-90.5 26t-93 91.5t-135.5 207.5 t-148.5 239q-268 414 -298 414q-17 0 -17 -412t-20 -492q-25 -101 -94 -101q-53 0 -63 33q-5 16 -5 101l-1 35q-1 36 -1 74l-1 38v80l1 121v163l1 41v224q0 102 -1 142l-5 157q0 69 22.5 89.5t57.5 20.5q93 0 161 -70.5t330 -446t266 -375.5q28 0 28 320l2 72l1 72 q0 262 24.5 331t94.5 69q32 0 47.5 -21t15.5 -104l-2 -77q-2 -77 -2 -116l-13 -312v-350z" />
<glyph unicode="&#xd2;" horiz-adv-x="1383" d="M312 759v-66q0 -371 186 -480q69 -40 157 -40h16q174 0 271 142q79 116 79 395v34q0 126 -26 235t-64.5 167.5t-105.5 95t-158 36.5h-16q-172 0 -264 -148q-75 -120 -75 -371zM722 1554q-34 0 -219 144q-89 69 -89 125l1 5q0 47 71 47h22q69 0 136 -59q163 -143 163 -224 v-14q0 -26 -42 -26h-27q-10 2 -16 2zM1241 761v-69q0 -319 -131 -501q-62 -86 -178.5 -142.5t-247.5 -56.5h-23q-263 0 -409 168q-75 86 -112.5 226.5t-37.5 293.5v92q0 160 42 292t112 216q141 169 419 169h3q140 0 248 -50q209 -97 274 -337q41 -153 41 -301z" />
<glyph unicode="&#xd3;" horiz-adv-x="1380" d="M313 781v-98q0 -335 180 -442q69 -40 140 -40h48q169 0 266 150q79 121 79 409v16q0 116 -27 225t-65 164q-88 125 -256 125h-16q-174 0 -268 -145q-81 -124 -81 -364zM586 1520h-21q-39 0 -39 30v9q0 32 33 74q102 131 156.5 173.5t111.5 42.5l11 2h21q65 0 65 -45v-5 q0 -62 -175 -198q-107 -83 -163 -83zM1238 757v-91q0 -149 -39.5 -284t-110.5 -216.5t-180 -127.5t-226 -46h-45q-126 0 -230 52q-103 52 -167 134q-136 176 -137 526v46q0 510 326 652q102 44 204 44h68q125 0 230.5 -53t170 -135t100.5 -216.5t36 -284.5z" />
<glyph unicode="&#xd4;" horiz-adv-x="1381" d="M316 775v-82q0 -132 29.5 -236t66.5 -157q82 -118 245 -118h16l16 1q77 0 147 38q185 99 185 486v4v65q0 97 -27.5 208t-67.5 169q-87 125 -256 125h-16q-158 0 -246 -127q-41 -59 -66.5 -164.5t-25.5 -211.5zM661 1846h17q57 0 104 -43q186 -171 186 -224v-7 q0 -31 -70.5 -31t-176.5 117q-43 47 -53 47l-90 -84l-13 -11q-80 -73 -123 -73h-23q-56 0 -56 27v6q0 56 187 227q53 49 111 49zM1241 753v-92q0 -136 -35 -267t-100.5 -214.5t-177.5 -138t-222 -54.5h-68q-118 0 -224 49q-205 94 -272 340q-40 149 -40 300v69 q0 512 320 650q109 47 211 47h69q116 0 223 -49t171.5 -129t104.5 -213.5t40 -297.5z" />
<glyph unicode="&#xd5;" horiz-adv-x="1385" d="M315 770v-49q0 -140 30 -249t69 -162q88 -120 261 -120l16 1q172 0 264 150q75 123 75 416q0 121 -27.5 230t-65.5 167.5t-108 95t-138 36.5h-48q-73 0 -139 -38q-189 -105 -189 -474v-4zM996 1729v-16q0 -52 -50.5 -102.5t-123.5 -50.5h-8q-57 0 -151.5 44.5t-128 44.5 t-79 -38t-76.5 -38q-41 0 -41 43v17q0 52 51.5 103.5t125.5 51.5h17q40 0 149.5 -45t136 -45t64 37.5t76 37.5t38.5 -44zM1245 727v-23q0 -360 -140 -527q-71 -85 -182 -136t-243 -51l-23 1h-23q-108 1 -214 49q-314 144 -314 648v46l1 23q0 325 139 505q67 85 175.5 135 t223.5 50h45h5q119 0 227 -47q215 -93 278 -328q45 -168 45 -345z" />
<glyph unicode="&#xd6;" horiz-adv-x="1379" d="M298 778v-100q0 -369 196 -471q63 -33 145 -33h32q167 0 261 155q71 117 71 368v83q0 99 -26.5 209t-67.5 169q-88 126 -257 126h-17q-164 0 -250.5 -132.5t-86.5 -373.5zM350 1683v16l1 3l3 26q1 4 1 7q0 59 65 59q8 2 11 2l20 2h31q45 0 67.5 -18t22.5 -68v-38 q-5 -15 -5 -29q0 -54 -61 -54l-4 -1l-3 -1l-31 -3h-28l-3 1h-8l-32 6q-47 0 -47 90zM790 1587q-54 0 -54 51l-4 17l-2 22v18l4 28q0 56 54 56l19 4l24 3h37l31 -4q63 0 63 -80v-36l-4 -24q0 -56 -69 -56q-6 -2 -11 -2l-20 -2h-29l-4 1l-28 3q-4 1 -7 1zM1226 756v-70 q0 -316 -134 -500q-64 -88 -180 -141.5t-249 -53.5h-23q-128 0 -236 47q-218 95 -286 349q-39 145 -39 301v69q0 152 36.5 287.5t106 221.5t179.5 135.5t243 49.5h23q135 0 244.5 -50.5t175 -134t102.5 -221.5t37 -289z" />
<glyph unicode="&#xd7;" horiz-adv-x="1058" d="M168 319q0 22 120.5 152t120.5 138.5t-113 126.5q-114 118 -124 144q-3 7 -2 14q0 22 24 48q32 35 62.5 35t147.5 -121.5t127 -121.5q1 0 119 122.5t153 122.5q21 0 52 -31t31 -46v-14q0 -17 -119.5 -146t-119.5 -138.5t119.5 -134t119.5 -151.5t-33 -55t-60.5 -28 t-141 122.5t-124 122.5t-66.5 -63q-167 -183 -198.5 -183t-63 31.5t-31.5 53.5z" />
<glyph unicode="&#xd8;" horiz-adv-x="1386" d="M310 759v-91q0 -175 55 -291q13 -27 29 -27q46 0 198 291q265 506 265 540v10q0 23 -44.5 54.5t-130.5 31.5h-26h-4q-79 0 -142 -35q-121 -67 -167 -240q-33 -127 -33 -243zM1014 853q0 164 -32 233q-6 12 -13 12q-17 0 -94.5 -155t-231 -423.5t-153.5 -307.5 q0 -20 28 -46t82 -26h22q83 0 158 44q143 83 195 292q36 144 36 248l2 26l1 40v63zM1235 732v-26q0 -162 -39 -302q-75 -272 -303 -370q-102 -44 -241 -44q-57 0 -136 12t-104 12t-73 -24t-64 -24h-17q-61 0 -61 82l11 97q0 7 -52.5 193t-52.5 331v79q1 152 41 288 q79 263 297 360q104 46 267 46q51 0 134.5 -14.5t99 -14.5t58 24t64.5 24h17q62 0 62 -64l-16 -115q0 -43 27 -114t54 -168.5t27 -267.5z" />
<glyph unicode="&#xd9;" horiz-adv-x="1332" d="M408 1805v9q0 48 75 48h10q77 0 143 -58q166 -145 166 -223v-10q0 -30 -39 -30h-27q-12 2 -17 2q-54 0 -182.5 112.5t-128.5 149.5zM134 1330q0 82 56 82h31q89 0 114 -89q18 -64 18 -484t41.5 -510.5t103.5 -130t160 -39.5q196 0 264 152q46 103 46 518.5t13 474.5 t42.5 83t103.5 24q32 0 41 -20t9 -130v-67l-1 -33l-2 -169v-275q0 -223 -14 -333q-32 -243 -236 -341q-114 -55 -262 -55q-296 0 -422 176q-57 80 -78.5 183t-21.5 348l-3 205l-3 333v97z" />
<glyph unicode="&#xda;" horiz-adv-x="1332" d="M575 1538q-54 0 -54 40v5q0 67 171 200q87 68 152 68h21q56 0 56 -33v-9q0 -53 -147 -184q-95 -84 -161 -84l-27 -3h-11zM139 1304q0 75 11 94.5t75 19.5q90 0 111.5 -81t21.5 -489t39.5 -496t102 -128t159.5 -40q189 0 261 149q46 97 46 529t25.5 494t132.5 62 q49 0 49 -114v-99l-1 -33l-3 -269q0 -399 -13 -495q-34 -249 -233 -342q-116 -54 -261 -54q-420 0 -495 350q-22 104 -22 346l-3 203l-3 296v97z" />
<glyph unicode="&#xdb;" horiz-adv-x="1333" d="M430 1544h-15q-57 0 -57 26v7q0 19 30 54q134 158 174.5 192.5t102.5 34.5t112 -50q184 -184 184 -231v-6q0 -26 -65 -26t-132 67q-103 103 -106 103t-88.5 -85.5t-139.5 -85.5zM654 -14h-37q-122 0 -228 52t-159.5 139t-71.5 188.5t-18 361.5l-2 137q-1 34 -1 67l-1 34 v66l-2 199v66q0 77 11 95.5t76 18.5q89 0 114 -89q18 -64 18 -484t41.5 -510.5t104.5 -130.5t159 -40q193 0 264 153q46 101 46 537t25.5 499.5t133.5 63.5q33 0 42 -20.5t9 -163.5l-1 -33l-2 -168l-2 -205q0 -305 -9.5 -412.5t-65 -208t-171.5 -156.5t-273 -56z" />
<glyph unicode="&#xdc;" horiz-adv-x="1331" d="M490 1776q47 0 61.5 -24.5t14.5 -60.5v-14l-1 -4l-3 -31q-1 -4 -1 -8q0 -66 -77 -66q-6 -2 -11 -2l-16 -2h-13l-4 1l-23 3q-4 1 -7 1q-64 0 -64 68l-2 8l-3 31v18l6 34q0 44 53 44q6 2 11 2l18 2h61zM789 1579q-53 0 -53 60q-2 8 -2 11l-2 19v26l4 26q0 62 63 62l3 1l4 1 l31 3h24l4 -1l26 -3q4 -1 7 -1q52 0 52 -56l2 -8l3 -26v-23l-4 -29q0 -62 -63 -62l-4 -1l-3 -1l-31 -3h-24l-4 1l-26 3q-4 1 -7 1zM961 855q0 423 17 482q23 80 119 80q42 0 56 -12t14 -116v-100l-1 -34l-1 -100v-67l-1 -68q0 -407 -12.5 -513.5t-65.5 -199t-165 -149.5 q-111 -57 -265 -57q-450 0 -510 401q-14 95 -14 349l-2 136q-1 34 -1 68l-1 33v66l-1 33v65l-1 67v97q0 71 13 86t63 15t81.5 -18.5t45 -86.5t13.5 -481t52 -515q74 -144 264 -144t260 160q43 100 43 523z" />
<glyph unicode="&#xdd;" horiz-adv-x="1174" d="M488 1531q-31 0 -31 27v9q0 29 33 71q101 130 157.5 174t123.5 44l11 1q70 0 70 -49v-4q0 -48 -66 -99q-221 -172 -267 -172l-10 -2h-21zM1031 1415q64 0 64 -40q0 -4 -168 -363l-44 -94q-126 -257 -143 -302q-47 -123 -47 -319t-17.5 -231.5t-88 -35.5t-90 22t-19.5 129 l1 24q1 25 1 50l1 25v51q0 188 -45 291q-17 38 -192.5 382t-175.5 361v19q0 29 84 29t144 -77q34 -43 152.5 -296.5t139.5 -253.5q36 0 164.5 274.5t130.5 277.5q52 77 148 77z" />
<glyph unicode="&#xde;" horiz-adv-x="1178" d="M838 730v31q0 118 -64 194t-182 76q-18 2 -28 2l-37 1h-9q-143 0 -143 -73l-1 -10l-1 -9l-1 -28v-19l-1 -39v-49l1 -10v-48l1 -19q0 -229 11 -248q20 -35 154 -35h9q134 0 212.5 72.5t78.5 210.5zM580 1191q223 0 356 -116q55 -48 88.5 -127.5t33.5 -180.5v-24 q0 -342 -308 -426q-68 -18 -189 -23.5t-146.5 -23t-35 -105.5t-20.5 -113q-23 -50 -76 -50h-36q-63 0 -74 55q-2 10 -2 60l4 192v44l1 65v43l1 44v108l-1 43v194l-4 194v43l-1 43v43l-2 64l-1 22l-1 41q0 66 19.5 87.5t62.5 21.5h18q62 0 85 -38q14 -23 24 -81t30.5 -77.5 t86 -20.5t87.5 -1z" />
<glyph unicode="&#xdf;" horiz-adv-x="1204" d="M571 767q0 40 102.5 159.5t102.5 193.5t-46.5 111.5t-119.5 37.5t-125.5 -49.5t-76.5 -122.5q-50 -150 -50 -672q0 -276 -30 -349t-103 -73q-57 0 -65 70q-2 17 -2 261.5t-2 283t-16.5 124.5t-14.5 114v39q0 62 42 202q43 141 99 209q116 140 337 140q152 0 255 -87 t103 -218q0 -76 -55.5 -196t-55.5 -157t91.5 -140t109.5 -136q46 -82 46 -170q0 -156 -102 -251q-102 -94 -279 -94q-108 0 -152 43q-17 16 -17 35q0 37 81 58q166 44 190 60q82 55 82 139t-38 133.5t-138.5 113t-107.5 69.5q-45 43 -45 119z" />
<glyph unicode="&#xe0;" horiz-adv-x="1050" d="M436 165h32q100 0 156 63t56 154v57q0 72 -71 72l-6 1l-7 1l-26 1h-34l-7 -1h-13q-240 0 -240 -177v-14q0 -76 45.5 -116.5t114.5 -40.5zM263 1437v14q0 44 77 44h16q12 -2 16 -2q70 0 119 -63q152 -195 152 -235v-15q0 -29 -53 -29h-11q-46 0 -110 57q-206 183 -206 229 zM473 869q-58 0 -156 -21t-106 -21q-65 0 -65 73q0 54 98 95.5t224 41.5q242 0 341 -132q45 -62 58.5 -147.5t13.5 -282.5t12.5 -265.5t12.5 -87.5v-21q0 -48 -24 -66t-66 -18t-73 16l-68 35q-30 0 -121.5 -36.5t-169.5 -36.5h-23q-137 0 -213 85q-76 86 -77 194 q1 108 33 168q80 149 314 174.5t244 38t10 65t-42 101t-157 48.5z" />
<glyph unicode="&#xe1;" horiz-adv-x="1049" d="M418 183h41q12 2 20 2q81 0 139.5 58.5t58.5 121.5l2 12l3 52v38q0 41 -16.5 55t-60.5 14h-39l-53 -4q-35 -5 -45 -5q-86 0 -138.5 -59t-52.5 -133v-20q0 -64 43.5 -98t97.5 -34zM443 1143h-16q-57 0 -57 32v15q0 81 154 235q58 58 128 58h11q85 0 85 -47v-15 q0 -55 -125.5 -166.5t-179.5 -111.5zM216 822q-67 0 -67 70q0 53 92.5 94.5t205.5 41.5h47q107 0 191 -37t130 -106q62 -94 62 -417q0 -169 12.5 -251.5t12.5 -108.5v-21q0 -66 -109 -66q-28 0 -66 24t-59.5 24t-117.5 -36t-183 -36q-139 0 -217 83t-78 235t144 235 q108 62 321 71q98 4 113.5 19.5t15.5 68t-39.5 102.5t-134 50t-171 -19.5t-105.5 -19.5z" />
<glyph unicode="&#xe2;" horiz-adv-x="1050" d="M434 166h13q104 0 171 59.5t67 172.5v25q0 54 -17.5 71.5t-86.5 17.5h-53q-126 0 -189 -49t-63 -126v-35q0 -62 42.5 -99t115.5 -37zM497 1485h17q58 0 102 -48q184 -199 184 -250q0 -33 -67 -33h-16q-54 0 -114 71q-95 112 -98.5 112t-37.5 -37t-63 -66 q-69 -69 -133 -69t-64 25v6q1 11 67 104q132 185 223 185zM672 723q0 71 -56 107t-130 36t-164 -21.5t-110 -21.5q-66 0 -66 74q0 56 100 96t206 40h48q222 0 328 -159q53 -80 53 -400v-12q0 -187 12.5 -255.5t12.5 -88.5v-21q0 -47 -24 -65t-70.5 -18t-84 25t-57.5 25 t-117.5 -36.5t-168.5 -36.5h-23q-123 0 -206.5 78t-83.5 229.5t115 232.5q63 44 133 61.5t193 28.5t135 17q25 14 25 85z" />
<glyph unicode="&#xe3;" horiz-adv-x="1048" d="M438 175h40q12 2 19 2q69 0 129.5 60.5t60.5 156.5v50q-3 18 -3 31q0 44 -96 44h-34l-7 -1h-20l-20 -1h-26l-52 -4q-63 0 -108 -50.5t-45 -105.5l-2 -14v-28q0 -60 45 -100t119 -40zM344 1411h32q48 0 138 -45t123.5 -45t76 32t67.5 32q47 0 47 -47v-8q0 -61 -52 -113 t-116 -52h-16q-48 0 -147 49.5t-126.5 49.5t-73 -34t-70.5 -34q-49 0 -49 58t54 107.5t112 49.5zM904 97q0 -80 -98 -80q-30 0 -76.5 24t-70 24t-111 -35t-167.5 -35h-23q-132 0 -207.5 83.5t-75.5 211.5v23q0 144 135 230q78 49 207 66q22 3 111 9t107 11q37 11 37 82 q0 152 -223 152q-40 0 -124 -20.5t-113 -20.5q-63 0 -63 76q0 46 72 80q106 50 235 50h24q228 0 329 -134q41 -54 55 -133t14 -278t13 -272.5t13 -113.5z" />
<glyph unicode="&#xe4;" horiz-adv-x="1045" d="M468 175q72 0 131.5 59.5t59.5 121.5l1 7l1 6l3 62v20q0 43 -15 58t-72 15h-27l-6 -1l-85 -5l-25 -2q-74 0 -121.5 -53.5t-47.5 -131.5v-14q0 -54 34.5 -98t97.5 -44l13 -2h39q12 2 19 2zM333 1421q83 0 83 -66q2 -8 2 -11l2 -19v-28l-1 -3v-8l-6 -33q0 -45 -52 -45 q-10 -3 -14 -3l-22 -3h-30q-83 0 -83 66q-2 8 -2 11l-2 19v28l1 3v8l6 33q0 45 52 45q9 3 14 3l22 3h30zM570 1339q0 56 90 56h37q12 -3 24 -3q75 0 75 -108v-7l-1 -4l-3 -30q-1 -4 -1 -8q0 -60 -93 -60l-4 1h-8l-12 1h-7q-16 4 -23 4q-73 0 -73 79q-2 8 -2 12l-2 18v33 q3 9 3 16zM466 864q-62 0 -155 -20t-104 -20q-66 0 -66 72q0 52 93.5 92.5t210.5 40.5h46q107 0 191.5 -40t127.5 -108q59 -94 59 -419q0 -174 13 -247t13 -116.5t-23 -62t-71 -18.5t-85.5 25t-56 25t-116 -36.5t-167.5 -36.5h-23q-135 0 -211 84.5t-76 192.5t33 168 q79 145 312 171t242 37.5t9 65t-41.5 102t-154.5 48.5z" />
<glyph unicode="&#xe5;" horiz-adv-x="1057" d="M391 1379v-25l1 -4v-7q2 -6 2 -18.5t25 -37.5t50 -25q6 -2 10 -2l14 -1h7q31 0 62.5 25t31.5 66v25l-1 4v7q-2 6 -2 18.5t-26.5 39t-65.5 26.5h-14q-38 0 -66 -28t-28 -63zM456 167q81 0 147 58.5t66 116.5q4 24 4 30l2 43v26q0 67 -57 67l-32 3h-40l-20 -2h-13l-7 -1 h-14l-20 -2l-26 -2q-76 0 -127.5 -51.5t-51.5 -127.5v-7q0 -62 33.5 -105.5t96.5 -43.5l13 -2h46zM483 1560h15l7 -1q87 0 145.5 -58.5t58.5 -140.5v-15l-1 -7q0 -71 -53.5 -130.5t-130.5 -59.5h-34q-14 2 -21 2q-71 0 -128 63t-57 124l-2 14v28q0 69 56 125t145 56z M662 729q0 71 -55 106.5t-130 35.5t-163.5 -21.5t-111.5 -21.5q-67 0 -67 72q0 55 93.5 97t209.5 42h47q108 0 194.5 -37.5t132.5 -107.5q61 -93 61 -399q0 -189 13.5 -278t13.5 -123q0 -72 -96 -72q-45 0 -83.5 25.5t-63.5 25.5t-117.5 -37t-160.5 -37h-23 q-127 0 -211.5 76.5t-84.5 212.5v24q0 145 107.5 221t283.5 91.5t186 20.5q25 13 25 84z" />
<glyph unicode="&#xe6;" horiz-adv-x="1616" d="M500 504q-81 0 -138 -50.5t-57 -121.5v-21q0 -68 42 -105t114 -37h13l7 1q112 0 169 57t57 149v63q0 67 -59 67l-12 2l-25 1h-32l-7 -1h-13l-46 -3q-7 -1 -13 -1zM1290 634v25q0 74 -46 133.5t-123 59.5h-47q-89 0 -149 -68t-60 -168v-18q0 -41 79 -41h55l6 1l108 5l63 6 q114 0 114 65zM1473 145q0 -53 -104 -102.5t-222.5 -49.5t-186 25t-124.5 59.5t-74 34.5t-78 -38t-126 -58t-181.5 -20t-202.5 80.5t-86 208.5v35q0 64 35 122q78 128 277 162q50 8 138 14.5t94 8.5q42 13 42 59q0 87 -51 132t-175 45q-42 0 -125 -24.5t-112 -24.5 q-53 0 -53 72q0 52 97.5 92.5t211 40.5t168.5 -22t100 -48t60 -26t41 14l26 15q122 71 250 71q266 0 356 -214q33 -79 33 -166q0 -125 -65 -155q-45 -21 -226 -34l-231 -17q-79 -15 -79 -79q0 -95 81 -155q57 -42 176 -42q40 0 146.5 27t122.5 27q47 0 47 -70z" />
<glyph unicode="&#xe7;" horiz-adv-x="1014" d="M507 -466h-26q-101 0 -101 66v6l1 6q0 34 52 34q120 0 120 83q0 31 -47 64t-47 81q0 76 54 91q-85 3 -183 51q-100 50 -146 114q-100 141 -100 398q0 363 248 478q95 44 207 44h49q107 0 210 -61.5t103 -136t-65 -74.5q-32 0 -143 42t-187 42q-184 0 -184 -354 q0 -159 50.5 -250.5t157.5 -91.5q45 0 155.5 35t144.5 35q74 0 74 -64v-18q0 -73 -112 -131q-102 -53 -224 -57q15 -11 26 -59q3 -13 69 -51.5t66 -116.5v-25q0 -80 -65 -130t-157 -50z" />
<glyph unicode="&#xe8;" horiz-adv-x="1059" d="M379 604h44l6 1l208 8l6 1l13 1q86 0 86 53v26q0 88 -55.5 143.5t-135.5 55.5h-43q-93 0 -152.5 -67t-59.5 -152l-2 -13v-19q0 -38 85 -38zM282 1446v10q0 47 74 47h21q73 0 123 -57q160 -183 160 -239v-5q0 -33 -53 -33h-10q-53 0 -125 63q-190 166 -190 214zM904 139 q0 -55 -111 -103.5t-238 -48.5h-24q-319 1 -419 269q-36 94 -36 216v49q0 386 267 489q85 33 180 33h24h2q279 0 362 -225q28 -76 28 -128v-43q0 -116 -65.5 -143t-267 -36t-248.5 -22q-62 -17 -62 -70q0 -102 73 -156.5t198 -54.5q49 0 158.5 26t121.5 26q57 0 57 -78z" />
<glyph unicode="&#xe9;" horiz-adv-x="1059" d="M731 699v44q0 66 -55.5 115.5t-134.5 49.5h-22q-99 0 -162 -71t-63 -163l-3 -34q0 -45 68 -45l12 -2l26 -1l7 1l40 2l26 2q20 3 26 3l19 3l65 3q82 0 125 24q26 14 26 69zM456 1161h-16q-48 0 -48 31v10l1 5q0 69 160 229q56 56 124 56h16q79 0 79 -46v-10l-1 -5 q0 -42 -177 -197q-83 -73 -138 -73zM556 6h-47q-94 0 -184 39t-139 97q-104 123 -104 333v47q0 365 240 474q93 43 219 43h23q156 0 258 -92q52 -47 81.5 -125.5t29.5 -143.5v-21q0 -118 -67 -146q-46 -20 -250.5 -34t-226.5 -19q-82 -18 -82 -70q0 -95 68.5 -151.5 t189.5 -56.5q55 0 157.5 22.5t113.5 22.5q58 0 58 -61.5t-107 -109.5t-231 -48z" />
<glyph unicode="&#xea;" horiz-adv-x="1058" d="M679 617q61 0 61 49v33q0 89 -59 141.5t-138 52.5h-28q-81 0 -149 -60.5t-68 -154.5l-3 -20v-19q0 -36 85 -36h24l6 1l226 9l25 2q12 2 18 2zM818 1206v-6q0 -31 -69 -31t-179 130q-43 51 -49.5 51t-42.5 -43q-117 -138 -181 -138h-8q-64 0 -64 27q0 17 61.5 103.5 t120 140t118.5 53.5h9q57 0 101 -48q183 -200 183 -239zM904 137q0 -60 -115 -106t-234 -46h-24q-217 0 -343 135q-58 62 -85 157t-27 193v48q0 367 247 481q89 41 200 41h48q73 0 145 -28q143 -56 194 -195q29 -79 29 -130v-43q0 -114 -72 -146q-42 -18 -257.5 -32.5 t-233.5 -18.5q-80 -17 -80 -74q0 -100 72 -155.5t199 -55.5q49 0 158.5 26t121.5 26q57 0 57 -77z" />
<glyph unicode="&#xeb;" horiz-adv-x="1055" d="M726 668v19l-1 7l-2 26q-1 7 -1 12q0 62 -56.5 112.5t-133.5 50.5h-28q-97 0 -158.5 -69.5t-61.5 -172.5v-12q0 -39 91 -39h12l7 1l235 10l24 2q73 0 73 53zM435 1296q0 -92 -56 -92q-12 -4 -17 -4l-26 -3h-22l-4 1h-7l-32 6q-45 0 -45 60q-2 8 -2 12l-2 15v35l4 30 q0 57 61 57q8 2 11 2l18 2h30l29 -4q56 0 56 -67l3 -15v-7l1 -12v-16zM752 1399q60 0 60 -65l3 -21v-33q-5 -20 -5 -28q0 -58 -93 -58h-36l-19 3l-22 4q-46 0 -46 51q-3 10 -3 14l-3 21v26l5 32q0 53 59 53q12 4 18 4l28 2h12l4 -1l31 -3q4 -1 7 -1zM572 -11h-71h-4 q-85 0 -177 39q-183 77 -230 282q-19 82 -19 184v24q0 385 265 487q87 34 178 34h47q91 0 162 -33t113 -79q94 -104 94 -250t-71 -176q-57 -24 -255 -33t-256.5 -23.5t-58.5 -66.5q0 -100 71.5 -157t195.5 -57q47 0 150 22l61 16q55 13 68 13q59 0 59 -75q0 -55 -107.5 -103 t-214.5 -48z" />
<glyph unicode="&#xec;" horiz-adv-x="545" d="M28 1427v15q0 45 72 45h10q63 0 122 -68q149 -170 149 -247v-10q0 -30 -44 -30h-18q-57 0 -174 134t-117 161zM261 39h-24q-56 0 -72 30.5t-16 146.5l7 115l2 24l2 59v37l-1 25v38l-1 25v37l-1 38v50l-1 25v25l-2 50q0 34 -8 93l-6 44q-6 42 -6 43v22q0 42 18 57t88 15 h24q73 0 89 -67q11 -46 11 -178v-144l1 -37v-25l3 -99v-25q2 -24 2 -31t5 -62l3 -23q9 -99 9 -116v-59q0 -87 -25 -110t-101 -23z" />
<glyph unicode="&#xed;" horiz-adv-x="543" d="M195 1138h-19q-41 0 -41 27v14q0 47 152 242q54 70 128 70h10l4 -1q66 0 66 -44v-10q0 -26 -32 -67q-86 -111 -163.5 -171t-104.5 -60zM369 444l2 -59l12 -174v-23q0 -99 -21.5 -128t-90.5 -29h-48q-42 0 -57 31.5t-15 121.5l10 151q2 24 2 36l2 24v49l1 38v126l1 38v88 l-2 49l-13 113l-6 44v32q0 61 92 61h47q58 0 74 -68q7 -29 7 -310l1 -25v-112l1 -25v-37z" />
<glyph unicode="&#xee;" horiz-adv-x="563" d="M556 1184q0 -35 -75 -35h-7q-49 0 -109 66l-33 35q-5 6 -12 13.5t-26 31t-21.5 23.5t-80 -84.5t-127.5 -84.5h-7l-8 1q-63 0 -63 29v7q0 13 72 113.5t115.5 144t98.5 43.5h8q51 0 89 -42q186 -203 186 -261zM161 201l2 58l2 23q1 12 1 22l3 59l1 24v213l1 26v126 q0 47 -10 107.5t-10 75.5v33q0 61 81 61l25 2h12l12 -1q71 0 87 -67q11 -46 11 -325l2 -76v-38l3 -86v-24l1 -23l6 -80q2 -22 2 -34l2 -24l1 -47v-36q0 -97 -24 -119.5t-101 -22.5h-36q-44 0 -59.5 29.5t-15.5 131.5z" />
<glyph unicode="&#xef;" horiz-adv-x="558" d="M174 1261l-2 -36q0 -20 -25.5 -40.5t-61.5 -20.5h-23q-82 0 -82 73l-2 8l-3 28v29l4 32q0 33 25.5 53.5t64.5 20.5h13q89 0 89 -77q2 -8 2 -12l2 -16v-38zM335 1320q0 93 70 93q6 2 11 2l18 2h23l18 -2l21 -4q53 0 53 -91v-24l-1 -4l-3 -26q-1 -4 -1 -8q0 -57 -58 -57 l-25 -5h-8l-15 -1h-4q-94 0 -94 64q-2 8 -2 11l-3 23v27zM266 29h-36q-48 0 -60 38t-12 127l10 151l2 24l1 24v326l-2 50l-20 180v11q0 42 18 57.5t84 15.5h12q59 0 80 -24.5t21 -90.5l2 -25l2 -74v-202l1 -25v-50l1 -25v-49l17 -246v-47q0 -96 -23.5 -121t-97.5 -25z" />
<glyph unicode="&#xf0;" horiz-adv-x="1132" d="M319 439q0 -124 58.5 -211.5t152.5 -87.5h41q95 0 159 87t64 232l1 21l1 10v43q0 145 -59 220t-152 75l-19 2h-38q-92 0 -149 -85.5t-57 -178.5l-2 -20l-1 -32v-75zM849 1222q0 -12 44 -106q116 -249 116 -508v-56q0 -397 -254 -522q-86 -42 -182 -42h-28 q-212 0 -331 137q-102 119 -102 335.5t121.5 353t330.5 136.5l87 -8q52 0 52 37q0 62 -47.5 104.5t-107.5 42.5l-56 -3q-75 0 -75 54q0 13 25 46.5t25 50.5t-43 62t-43 79q0 44 67 44q38 0 118 -29t135 -29l103 6q65 0 65 -72l-3 -16l-10 -31q-7 -27 -7 -66z" />
<glyph unicode="&#xf1;" horiz-adv-x="1116" d="M882 1376v-24q0 -54 -57 -106t-113 -52h-25q-38 0 -137.5 47t-129 47t-73.5 -37t-80.5 -37t-36.5 45v16q0 51 54.5 105.5t124.5 54.5h8l8 -1q39 0 136.5 -46t129.5 -46t75 36t79.5 36t36.5 -38zM224 998q47 0 84.5 -26.5t52 -26.5t53.5 20l21 11q101 55 197 55h27 q96 0 169.5 -47.5t112 -137.5t38.5 -505l3 -210v-25q0 -97 -58 -97h-24q-78 0 -106 83q-15 44 -15 325t-26.5 347t-71 91t-111 25t-122 -32.5t-84.5 -94.5t-29 -345t-22 -331q-31 -67 -123 -67q-58 0 -58 92v103l1 27v52l2 160v162l-1 81v81l-2 130q0 61 22.5 80.5 t69.5 19.5z" />
<glyph unicode="&#xf2;" horiz-adv-x="1111" d="M523 151h33q108 0 167 86t59 255v79q0 143 -60.5 231t-175.5 88h-22l-10 -1q-99 0 -160 -83.5t-61 -242.5v-69q0 -168 60 -255.5t170 -87.5zM297 1442v15q0 45 80 45h10l6 -1q75 0 127 -60q153 -175 153 -232v-15q0 -30 -49 -30h-21q-48 0 -177 114.5t-129 163.5z M995 533v-35q0 -366 -252 -474q-91 -39 -205 -39l-17 1q-205 0 -323 134q-53 61 -81.5 159t-28.5 201v70q0 229 116 362.5t336 133.5l17 -1q207 0 335 -147q103 -120 103 -365z" />
<glyph unicode="&#xf3;" horiz-adv-x="1110" d="M291 497l2 -54q0 -116 62 -193.5t167 -77.5h11l11 1q116 0 178 84.5t62 221.5q3 33 3 34l1 45v32q0 144 -61.5 228t-165.5 84h-33q-120 0 -179 -95t-59 -265v-34zM408 1176v10q0 57 161 241q53 61 135.5 61t82.5 -47l-1 -5v-5q0 -56 -185 -218q-80 -70 -135 -70l-5 1 q-53 0 -53 32zM519 1044h51q98 0 182 -40q159 -76 208 -241q33 -110 33 -244l-1 -17q0 -361 -233 -469q-101 -47 -200 -47h-51q-96 0 -180 39q-156 72 -206 242q-33 110 -33 243l1 18v17q0 350 243 459q90 40 186 40z" />
<glyph unicode="&#xf4;" horiz-adv-x="1114" d="M514 157h43q105 0 167 84.5t62 273.5v45q0 150 -61 241.5t-176 91.5h-22l-10 -1q-101 0 -162 -89t-61 -252v-57q0 -155 57 -246t163 -91zM832 1196v-7q0 -27 -81 -27q-51 0 -110 70q-91 108 -101 108q-4 0 -87 -90t-137 -90h-8q-66 0 -66 26v7q0 15 78 116.5t121.5 138 t98.5 36.5h8q60 0 108 -52q176 -192 176 -236zM997 547v-71q0 -237 -123.5 -367t-333.5 -130l-17 1q-310 0 -404 284q-31 94 -31 211v52q0 245 116.5 380.5t336.5 135.5l17 -1q203 0 326 -136q56 -62 84.5 -159.5t28.5 -199.5z" />
<glyph unicode="&#xf5;" horiz-adv-x="1112" d="M525 163h33q108 0 168.5 82.5t60.5 223.5l2 22l1 34v45q0 151 -64.5 239t-174.5 88h-32q-106 0 -166.5 -88t-60.5 -261v-46q0 -152 58.5 -245.5t174.5 -93.5zM392 1414h17q49 0 141 -46t122 -46t75 37.5t70 37.5q46 0 46 -46v-9q0 -59 -51.5 -110.5t-122.5 -51.5h-8 q-56 0 -147 45.5t-123 45.5t-77 -37.5t-79 -37.5q-40 0 -40 45v9q0 63 55 113.5t122 50.5zM509 1043h68q85 0 173 -38q164 -70 215 -246q31 -107 31 -245q0 -250 -104 -381q-54 -68 -144 -108.5t-190 -40.5h-34q-205 0 -318 130q-114 130 -114 382v35q0 359 234 468 q95 44 183 44z" />
<glyph unicode="&#xf6;" horiz-adv-x="1105" d="M507 153h32q229 0 229 364v46q0 156 -60.5 244t-163.5 88h-44q-104 0 -163 -88.5t-59 -250.5v-69q0 -166 61.5 -250t167.5 -84zM240 1355q0 57 62 57l4 1l3 1l37 3l4 -1l33 -3q4 -1 7 -1q54 0 54 -62q2 -8 2 -12l2 -19v-27l-1 -4l-3 -22q-1 -4 -1 -8q0 -55 -55 -55 q-10 -3 -14 -3l-22 -3h-30l-4 1l-21 3q-4 1 -7 1q-51 0 -51 62q-2 8 -2 11l-2 19v27l1 4l3 23q1 4 1 7zM697 1189q-49 0 -71 17.5t-22 68.5v30l5 33q0 59 67 59q8 2 11 2l19 2h35l29 -4q51 0 51 -52q3 -10 3 -14l2 -19v-30l-4 -25q0 -64 -72 -64l-7 -2h-7l-20 -2h-19z M979 548v-69q0 -351 -262 -461q-82 -34 -190 -34l-18 1q-206 0 -320.5 131t-114.5 378v35q0 375 263 479q84 33 173 33h35q205 0 319.5 -131t114.5 -362z" />
<glyph unicode="&#xf7;" horiz-adv-x="1107" d="M488 843q-66 0 -66 91v31q0 93 75 93l8 2l40 3l5 -1l32 -2q12 -3 15 -3q59 0 59 -67q2 -8 2 -12l2 -15v-27l-4 -27q0 -66 -71 -66l-8 -2l-37 -3h-4l-4 1h-8l-28 3q-4 1 -8 1zM165 528q-61 0 -61 54v20q0 67 26 75t214 8h563q50 0 61 -11t11 -53l-1 -9q0 -73 -38 -79 q-24 -4 -417 -4h-31l-40 -1h-287zM655 228l-2 -19q0 -74 -72 -74q-8 -2 -11 -2l-16 -2h-32l-38 6q-51 0 -51 65q-2 6 -2 11l-2 21v28q0 98 75 98q8 2 11 2l16 2h32q20 -5 34 -5q53 0 53 -58q3 -10 3 -15l3 -24v-29z" />
<glyph unicode="&#xf8;" d="M657 820v13q0 52 -98 52h-32q-108 0 -172 -85.5t-64 -212.5l-1 -8l-1 -9l-1 -33v-51q0 -119 35 -183q8 -14 15 -14h4q6 0 94 127t154.5 260t66.5 144zM432 181v-12q0 -42 79 -42h8q117 0 188 95t71 239l2 16v18l2 51v17q0 178 -34 178q-8 0 -162 -270t-154 -290zM238 -50 q-71 0 -71 78l10 74q0 6 -40 133.5t-40 225.5v80q0 115 37 215q73 196 255 254q80 25 206 25l36 -2q36 -2 65.5 -2t77 19t69.5 19q70 0 70 -80q-10 -50 -10 -65.5t41 -142t41 -245.5v-40q0 -249 -126 -381q-65 -67 -148 -99t-207 -32l-104 4q-42 0 -95 -19t-67 -19z" />
<glyph unicode="&#xf9;" d="M306 1442v14q0 49 75 49h15q79 0 133 -62q156 -178 156 -235l-1 -5q0 -34 -48 -34h-21q-49 0 -140 81q-169 150 -169 192zM877 31q-44 0 -87 23.5t-45 23.5t-103.5 -41t-167.5 -41h-27q-204 0 -284 183q-40 92 -40 528l-4 211q0 65 15.5 84.5t59.5 19.5q81 0 113 -77 q21 -51 21 -327q0 -278 24 -344q46 -124 169 -124q153 0 215 126q31 64 31 345t21 328q30 67 119 67q55 0 64 -61q2 -13 2 -218v-312l1 -54l5 -207q0 -79 -29 -106t-73 -27z" />
<glyph unicode="&#xfa;" d="M487 1168h-21q-49 0 -49 30v9l1 5q0 24 27 60q101 135 138 167q66 58 129 58h15q70 0 70 -40v-10q0 -67 -136.5 -173t-173.5 -106zM874.5 43q-45.5 0 -85 22.5t-51.5 22.5t-101.5 -40t-162.5 -40h-26q-92 0 -163 42t-106 111q-53 104 -53 498v53l-1 53v52l-2 53v76 q0 42 15 60t59 18q91 0 119 -95q14 -48 14 -312.5t24 -330.5q46 -124 168 -124q155 0 214 128q30 64 30 369l1 79l2 103q0 104 37 141t96 37t67 -59q2 -16 2 -218v-255l1 -53v-53l5 -206q0 -77 -28.5 -104.5t-74 -27.5z" />
<glyph unicode="&#xfb;" d="M845 1214v-14q0 -26 -64.5 -26t-130.5 72q-23 25 -59 67.5t-39.5 42.5t-87.5 -91.5t-136 -91.5h-8q-67 0 -67 26v6q0 10 65 101.5t121.5 143t111.5 51.5h8q61 0 106 -53q180 -213 180 -234zM521 148q153 0 215 124q32 62 32 337v9l-1 13q0 271 21 316q30 67 119 67 q55 0 64 -61q2 -13 2 -211v-292l2 -107v-41q0 -14 2 -66l2 -50v-24q0 -79 -29 -106t-73 -27t-87 23.5t-48 23.5t-101.5 -41t-166.5 -41h-27q-207 0 -285 182q-39 90 -39 508v21l-4 211q0 65 15.5 84.5t59.5 19.5q92 0 120 -97q14 -49 14 -328t36 -351q48 -96 157 -96z" />
<glyph unicode="&#xfc;" horiz-adv-x="1118" d="M246 1357q0 57 58 57q10 3 14 3l19 2h33q81 0 81 -70l3 -15v-8l1 -11v-12l-1 -4l-3 -31q-1 -4 -1 -7q0 -57 -58 -57l-11 -3l-37 -3h-4q-93 0 -93 60l-4 19l-2 23v19l1 4l3 27q1 4 1 7zM839 1330v-39q0 -88 -67 -88l-3 -1l-4 -1l-33 -3h-8q-94 0 -94 68q-2 6 -2 11l-2 19 v27l4 31q0 61 63 61q6 2 10 2l38 2q53 0 75.5 -18t22.5 -71zM970 157q0 -123 -98 -123q-50 0 -87.5 22.5t-51.5 22.5t-67.5 -25.5t-58.5 -27.5q-73 -29 -157 -29q-276 0 -321 288q-12 79 -12 243v191l-1 80l-3 130q0 93 62 93h23q79 0 106 -85q15 -47 15 -325t27.5 -345.5 t70.5 -91.5t109.5 -24t122.5 34q55 34 83 98t28 346.5t23 326.5q32 60 123 60q46 0 55 -70q2 -16 2 -212v-237l1 -54v-67q0 -41 4 -145l2 -50v-24z" />
<glyph unicode="&#xfd;" horiz-adv-x="1036" d="M442 1143h-21q-41 0 -41 25v18q0 53 166 240q58 65 120 65h10q27 0 54.5 -20.5t27.5 -36.5v-5q0 -41 -119 -134q-195 -152 -197 -152zM84 936q0 38 24.5 55.5t82.5 17.5t96.5 -87.5t97.5 -341t104 -304.5l15 -12q12 0 30 23q54 67 87 165t72 284t60 224q33 62 105 62 t72 -37q0 -18 -94.5 -432.5t-166.5 -570t-179 -251.5t-203 -96t-96 31q0 55 98 107.5t129 89.5q54 64 54 138q0 46 -96.5 187t-147.5 270q-144 363 -144 478z" />
<glyph unicode="&#xfe;" horiz-adv-x="1127" d="M802 485v70q0 160 -60.5 243t-167.5 83h-20q-92 0 -147 -59t-55 -154q-2 -22 -2 -32l-1 -10v-21l-1 -11v-21l-1 -43v-22l1 -10v-32l1 -21v-21l5 -102q0 -86 47 -133t139 -47h32q55 0 101.5 29t72.5 76q56 100 56 238zM412 31q-57 0 -57 -210q0 -97 -25.5 -140.5 t-86 -43.5t-77.5 29.5t-17 93.5l1 25v52l1 52v52l1 26v53l1 52v53l1 79v158l1 53v503l-1 27v105l-1 53v52l-1 53q0 26 -1 51l-2 50v24q0 60 22 76.5t61 16.5q77 0 98.5 -45t21.5 -188t11.5 -175t43.5 -32q12 0 35 7l20 8q84 31 168 31q170 0 276 -126.5t106 -363.5v-57 q0 -108 -31.5 -204t-87.5 -159q-109 -124 -279 -124q-80 0 -138.5 16.5t-63.5 16.5z" />
<glyph unicode="&#xff;" horiz-adv-x="1037" d="M286 1395h22l15 -2q63 0 77 -19t14 -86l1 -9v-12l-1 -4l-3 -32q-1 -4 -1 -8q0 -59 -102 -59l-15 -1l-4 1h-6l-14 2q-54 0 -54 56q-2 8 -2 12l-3 25v42l4 29q0 65 72 65zM796 1286l-4 -38q0 -63 -57 -63q-14 -4 -18 -4l-26 -2h-16q-88 0 -88 57q-3 10 -3 15l-3 22v36 q0 43 18.5 66.5t70.5 23.5h34l18 -2l21 -4q49 0 49 -64l3 -16v-7l1 -16v-4zM182 995q62 0 107 -99q22 -47 97 -347t116 -300q47 0 115 186q32 86 73 281.5t61 232.5q34 61 105 61t71 -37q0 -52 -102.5 -469t-164.5 -549.5t-167 -234.5t-205 -102t-100 32q0 56 99 108t132 93 q53 67 53 127.5t-89.5 186.5t-145.5 256q-155 357 -155 502q0 72 100 72z" />
<glyph unicode="&#x131;" horiz-adv-x="567" d="M159 921v34q0 39 24 51.5t81 12.5h24q50 0 71.5 -26.5t21.5 -88.5l2 -25l1 -38v-39l1 -38v-180l1 -26v-51l1 -25v-25l1 -25l12 -178l2 -24q2 -24 2 -37v-60q0 -91 -24 -115t-99 -24h-25q-51 0 -68 27t-17 143l6 95l5 60l2 48v178l-1 39v76l-1 25v25l-1 26q0 61 -12 118 l-4 22q-6 44 -6 45z" />
<glyph unicode="&#x141;" horiz-adv-x="1102" d="M656 943q37 0 37 -59.5t-95 -128.5t-119 -110q-51 -89 -51 -317q0 -99 77 -133q58 -26 242.5 -26t230.5 -22t46 -73.5t-63 -65t-213 -13.5h-246q-220 0 -263 44q-31 32 -31 225.5t-14.5 220t-53 30.5t-46.5 12q-26 26 -26 64t53 112.5t70.5 131t17.5 244.5t19 264 q12 49 66 49q80 0 109 -78q17 -46 17 -210t11.5 -186.5t42.5 -22.5t85.5 24t96.5 24z" />
<glyph unicode="&#x142;" horiz-adv-x="650" d="M358 8q-152 0 -152 376q0 88 -13.5 117.5t-69.5 42.5t-56 60v13q0 44 60 99.5t77 105t17 237.5l2 42l2 84v100q0 79 13 119q17 53 83 53h19q52 0 69 -36.5t17 -131.5l-3 -63l-1 -61q0 -147 9.5 -175t66.5 -48t57 -64v-13q0 -41 -38 -93q-78 -107 -80 -112 q-23 -63 -23 -193t8 -164t29 -106.5t21 -110.5q0 -78 -114 -78z" />
<glyph unicode="&#x143;" horiz-adv-x="1380" d="M612 1556h-11q-50 0 -50 36v15q0 56 171 208q81 72 164 72h5q10 -2 16 -2q65 0 65 -54v-10l-1 -5q0 -36 -144 -148t-215 -112zM377 1062q-19 0 -19 -420t-16 -482t-44 -91t-67.5 -29t-50.5 26q-19 47 -19 282l1 41l1 81v328q0 490 8 520q16 58 94.5 58t158.5 -94 q34 -41 307.5 -411t283.5 -370q26 0 26 349t22 416.5t88.5 67.5t66.5 -83v-80l-1 -40v-40q0 -112 -8 -264t-8 -421t-10.5 -296t-65.5 -27q-76 0 -164 113q-35 44 -135.5 211t-138.5 227q-273 428 -310 428z" />
<glyph unicode="&#x144;" d="M505 1147h-10l-6 1q-46 0 -46 36v21q0 22 36 68q112 144 144 169q72 56 120 56l5 -1q78 0 78 -52v-10l-1 -5q0 -43 -135 -163t-185 -120zM215 938q61 0 113 -56q18 -20 32 -20t56 26q136 85 265 85q184 0 252 -167q25 -61 33 -173q37 -490 37 -528q0 -64 -77 -64 t-105 95.5t-44.5 309.5t-42.5 278t-65 86t-97.5 22t-107.5 -36t-80 -105.5t-49 -308t-25 -262.5q-26 -86 -99 -86q-52 0 -67 24t-15 97v259q0 306 24 440q15 84 62 84z" />
<glyph unicode="&#x152;" horiz-adv-x="1878" d="M706 1254h-29q-69 0 -141 -38q-132 -69 -183 -271q-32 -128 -32 -259v-46q0 -213 87 -346q43 -65 110.5 -100.5t139.5 -35.5h29q138 0 182 84q59 113 59 386q2 32 2 46l2 78v76q0 243 -54 351q-38 75 -172 75zM1712 108q0 -52 -72 -73.5t-227 -21.5t-206.5 7t-99.5 16.5 t-84.5 9.5t-160 -22t-217.5 -22t-197 40q-212 82 -286 334q-38 127 -38 283v44q0 176 43 312t113.5 217t179 128t222.5 47h39q42 0 168.5 -20.5t150.5 -20.5t133 18t268.5 18t208 -15.5t48.5 -56.5t-85 -65q-47 -13 -189 -21t-189 -35.5t-60 -85.5t-13 -156.5t71 -127.5 q54 -22 191.5 -22t161.5 -9q40 -15 40 -71.5t-46 -76.5q-27 -12 -187 -20.5t-199 -45.5t-39 -185t50.5 -189.5t238 -41.5t249.5 -44q19 -13 19 -26z" />
<glyph unicode="&#x153;" horiz-adv-x="1683" d="M735 572q0 291 -201 291h-11q-115 0 -182 -97t-67 -270v-44q0 -146 58.5 -233.5t156.5 -87.5h21l10 1q94 0 151.5 73.5t57.5 184.5l2 21q1 11 1 21l2 22l1 44v74zM1252 599q106 0 106 63v40q0 58 -43.5 108t-108.5 50l-12 2h-26l-6 -1q-91 0 -152.5 -69t-61.5 -154 l-2 -12v-11q0 -32 44 -32l5 -1l6 -1l22 -1h11l6 1l116 8l31 3l24 2q30 5 41 5zM1531 161q0 -63 -112 -114.5t-244.5 -51.5t-225 59t-95.5 59q-30 0 -59 -16l-43 -29q-21 -14 -48 -26q-109 -50 -211 -50q-205 0 -310.5 130t-105.5 365t109.5 374t320.5 139q163 0 268 -83 q54 -43 78 -43q5 0 55 36q128 93 270 93h29q140 0 233 -86q50 -46 79 -115t29 -136q0 -136 -83 -174q-38 -18 -213 -43t-188 -28q-89 -23 -89 -69q0 -70 61.5 -128t167.5 -58q58 0 158.5 29t118.5 29q50 0 50 -63z" />
<glyph unicode="&#x160;" horiz-adv-x="1166" d="M579 1540h-16q-49 0 -90 41q-195 195 -195 250q0 33 60 33h23q47 0 131.5 -84.5t89.5 -84.5t100 104q60 65 121 65l8 -1q63 0 63 -30v-6q0 -17 -28 -56q-164 -231 -267 -231zM574 185q260 1 260 213q0 100 -110 172q-52 35 -246 107.5t-253 128t-85.5 117t-26.5 147.5 q0 268 265 348q86 26 221 26t233.5 -38.5t129 -76t30.5 -74.5t-22 -62t-39 -25t-131.5 49t-230 49t-177.5 -51.5t-62 -139t92 -151.5q35 -24 233 -95.5t280 -144.5q117 -105 117 -261q0 -297 -253 -386q-97 -34 -200 -34h-35q-184 0 -323 61q-81 35 -123 91q-21 28 -21 52 v29q0 20 22 47.5t48 27.5t104.5 -45t145 -63t157.5 -18z" />
<glyph unicode="&#x161;" horiz-adv-x="965" d="M183 1447v6q0 32 69 32t144.5 -89t84.5 -89l95 114q62 74 118 74h7q63 0 63 -29v-7q0 -47 -178 -240q-58 -63 -120 -63h-8q-47 0 -83 36q-192 192 -192 255zM100 775.5q0 124.5 99 200t263 75.5h55q117 0 206 -47.5t89 -103.5q0 -63 -74 -63q-14 0 -67.5 18.5t-90 29 t-120.5 10.5t-123 -35.5t-39 -88t64 -91.5q24 -15 178.5 -61t222.5 -100q96 -76 96 -191v-26q0 -138 -102.5 -217t-268.5 -79h-28q-144 0 -256 47t-112 100v21q0 26 23.5 47t50.5 21q3 0 113 -39t201 -39q178 0 178 142q0 58 -85 105q-46 26 -190.5 70t-203.5 98 q-79 72 -79 196.5z" />
<glyph unicode="&#x178;" horiz-adv-x="1173" d="M324 1693q0 66 38 66q12 4 15 4l18 2h10l4 -1l34 1h9q53 0 53 -44q6 -24 6 -32l3 -30v-20q0 -53 -25.5 -78.5t-59.5 -25.5l-17 -3h-6q-37 0 -62 25t-25 74v21l1 4v9q4 27 4 28zM683 1684q0 92 69 92q12 4 17 4l27 2h7q52 0 73.5 -21.5t21.5 -65.5v-33q0 -46 -22.5 -68.5 t-53.5 -22.5q-6 -2 -11 -2l-18 -2h-23l-35 6q-47 0 -47 56q-3 10 -3 14l-2 18v23zM1023 1418h21q58 0 58 -49q0 -28 -120 -288t-176 -375t-86 -194t-53 -252.5t-35 -202t-69.5 -28.5t-72.5 18t-15 57.5t14 156.5t14 200t-41 170.5t-93.5 184t-95 177.5t-111.5 194.5 t-69 141.5q0 53 81.5 53t139 -78t163.5 -290t120 -212q55 0 226 369q57 124 79 159q56 88 121 88z" />
<glyph unicode="&#x17d;" horiz-adv-x="1205" d="M844 1862h15q53 0 53 -31v-7q0 -63 -196 -243q-55 -50 -105 -50l-7 1h-8q-44 0 -95 55q-181 196 -181 239q0 33 65.5 33t144 -85.5t83.5 -85.5t92 87t139 87zM132 1335q0 51 69 64q98 18 398 18h136q183 0 250.5 -17t67.5 -61q0 -80 -83.5 -226t-314 -473.5 t-230.5 -406.5q0 -45 192 -45q37 0 163 6l92 6q60 3 88 3q137 0 137 -70v-25q0 -57 -103 -70q-163 -21 -497 -21l-34 1l-135 2q-34 1 -92 1q-116 0 -116 85q0 73 110.5 263.5t257.5 394.5q277 384 277 445q0 41 -272 41l-243 -10q-68 0 -93 22t-25 73z" />
<glyph unicode="&#x17e;" horiz-adv-x="976" d="M200 1447v7q0 31 60 31h8l8 -1q51 0 130 -93t86 -93q1 0 29 28t33 34q101 121 179 121q56 0 56 -28v-7q0 -14 -26 -47q-123 -157 -173 -202.5t-105 -45.5t-100 53q-185 219 -185 243zM235 853q-125 0 -125 74q0 59 48 70q67 15 264 15h150q158 0 211.5 -11.5t53.5 -72 t-226.5 -384t-226.5 -354.5q0 -25 155 -25l230 9q101 0 101 -74q0 -58 -50 -69q-87 -19 -468 -19l-50 -1h-123q-82 0 -82 62.5t63.5 163t233.5 327t170 263.5q0 29 -216 29l-69 -2q-22 -1 -44 -1z" />
<glyph unicode="&#x192;" horiz-adv-x="884" d="M525 1060q0 -49 36 -89q13 -14 31 -23l19 -8q101 -48 101 -89q0 -25 -102 -97q-78 -56 -113 -167.5t-60 -399t-72 -377.5t-111.5 -128.5t-167 -38.5t-102.5 59q0 45 110 96q90 42 121 137q56 172 56 542q0 111 -59 296q-15 47 -15 81.5t64.5 115t96 195t86.5 177.5 q92 106 234 106q84 0 143 -36q29 -18 29 -43q0 -52 -50 -72q-10 -4 -92 -16.5t-117 -45.5q-66 -62 -66 -175z" />
<glyph unicode="&#x2c6;" horiz-adv-x="826" d="M118 1171v13q0 13 25 43q170 201 180 210q49 45 94 45h8q54 0 100 -50q186 -203 186 -252q0 -37 -55 -37h-24q-41 0 -126.5 92.5t-87.5 92.5t-94.5 -92.5t-140.5 -92.5h-8q-57 0 -57 28z" />
<glyph unicode="&#x2c7;" horiz-adv-x="832" d="M422 1119h-17q-52 0 -93 45q-190 207 -190 246v7q0 33 59 33h8q51 0 134.5 -91t95.5 -91q3 0 94 91t135 91h15q55 0 55 -37q0 -44 -191 -235q-59 -59 -105 -59z" />
<glyph unicode="&#x2d8;" horiz-adv-x="802" d="M687 1378v-8q0 -83 -93.5 -155t-200.5 -72h-9q-166 0 -250 147q-28 49 -28 81q0 39 45 39t103 -70.5t140.5 -70.5t142 72.5t94.5 72.5h7l7 -1q42 0 42 -35z" />
<glyph unicode="&#x2d9;" horiz-adv-x="553" d="M252 1123q-102 0 -102 96v33q3 12 3 32.5t24.5 45t55.5 24.5l32 5h29q12 -3 32 -3t43.5 -23.5t23.5 -73.5v-24l-4 -28q0 -24 -23.5 -52t-64.5 -28q-8 -2 -12 -2l-20 -2h-17z" />
<glyph unicode="&#x2da;" horiz-adv-x="710" d="M436 1289l-2 25q0 12 -25 37t-50 25l-16 2h-7q-38 0 -68 -30t-30 -55l-3 -21v-18q0 -36 28.5 -64.5t59.5 -28.5h20l4 1h6q10 3 21.5 3t35.5 30t24 51l3 21v18zM336 1472h21q83 0 138.5 -55.5t55.5 -125.5v-34q0 -75 -63 -132t-137 -57h-35q-75 0 -129 54t-54 133v13l1 7 q0 79 59 138t143 59z" />
<glyph unicode="&#x2db;" horiz-adv-x="679" d="M383 -416h-49q-80 0 -132 52t-52 128v9q0 73 72 167t136 94h8q56 0 56 -33q0 -9 -30 -41q-86 -93 -86 -169q0 -27 23.5 -50.5t84.5 -23.5l15 1l7 1l28 1q60 0 60 -48v-7q0 -28 -35.5 -54.5t-105.5 -26.5z" />
<glyph unicode="&#x2dc;" horiz-adv-x="926" d="M295 1357h26q51 0 146.5 -45t132 -45t84 36.5t74.5 36.5q50 0 50 -46v-8q0 -57 -58 -110t-128 -53h-26q-40 0 -148 44.5t-134 44.5t-72.5 -35.5t-85 -35.5t-38.5 46v18q0 39 52 95.5t125 56.5z" />
<glyph unicode="&#x2dd;" horiz-adv-x="992" d="M163 1093h-16q-43 0 -43 34v4l1 5q0 28 35 80.5t61 104.5t60.5 91.5t90.5 39.5h21q68 0 68 -37v-13q0 -70 -193 -263q-46 -46 -85 -46zM486 1088h-11q-48 0 -48 30v14q0 14 65.5 123.5t89.5 136.5q47 54 100 54h21q73 0 73 -43l-1 -4q0 -38 -180 -240q-63 -71 -109 -71z " />
<glyph unicode="&#x2013;" horiz-adv-x="1073" d="M891 647q69 0 69 -64l-1 -9q0 -67 -50 -76q-28 -5 -393 -5h-59l-39 -1h-227q-77 0 -77 45v38q0 57 50 66q28 5 383 5l30 1h314z" />
<glyph unicode="&#x2014;" horiz-adv-x="1540" d="M1336 646q100 0 100 -52v-28q0 -62 -71 -70q-37 -4 -623 -4l-29 -1h-224l-60 -1h-236q-100 0 -100 52v28q0 62 71 70q47 5 624 5l223 1h325z" />
<glyph unicode="&#x2018;" horiz-adv-x="496" d="M358 1092q0 -95 -92 -95h-25q-14 2 -19 2q-38 0 -61 29.5t-23 91.5v52l2 26l3 32q0 82 58 162t109 80l6 -1h5q39 0 39 -43v-6q0 -9 -24.5 -63t-24.5 -87l28 -77q19 -52 19 -103z" />
<glyph unicode="&#x2019;" horiz-adv-x="490" d="M198 1186.5q0 21.5 -18 61.5q-20 45 -20 93l-1 12v13q0 49 20 75t81 26h12l7 -1q53 0 75 -25t22 -78v-33q0 -115 -61 -226.5t-120 -111.5h-11q-41 0 -41 37v15l34 75q21 46 21 67.5z" />
<glyph unicode="&#x201a;" horiz-adv-x="487" d="M129 -164q0 13 23.5 64.5t23.5 69.5t-16 72q-18 60 -18 89l-1 13v12q0 54 21.5 78t76.5 24h26q52 0 73 -24t21 -74v-26l-1 -6l-1 -26l-4 -39q0 -81 -75 -199q-50 -79 -91 -79h-17q-41 0 -41 41v10z" />
<glyph unicode="&#x201c;" horiz-adv-x="822" d="M343 1095q0 -90 -90 -90h-26q-41 0 -70 22.5t-29 68.5q-2 12 -2 19l-2 33v20q0 131 58 222.5t110 91.5h18q38 0 38 -38v-10q0 -12 -25 -67t-25 -76.5t22.5 -78t22.5 -117.5zM690 1099q0 -91 -88 -91h-26q-57 0 -81 31t-24 103v26l1 7l3 45q1 7 1 13q0 85 59.5 167 t108.5 82h6q46 0 46 -42v-5q0 -10 -25.5 -66t-25.5 -81q1 -25 23 -69t22 -120z" />
<glyph unicode="&#x201d;" horiz-adv-x="818" d="M183 1195q0 28 -17 69q-20 48 -20 91l-1 13v13q0 53 19.5 78t78.5 25h13l6 -1q59 0 79.5 -26.5t20.5 -74.5v-33q0 -138 -65 -240.5t-118 -102.5h-6q-44 0 -44 44l1 5v6q0 8 11 32q42 71 42 102zM530 1197.5q0 19.5 -18 67.5q-19 50 -19 89v4l-1 12v13q0 54 22.5 76.5 t79.5 22.5h13q54 0 78.5 -24.5t24.5 -86.5v-27l-4 -52q0 -80 -60 -183t-114.5 -103t-54.5 47l1 5q0 6 26 63t26 76.5z" />
<glyph unicode="&#x201e;" horiz-adv-x="815" d="M342 153v-13l-1 -7q0 -100 -52.5 -225.5t-120.5 -125.5h-6q-47 0 -47 41v5l1 5q0 10 23 65t23 79t-23 82q-13 48 -13 97.5t20 75.5t72 26h32q49 0 70.5 -24.5t21.5 -80.5zM464 -176v10q0 12 24 64q23 50 23 76t-19 70q-18 42 -18 106t27 85t78 21h7l6 -1q54 0 76.5 -22.5 t22.5 -73.5v-33l-1 -6v-13q-4 -24 -4 -38q0 -90 -62.5 -188t-107.5 -98h-5q-47 0 -47 41z" />
<glyph unicode="&#x2020;" horiz-adv-x="989" d="M129 957q0 41 40 64q22 13 112 13t108 19.5t18 99.5l-3 69q-2 46 -2 94.5t20 74t73.5 25.5t70 -22t16.5 -122l-1 -24q-1 -24 -1 -46l-2 -46q-1 -23 -1 -67q0 -54 162 -54q72 0 93 -18q21 -17 21 -57q0 -76 -122 -83q-75 -4 -95.5 -14.5t-38 -55t-17.5 -425.5t-8 -421 q-13 -67 -80 -67h-20q-51 0 -61 84q-5 43 -5 418t-16 415t-36.5 49.5t-97.5 13.5q-127 7 -127 83z" />
<glyph unicode="&#x2021;" horiz-adv-x="1008" d="M592 -30q0 -98 -97 -98q-49 0 -64.5 25t-15.5 108l4 120q0 92 -24.5 114.5t-56 30.5t-77.5 18.5t-56 14.5q-41 19 -41 62t78 67q119 37 133 60q43 70 43 214t-34 173q-15 13 -92.5 20.5t-113 24t-35.5 63.5t41 62q13 5 49 6q136 4 158.5 27.5t22.5 157.5t21.5 156.5 t73.5 22.5t67.5 -22t15.5 -107l-1 -29q-1 -30 -1 -93.5t22.5 -83t116 -26.5t99.5 -10q36 -14 36 -46q0 -61 -45 -83q-23 -11 -105 -19t-103 -30.5t-21 -168.5t47 -213q14 -20 109 -51t95 -57q0 -40 -33 -66q-9 -7 -94.5 -33.5t-105 -48t-19.5 -122.5l2 -59q1 -31 1 -81z" />
<glyph unicode="&#x2022;" horiz-adv-x="898" d="M465 393h-34q-103 0 -168.5 71.5t-65.5 178.5v17q0 103 67.5 176.5t178.5 73.5h17q98 0 169 -65t71 -160l2 -17v-34q0 -95 -67 -168t-170 -73z" />
<glyph unicode="&#x2026;" horiz-adv-x="1417" d="M224 7h-26q-52 0 -74.5 22.5t-22.5 55.5q-2 8 -2 12l-2 21v17q0 53 24.5 82.5t84.5 29.5h34l28 -4q66 0 66 -78l3 -20v-29l-4 -29q0 -33 -28 -56.5t-81 -23.5zM558 135q0 51 23 79t59 28q12 3 16 3l20 2h17q102 0 102 -83l3 -24v-21q0 -109 -90 -109l-24 -3h-29l-28 4 q-65 0 -65 74q-2 8 -2 12l-2 21v17zM1257 111l-2 -20q0 -33 -24 -57t-62 -24l-24 -3h-29l-4 1h-8q-8 2 -24 2t-38.5 22.5t-22.5 72.5v33l1 4v9q2 8 2 12q0 33 24 57t66 24l24 3h21q12 -3 35.5 -3t44.5 -25.5t21 -70.5v-33z" />
<glyph unicode="&#x2030;" horiz-adv-x="2214" d="M211 1054v-20q0 -88 33 -147t87 -59h24q59 0 94.5 63.5t35.5 151.5v33l-4 51q0 63 -38.5 106t-88.5 43h-6q-59 0 -98 -59t-39 -163zM969 289q0 -64 34.5 -108.5t76.5 -44.5h25q59 0 97.5 64.5t38.5 165.5v27l-4 51q0 61 -38.5 104.5t-87.5 43.5h-6q-57 0 -96 -55.5 t-39 -122.5q-2 -12 -2 -19l-2 -27v-41l1 -6v-13q2 -12 2 -19zM1637 322q0 -74 29.5 -132.5t82.5 -58.5h25q57 0 96 58.5t39 128.5l1 6l1 7l1 27v33q0 80 -31 136t-88 56h-12l-6 -1q-52 0 -93 -52.5t-41 -127.5q-2 -12 -2 -19l-2 -34v-27zM76 1015v23q0 153 77.5 250 t194.5 97h42q117 0 188 -88.5t71 -224.5v-45q0 -150 -81 -243.5t-199 -93.5h-32q-118 0 -189.5 89.5t-71.5 235.5zM267 34q0 87 721 1249q71 114 127 114q80 0 80 -31q0 -88 -703 -1221q-88 -142 -146 -142q-79 0 -79 31zM821 325v34q0 146 78.5 244t213.5 98h22 q122 0 194 -90t72 -231v-34q0 -222 -161 -311q-56 -31 -118 -31h-43q-109 0 -183.5 86t-74.5 235zM1786 4h-22q-117 0 -191.5 86t-74.5 246v12l1 11q0 155 81 248.5t207 93.5h11q129 0 204 -86.5t75 -223.5v-56q0 -150 -84.5 -240.5t-206.5 -90.5z" />
<glyph unicode="&#x2039;" horiz-adv-x="787" d="M571 988h11q43 0 43 -52.5t-154 -215.5t-154 -167q0 -13 156 -169t156 -200v-10q0 -55 -49 -55t-163 102q-301 269 -301 322q0 35 205 240t250 205z" />
<glyph unicode="&#x203a;" horiz-adv-x="786" d="M666 566q0 -39 -204.5 -243.5t-248.5 -204.5t-44 53.5t155 217t155 172.5t-91 100l-55 54q-24 22 -28 27q-142 150 -142 189v10q0 52 46.5 52t346.5 -284q110 -104 110 -143z" />
<glyph unicode="&#x2044;" horiz-adv-x="673" d="M-96 5q0 64 657 1301q75 142 129 142q77 0 77 -33q0 -22 -35 -92q-427 -854 -614 -1195q-86 -157 -138 -157q-76 0 -76 34z" />
<glyph unicode="&#x20ac;" horiz-adv-x="1273" d="M556 1027q0 -54 43 -80.5t144.5 -49.5t101.5 -59q0 -67 -170 -84q-22 -2 -88.5 -6t-85.5 -9q-50 -14 -50 -57.5t39 -57.5q12 -4 126 -12t149 -16q58 -14 58 -51q0 -43 -146.5 -81.5t-146.5 -96.5q0 -71 74.5 -123.5t211.5 -52.5q36 0 122 12.5t91 12.5q68 0 68 -49 q0 -67 -103.5 -119.5t-249.5 -52.5q-192 0 -321 102q-76 60 -147 198.5t-125 172t-54 73t57.5 63t57.5 75t-51.5 70.5t-51.5 47q0 49 57.5 93t124.5 169q67 126 143 190q148 127 348 127h3q126 0 211 -40.5t85 -89.5q0 -38 -21.5 -59.5t-82.5 -21.5l-175 14 q-91 0 -168.5 -48.5t-77.5 -102.5z" />
<glyph unicode="&#x2122;" horiz-adv-x="1577" d="M320 1442h197q74 0 90 -6.5t16 -40.5v-10q0 -34 -20 -44t-76 -15.5t-71.5 -22.5t-15.5 -65l-2 -24l-1 -24v-149l1 -12v-100l1 -25v-109q-8 -41 -58 -41h-23q-46 0 -52 46q-1 7 -1 48l1 24v112l1 38q0 218 -14.5 259t-94 41t-79.5 51v11q0 41 33 49.5t168 8.5zM1435 850 q0 -54 -35 -54h-13q-36 0 -52 51q-10 31 -30.5 179t-28 148t-72 -157.5t-71.5 -167.5q-22 -31 -76 -31q-29 0 -101 179.5t-84 179.5q-4 0 -25.5 -154t-27.5 -172q-17 -54 -58 -54q-35 0 -35 110l-5 147v24l1 24v24l3 145q0 83 18.5 112t69.5 29t93 -57t106 -184t69 -127 t77.5 141t106.5 185.5t75 44.5h19q50 0 66 -49q9 -28 9 -213l-5 -208q0 -1 3 -39l3 -38v-18z" />
<glyph unicode="&#x2212;" horiz-adv-x="1006" d="M108 573v18q0 61 47 73q28 7 358 7l166 2h129q90 0 90 -54v-18q0 -64 -47 -73q-32 -6 -357 -6h-37l-18 -1h-84l-37 -1h-129q-81 0 -81 53z" />
<glyph unicode="&#xe000;" horiz-adv-x="990" d="M0 990h990v-990h-990v990z" />
</font>
</defs>
</svg>
