<?xml version="1.0" standalone="no"?>
<!DOCTYPE svg PUBLIC "-//W3C//DTD SVG 20010904//EN"
 "http://www.w3.org/TR/2001/REC-SVG-20010904/DTD/svg10.dtd">
<svg version="1.0" xmlns="http://www.w3.org/2000/svg"
 width="100.000000pt" height="100.000000pt" viewBox="0 0 100.000000 100.000000"
 preserveAspectRatio="xMidYMid meet">
<metadata>
</metadata>
<g transform="translate(0.000000,100.000000) scale(0.100000,-0.100000)"
fill="#000000" stroke="none">
<path d="M545 947 c-4 -31 -11 -60 -16 -63 -5 -3 -9 -88 -9 -189 0 -170 1
-184 19 -190 10 -3 26 -3 35 1 14 5 16 29 16 195 0 122 -4 189 -10 189 -6 0
-8 10 -5 23 4 13 0 39 -8 58 l-14 34 -8 -58z"/>
<path d="M623 643 c-9 -3 -13 -27 -13 -73 0 -72 -5 -80 -55 -80 -49 0 -55 8
-55 76 0 35 -1 64 -2 64 -24 0 -201 -56 -238 -75 l-50 -25 0 -184 0 -184 293
-71 c160 -39 295 -71 300 -71 4 0 7 82 7 181 l0 182 -81 129 c-45 71 -85 130
-88 132 -3 2 -12 1 -18 -1z m-150 -214 c111 -27 219 -54 240 -60 l37 -10 0
-55 c0 -48 -2 -55 -17 -50 -10 3 -120 31 -245 62 l-228 56 0 54 c0 30 2 54 5
54 3 0 97 -23 208 -51z m40 -176 l237 -57 0 -53 c0 -36 -4 -53 -12 -53 -7 1
-116 27 -243 58 l-230 57 -3 53 c-2 28 1 52 5 52 4 0 115 -26 246 -57z"/>
</g>
</svg>
