<?xml version="1.0" encoding="utf-8"?>
<!-- Generator: Adobe Illustrator 16.0.0, SVG Export Plug-In . SVG Version: 6.00 Build 0)  -->
<!DOCTYPE svg PUBLIC "-//W3C//DTD SVG 1.1//EN" "http://www.w3.org/Graphics/SVG/1.1/DTD/svg11.dtd" [
	<!ENTITY ns_flows "http://ns.adobe.com/Flows/1.0/">
	<!ENTITY ns_extend "http://ns.adobe.com/Extensibility/1.0/">
	<!ENTITY ns_ai "http://ns.adobe.com/AdobeIllustrator/10.0/">
	<!ENTITY ns_graphs "http://ns.adobe.com/Graphs/1.0/">
	<!ENTITY ns_vars "http://ns.adobe.com/Variables/1.0/">
	<!ENTITY ns_imrep "http://ns.adobe.com/ImageReplacement/1.0/">
	<!ENTITY ns_sfw "http://ns.adobe.com/SaveForWeb/1.0/">
	<!ENTITY ns_custom "http://ns.adobe.com/GenericCustomNamespace/1.0/">
	<!ENTITY ns_adobe_xpath "http://ns.adobe.com/XPath/1.0/">
]>
<svg version="1.1" id="Selected_Items" xmlns:x="&ns_extend;" xmlns:i="&ns_ai;" xmlns:graph="&ns_graphs;"
	 xmlns="http://www.w3.org/2000/svg" xmlns:xlink="http://www.w3.org/1999/xlink" xmlns:a="http://ns.adobe.com/AdobeSVGViewerExtensions/3.0/"
	 x="0px" y="0px" width="1062px" height="520px" viewBox="0 0 1062 520" enable-background="new 0 0 1062 520" xml:space="preserve"
	>
<metadata>
	<sfw  xmlns="&ns_sfw;">
		<slices></slices>
		<sliceSourceBounds  width="1057" height="514" y="139.5" x="-223" bottomLeftOrigin="true"></sliceSourceBounds>
	</sfw>
</metadata>
<g>
	<path fill="#999999" stroke="#CCCCCC" stroke-miterlimit="10" d="M726.938,117.932c9.443,0,17.539,3.401,24.287,10.206
		c6.744,6.806,10.121,14.971,10.121,24.495c0,9.662-3.377,17.827-10.121,24.495c-6.748,6.805-14.844,10.206-24.287,10.206
		c-9.58,0-17.75-3.401-24.494-10.206c-6.609-6.668-9.91-14.833-9.91-24.495c0-9.524,3.301-17.689,9.91-24.495
		C709.191,121.333,717.355,117.932,726.938,117.932z M338.938,177.127c-6.608-6.668-9.919-14.833-9.919-24.495
		c0-9.524,3.308-17.689,9.919-24.495c6.884-6.805,15.046-10.206,24.488-10.206c9.444,0,17.54,3.401,24.288,10.206
		c6.748,6.806,10.12,14.971,10.12,24.495c0,9.662-3.372,17.827-10.12,24.495c-6.748,6.805-14.844,10.206-24.288,10.206
		C353.982,187.333,345.82,183.933,338.938,177.127z M771.869,228.362C627.623,341.989,475.288,342.4,314.85,229.586
		C477.988,300.622,630.324,300.211,771.869,228.362z"/>
	<path fill="none" stroke="#999999" stroke-width="9" stroke-linecap="round" stroke-linejoin="round" stroke-miterlimit="3" d="
		M602.258,7.5L639.5,8.317l7.893,0.204c2.566,0,5.131,0,7.693,0c76.102,0.135,152.266,0.339,228.5,0.612
		c0.678,0.14,1.354,0.339,2.025,0.614c12.416,3.401,22.938,11.021,31.58,22.86c11.469,15.379,7.756,132.68-11.135,351.909
		c0,0.547,0,1.096,0,1.638c-0.139,0.268-0.209,0.471-0.209,0.604c-0.131,0.271-0.266,0.479-0.4,0.613
		c-5.805,8.301-16.26,11.77-31.371,10.41l1.213,0.606l157.674,70.434c0.676,0.404,1.414,0.881,2.229,1.428
		c5.807,4.354,10.389,8.368,13.764,12.044c4.857,5.577,6.609,10.338,5.262,14.288 M599.629,24.85l35.008,0.817l7.293,0.204
		c2.289,0,4.648,0,7.084,0c71.244,0.135,142.557,0.339,213.938,0.612c0.676,0.14,1.279,0.275,1.82,0.409
		c11.732,3.267,21.654,10.411,29.752,21.433c10.529,14.424,7.018,124.246-10.523,329.454c0,0.55,0,1.093,0,1.635
		c-0.133,0.136-0.201,0.271-0.201,0.406c-0.139,0.272-0.271,0.479-0.41,0.611c-0.811,1.227-7.084,2.18-18.814,2.858
		c-3.512,0.27-7.426,0.475-11.74,0.61H621.691c-25.643,0.408-50.137,0.542-73.475,0.408
		c-243.417-0.683-367.487-4.426-372.211-11.228c-0.265-0.136-0.403-0.343-0.403-0.614c-0.138-0.951-0.202-1.838-0.202-2.648
		c-4.317-118.256-6.341-204.396-6.072-258.417c0.269-37.424,1.688-59.401,4.25-65.932c6.206-16.33,13.156-22.659,20.845-18.985
		c3.917-1.766,8.23-1.766,12.954,0l223.247-0.612l7.286-0.204l34.811-0.817 M647.393,8.521h-15.18h-5.869
		c-30.625,0-61.191,0-91.684,0c-10.254,0-20.447,0-30.566,0c-20.509,0-41.017,0-61.523,0c-1.083,0-2.158,0-3.242,0H436.9h-15.183
		L183.091,9.133H169.33c-8.23-3.807-15.654,2.928-22.264,20.209c-6.613,17.147-6.004,132.68,1.818,346.604
		c0,0.946,0.071,1.898,0.206,2.854c0.13,0.271,0.269,0.542,0.403,0.813c5.938,8.436,16.729,13.607,32.384,15.517h1.823
		l691.594,3.271 M639.5,8.317l-7.287,0.204 M437.912,25.667l6.882,0.204h2.427c0.812,0,1.822,0,3.036,0c28.743,0,57.419,0,86.021,0
		c28.605,0,57.277,0,86.02,0h5.472l6.872-0.204 M627.762,25.871h14.168 M183.09,9.132c-4.989-1.766-9.583-1.766-13.761,0
		 M194.424,26.483h12.954 M421.719,8.521l7.692-0.204L466.65,7.5 M429.412,8.317l7.486,0.204 M444.793,25.871h-14.168
		 M587.076,430.443l-1.611-11.023H480.818l-9.514,11.023 M397.834,411.459l-8.499,7.961h91.482l9.312-11.227H240.977
		 M584.041,409.828l1.424,9.592H699.01l-10.121-9.592 M377.594,430.443l11.741-11.023h-89.458l-22.469,14.086l519.355-0.814
		l-14.168-13.271h-83.592l10.119,9.39 M237.738,409.828l-21.655,9.592h83.794l14.974-9.592 M410.385,435.141l-21.858,22.038
		l309.266-0.604l-13.566-19.81 M216.083,419.42l-29.957,12.861l91.281,1.225 M183.699,395.129L31.09,462.489
		c-0.676,0.415-1.415,0.886-2.226,1.436c-5.669,4.218-10.053,8.165-13.156,11.833c-0.944,2.316-1.889,4.425-2.834,6.331
		l1036.079,0.207 M15.708,475.758c-2.296,2.316-3.913,4.425-4.858,6.331h2.024C2.621,502.365,5.791,512.5,22.385,512.5
		 M23.804,512.5h1008.958c1.078-0.268,2.09-0.471,3.035-0.606c14.033-3.269,20.375-7.823,19.025-13.683 M842.1,419.42h-59.502
		l-10.729-9.592 M796.766,432.688h80.354l-52.422-22.857 M490.131,408.193h331.326"/>
</g>
</svg>
