<?xml version="1.0" encoding="utf-8"?>
<!-- Generator: Adobe Illustrator 16.0.0, SVG Export Plug-In . SVG Version: 6.00 Build 0)  -->
<!DOCTYPE svg PUBLIC "-//W3C//DTD SVG 1.1//EN" "http://www.w3.org/Graphics/SVG/1.1/DTD/svg11.dtd" [
	<!ENTITY ns_flows "http://ns.adobe.com/Flows/1.0/">
	<!ENTITY ns_extend "http://ns.adobe.com/Extensibility/1.0/">
	<!ENTITY ns_ai "http://ns.adobe.com/AdobeIllustrator/10.0/">
	<!ENTITY ns_graphs "http://ns.adobe.com/Graphs/1.0/">
	<!ENTITY ns_vars "http://ns.adobe.com/Variables/1.0/">
	<!ENTITY ns_imrep "http://ns.adobe.com/ImageReplacement/1.0/">
	<!ENTITY ns_sfw "http://ns.adobe.com/SaveForWeb/1.0/">
	<!ENTITY ns_custom "http://ns.adobe.com/GenericCustomNamespace/1.0/">
	<!ENTITY ns_adobe_xpath "http://ns.adobe.com/XPath/1.0/">
]>
<svg version="1.1" id="Layer_1" xmlns:x="&ns_extend;" xmlns:i="&ns_ai;" xmlns:graph="&ns_graphs;"
	 xmlns="http://www.w3.org/2000/svg" xmlns:xlink="http://www.w3.org/1999/xlink" xmlns:a="http://ns.adobe.com/AdobeSVGViewerExtensions/3.0/"
	 x="0px" y="0px" width="1062px" height="518px" viewBox="0 0 1062 518" enable-background="new 0 0 1062 518" xml:space="preserve"
	>
<metadata>
	<sfw  xmlns="&ns_sfw;">
		<slices></slices>
		<sliceSourceBounds  width="1057" height="514" y="140.5" x="-221.003" bottomLeftOrigin="true"></sliceSourceBounds>
	</sfw>
</metadata>
<g>
	<path fill="#999999" stroke="#999999" stroke-miterlimit="10" d="M694.625,153.388l65.377-20.004
		c2.359,4.631,3.541,9.768,3.541,15.411c0,1.826-0.103,3.594-0.304,5.306c-0.759,8.165-4.101,15.174-10.019,21.026
		c-6.748,6.803-14.844,10.206-24.288,10.206c-9.582,0-17.745-3.403-24.492-10.206C698.468,169.102,695.194,161.855,694.625,153.388z
		 M338.001,129.505l61.731,18.881c0.066,0.757,0.101,1.505,0.101,2.247c0,9.662-3.374,17.827-10.12,24.495
		c-6.748,6.803-14.844,10.206-24.288,10.206c-9.446,0-17.608-3.403-24.491-10.206c-6.611-6.668-9.917-14.833-9.917-24.495
		C331.018,142.637,333.344,135.595,338.001,129.505z M316.85,227.585c163.133,71.037,315.472,70.625,457.017-1.224
		C629.62,339.989,477.284,340.399,316.85,227.585z"/>
	<path fill="none" stroke="#999999" stroke-width="9" stroke-linecap="round" stroke-linejoin="round" stroke-miterlimit="3" d="
		M601.625,22.85l35.012,0.817l7.29,0.204c2.293,0,4.653,0,7.084,0c71.243,0.135,142.554,0.341,213.935,0.612
		c0.676,0.137,1.279,0.273,1.821,0.409c11.737,3.267,21.655,10.411,29.751,21.433c10.527,14.424,7.018,124.244-10.522,329.454
		c0,0.546,0,1.089,0,1.635c-0.134,0.136-0.201,0.271-0.201,0.406c-0.139,0.274-0.272,0.479-0.407,0.613
		c-0.811,1.225-7.084,2.178-18.82,2.858c-3.511,0.271-7.425,0.475-11.74,0.61H623.688c-25.641,0.41-50.13,0.546-73.473,0.41
		c-243.418-0.683-367.488-4.426-372.212-11.228c-0.269-0.136-0.403-0.343-0.403-0.614c-0.136-0.951-0.204-1.838-0.204-2.65
		c-4.317-118.256-6.341-204.396-6.072-258.421c0.271-37.424,1.688-59.401,4.252-65.932c6.206-16.33,13.156-22.659,20.847-18.985
		c3.913-1.768,8.23-1.768,12.952,0l223.247-0.612l7.286-0.204l34.812-0.817 M604.254,5.5l37.242,0.817l7.894,0.204
		c2.565,0,5.128,0,7.693,0c76.101,0.135,152.269,0.341,228.505,0.612c0.676,0.138,1.353,0.341,2.023,0.614
		c12.417,3.401,22.938,11.021,31.577,22.86c11.468,15.379,7.756,132.68-11.133,351.909c0,0.547,0,1.09,0,1.636
		c-0.139,0.271-0.205,0.475-0.205,0.609c-0.135,0.271-0.27,0.479-0.402,0.614c-5.805,8.3-16.259,11.769-31.372,10.409l1.214,0.614
		l157.669,70.422c0.676,0.406,1.415,0.881,2.226,1.428c5.804,4.354,10.39,8.368,13.766,12.044
		c4.857,5.577,6.608,10.342,5.262,14.288 M649.39,6.521h-15.18h-5.87c-30.629,0-61.191,0-91.687,0c-10.254,0-20.441,0-30.562,0
		c-20.511,0-41.019,0-61.529,0c-1.079,0-2.159,0-3.238,0h-2.43h-15.18L185.087,7.132h-13.763c-8.23-3.81-15.652,2.926-22.264,20.209
		c-6.611,17.147-6.005,132.68,1.822,346.604c0,0.953,0.067,1.9,0.202,2.854c0.134,0.275,0.271,0.546,0.405,0.817
		c5.938,8.437,16.731,13.61,32.384,15.513h1.822l691.594,3.271 M641.496,6.317l-7.286,0.204 M636.637,23.667l-6.878,0.204h14.168
		 M439.908,23.667l6.882,0.204h2.427c0.811,0,1.822,0,3.036,0c28.741,0,57.415,0,86.021,0s57.279,0,86.02,0h5.467 M760.002,133.384
		l-65.377,20.004l-65.071,19.902 M851.788,105.317l-91.786,28.067 M196.423,24.483h12.952 M185.087,7.132
		c-4.99-1.768-9.58-1.768-13.763,0 M423.716,6.521l7.69-0.204L468.648,5.5 M338.001,129.505l-95.229-29.088 M338.001,129.505
		l61.731,18.881l65.272,20.003 M446.79,23.871h-14.168 M431.406,6.317l7.488,0.204 M586.037,407.828l1.42,9.592h113.545
		l-10.12-9.592 M399.833,409.459l-8.501,7.961h91.484l9.31-11.227H242.975 M589.073,428.443l-1.616-11.023H482.816l-9.514,11.023
		 M412.382,433.141l-21.86,22.043l309.267-0.609l-13.563-19.803 M239.735,407.828l-21.655,9.592h83.792l14.978-9.592
		 M379.593,428.443l11.739-11.023h-89.46l-22.465,14.086l519.354-0.816l-14.168-13.27h-83.592l10.119,9.39 M218.08,417.42
		l-29.957,12.861l91.283,1.225 M1050.949,480.292L14.871,480.089C4.617,500.361,7.787,510.5,24.384,510.5 M14.871,480.089
		c0.944-1.906,1.89-4.015,2.834-6.331c-2.294,2.316-3.913,4.425-4.858,6.331H14.871z M185.696,393.129l-152.609,67.36
		c-0.674,0.411-1.417,0.886-2.226,1.432c-5.669,4.218-10.053,8.165-13.156,11.837 M25.801,510.5h1008.957
		c1.078-0.271,2.091-0.475,3.035-0.61c14.033-3.265,20.375-7.825,19.026-13.679 M844.096,417.42h-59.502l-10.729-9.592
		 M798.762,430.688h80.352l-52.422-22.859 M492.126,406.193h331.327"/>
</g>
</svg>
